<svg width="200" height="25" viewBox="0 0 200 25" fill="none" xmlns="http://www.w3.org/2000/svg">
<g clip-path="url(#clip0_659_13148)">
<path fill-rule="evenodd" clip-rule="evenodd" d="M45.8726 16.6857C46.4327 16.6709 46.9832 16.8265 47.4448 17.13C47.8569 17.4203 48.1734 17.8171 48.3571 18.2737C48.5583 18.7688 48.6576 19.2963 48.6495 19.8273C48.6543 20.3335 48.5529 20.8354 48.3513 21.3035C48.1645 21.7436 47.8546 22.1261 47.4555 22.4091C47.0206 22.7027 46.4986 22.8555 45.9662 22.845C45.607 22.8454 45.2524 22.7681 44.9291 22.6186C44.6088 22.4723 44.335 22.2473 44.1357 21.9667H44.1123V24.7422H42.4309V16.8422H44.0265V17.5873H44.0519C44.239 17.2934 44.5093 17.056 44.8316 16.9027C45.1562 16.7539 45.5127 16.6796 45.8726 16.6857ZM114.004 16.6857C114.619 16.6717 115.223 16.8467 115.726 17.1849C116.178 17.5081 116.523 17.9497 116.719 18.4563C116.931 18.9984 117.018 19.5779 116.973 20.1551H112.561C112.547 20.5665 112.697 20.9676 112.979 21.2784C113.125 21.405 113.297 21.502 113.483 21.5637C113.669 21.6253 113.867 21.6502 114.064 21.637C114.375 21.6385 114.679 21.5541 114.941 21.3939C115.149 21.2779 115.309 21.096 115.391 20.8797H116.87C116.691 21.4814 116.308 22.0091 115.78 22.3793C115.151 22.742 114.415 22.8999 113.683 22.8292C112.951 22.7585 112.264 22.463 111.723 21.9872C111.154 21.3795 110.854 20.585 110.885 19.7705C110.879 19.2213 111.015 18.6792 111.282 18.1927C111.533 17.7385 111.91 17.3595 112.373 17.0974C112.868 16.8211 113.432 16.6788 114.005 16.6857H114.004ZM127.107 16.6857C127.524 16.6796 127.939 16.7196 128.346 16.8049C128.727 16.8767 129.08 17.0457 129.368 17.2939C129.511 17.4319 129.622 17.5966 129.695 17.7777C129.768 17.9589 129.801 18.1525 129.792 18.3464V21.3892C129.79 21.643 129.807 21.8966 129.841 22.1483C129.859 22.3364 129.915 22.5195 130.005 22.6876H128.302C128.273 22.5944 128.248 22.5013 128.225 22.4081C128.205 22.3135 128.191 22.2177 128.184 22.1213C127.92 22.3782 127.594 22.57 127.235 22.6801C126.877 22.7911 126.502 22.8459 126.125 22.8422C125.597 22.8635 125.077 22.7134 124.65 22.4165C124.448 22.2558 124.288 22.0523 124.183 21.8222C124.078 21.5922 124.031 21.3418 124.045 21.0912C124.017 20.755 124.108 20.4196 124.304 20.1388C124.499 19.858 124.788 19.648 125.123 19.5423C125.446 19.4295 125.783 19.3535 126.125 19.316C126.659 19.2591 127.118 19.1958 127.506 19.1222C127.894 19.0486 128.096 18.8568 128.114 18.5476C128.129 18.4209 128.106 18.2929 128.049 18.1777C127.992 18.0626 127.902 17.9649 127.791 17.8956C127.552 17.7882 127.288 17.741 127.024 17.7587C126.75 17.7427 126.478 17.8141 126.251 17.9617C126.147 18.0454 126.063 18.1491 126.005 18.266C125.946 18.3829 125.915 18.5103 125.911 18.6398H124.233C124.246 18.2068 124.416 17.7916 124.714 17.4653C125.004 17.1756 125.369 16.9661 125.773 16.859C126.207 16.7382 126.656 16.6798 127.107 16.6857ZM52.4577 16.6857C52.8734 16.6797 53.2885 16.7197 53.6946 16.8049C54.0752 16.8763 54.4284 17.0453 54.7161 17.2939C54.8593 17.4317 54.9711 17.5964 55.0444 17.7775C55.1178 17.9587 55.151 18.1523 55.142 18.3464V21.3892C55.1404 21.643 55.1567 21.8966 55.1908 22.1483C55.2094 22.3364 55.2653 22.5194 55.3555 22.6876H53.6537C53.6244 22.5944 53.5981 22.5013 53.5767 22.4081C53.5561 22.3135 53.5424 22.2177 53.5357 22.1213C53.2713 22.3782 52.9455 22.57 52.5864 22.6801C52.2279 22.7911 51.853 22.8459 51.4762 22.8422C50.9484 22.8635 50.4286 22.7134 50.0014 22.4165C49.7998 22.2557 49.64 22.0522 49.5348 21.8221C49.4296 21.5921 49.3818 21.3419 49.3952 21.0912C49.3789 20.729 49.4874 20.3717 49.7042 20.0741C49.9034 19.831 50.1708 19.6469 50.4751 19.5432C50.7987 19.4304 51.135 19.3545 51.4771 19.3169C52.0106 19.2604 52.4707 19.1958 52.8573 19.1232C53.244 19.0505 53.4467 18.8589 53.4655 18.5485C53.4804 18.4219 53.458 18.2939 53.401 18.1788C53.3441 18.0636 53.2547 17.9659 53.1429 17.8965C52.9036 17.7891 52.6396 17.7419 52.3758 17.7596C52.1015 17.7437 51.8293 17.8151 51.6019 17.9627C51.4985 18.0465 51.4149 18.1504 51.3568 18.2674C51.2986 18.3845 51.2672 18.5121 51.2647 18.6416H49.5843C49.5972 18.2084 49.7678 17.7931 50.0667 17.4672C50.3553 17.1772 50.7208 16.9677 51.1243 16.8608C51.5575 16.7395 52.0063 16.6805 52.4577 16.6857ZM196.519 16.6857C196.935 16.6796 197.351 16.7196 197.758 16.8049C198.138 16.8764 198.491 17.0454 198.779 17.2939C198.922 17.4319 199.034 17.5966 199.107 17.7777C199.18 17.9588 199.214 18.1524 199.205 18.3464V21.3892C199.203 21.643 199.219 21.8966 199.253 22.1483C199.272 22.3363 199.327 22.5192 199.417 22.6876H197.715C197.686 22.5944 197.659 22.5013 197.638 22.4081C197.617 22.3136 197.603 22.2177 197.597 22.1213C197.332 22.3785 197.006 22.5702 196.647 22.6801C196.288 22.7911 195.914 22.8459 195.537 22.8422C195.01 22.8635 194.49 22.7134 194.063 22.4165C193.861 22.2559 193.701 22.0525 193.595 21.8224C193.49 21.5923 193.443 21.3419 193.456 21.0912C193.429 20.755 193.52 20.4196 193.715 20.1388C193.911 19.858 194.199 19.648 194.534 19.5423C194.858 19.4295 195.195 19.3536 195.537 19.316C196.071 19.2591 196.532 19.1958 196.918 19.1222C197.304 19.0486 197.502 18.8568 197.526 18.5476C197.541 18.421 197.518 18.293 197.461 18.1778C197.404 18.0627 197.315 17.965 197.203 17.8956C196.964 17.7882 196.7 17.741 196.436 17.7587C196.162 17.7428 195.89 17.8142 195.662 17.9617C195.559 18.0458 195.476 18.1499 195.418 18.2672C195.36 18.3844 195.328 18.512 195.326 18.6416H193.647C193.661 18.2077 193.833 17.7921 194.135 17.4672C194.423 17.1769 194.789 16.9673 195.192 16.8608C195.624 16.74 196.072 16.681 196.522 16.6857H196.519ZM186.804 16.6857C187.271 16.6813 187.734 16.7635 188.169 16.9279C188.577 17.0808 188.936 17.3344 189.209 17.6627C189.492 18.0207 189.657 18.452 189.68 18.9006H188.036C188.004 18.6124 187.862 18.3456 187.637 18.1508C187.398 17.9711 187.098 17.8798 186.794 17.8937C186.481 17.8859 186.176 17.994 185.944 18.1955C185.731 18.3955 185.576 18.6453 185.494 18.9201C185.405 19.2038 185.361 19.4986 185.363 19.7947C185.362 20.0822 185.404 20.3685 185.49 20.6441C185.569 20.9107 185.721 21.1526 185.929 21.3454C186.156 21.5414 186.453 21.6458 186.759 21.637C186.928 21.6439 187.096 21.6187 187.254 21.5627C187.412 21.5067 187.557 21.4212 187.68 21.311C187.915 21.0756 188.061 20.7726 188.095 20.4494H189.716C189.65 21.1367 189.31 21.7734 188.767 22.2284C188.144 22.6648 187.381 22.8812 186.61 22.8406C185.838 22.8 185.105 22.505 184.536 22.0058C183.966 21.422 183.66 20.6474 183.684 19.8496C183.652 19.0238 183.943 18.2162 184.501 17.5845C184.795 17.2853 185.153 17.0501 185.551 16.895C185.949 16.74 186.378 16.6686 186.807 16.6857H186.804ZM68.0091 16.6857C68.4248 16.6797 68.8399 16.7197 69.246 16.8049C69.6266 16.8763 69.9798 17.0453 70.2675 17.2939C70.4107 17.4317 70.5225 17.5964 70.5958 17.7775C70.6692 17.9587 70.7024 18.1523 70.6934 18.3464V21.3892C70.6918 21.643 70.7081 21.8966 70.7422 22.1483C70.7608 22.3364 70.8167 22.5194 70.9069 22.6876H69.207C69.1768 22.5944 69.1514 22.5013 69.13 22.4081C69.1092 22.3136 69.0952 22.2177 69.0881 22.1213C68.8236 22.3782 68.4979 22.57 68.1387 22.6801C67.7803 22.7912 67.4053 22.846 67.0285 22.8422C66.5008 22.8635 65.981 22.7134 65.5538 22.4165C65.3521 22.2557 65.1924 22.0522 65.0871 21.8221C64.9819 21.5921 64.9341 21.3419 64.9475 21.0912C64.9313 20.729 65.0398 20.3717 65.2565 20.0741C65.4557 19.831 65.7231 19.6469 66.0275 19.5432C66.351 19.4303 66.6874 19.3543 67.0295 19.3169C67.563 19.2604 68.0234 19.1958 68.4107 19.1232C68.8006 19.0496 68.9955 18.8577 69.0179 18.5485C69.0327 18.4219 69.0104 18.2939 68.9534 18.1788C68.8964 18.0636 68.8071 17.9659 68.6953 17.8965C68.456 17.7891 68.1919 17.7419 67.9282 17.7596C67.6541 17.7435 67.3822 17.8149 67.1553 17.9627C67.0514 18.0461 66.9675 18.1497 66.909 18.2666C66.8505 18.3836 66.8188 18.5111 66.8161 18.6407H65.1376C65.1506 18.2075 65.3212 17.7922 65.6201 17.4662C65.9087 17.1763 66.2742 16.9668 66.6777 16.8599C67.1109 16.7389 67.5606 16.6802 68.012 16.6857H68.0091ZM168.819 14.6171V22.6866H167.224V21.9415H167.2C167.018 22.2407 166.746 22.4808 166.42 22.6307C166.084 22.7777 165.717 22.8509 165.348 22.845C164.799 22.856 164.262 22.6972 163.816 22.3923C163.407 22.0967 163.092 21.6994 162.904 21.2439C162.7 20.7575 162.598 20.2376 162.604 19.7136C162.599 19.2048 162.702 18.7002 162.905 18.23C163.095 17.7879 163.408 17.4042 163.811 17.1207C164.248 16.8284 164.771 16.6761 165.305 16.6857C165.663 16.6834 166.016 16.7582 166.339 16.9046C166.659 17.0466 166.929 17.2728 167.119 17.5566H167.143V14.6153L168.819 14.6171ZM155.965 16.6857C156.394 16.678 156.821 16.7333 157.232 16.8496C157.607 16.9523 157.945 17.1526 158.207 17.428C158.482 17.7437 158.643 18.1356 158.666 18.5457H157.071C157.07 18.4198 157.037 18.296 156.973 18.1859C156.909 18.0758 156.817 17.983 156.705 17.9161C156.465 17.7963 156.196 17.7401 155.925 17.7531C155.718 17.7465 155.511 17.7781 155.316 17.8462C155.219 17.8788 155.136 17.9399 155.077 18.0207C155.019 18.1015 154.988 18.1979 154.991 18.2961C155.011 18.5755 155.208 18.7618 155.584 18.867C155.96 18.9723 156.398 19.0719 156.897 19.1679C157.372 19.2483 157.826 19.4156 158.234 19.6606C158.429 19.7869 158.586 19.9586 158.691 20.1592C158.796 20.3599 158.846 20.5829 158.836 20.8071C158.853 21.2447 158.706 21.6738 158.423 22.0179C158.149 22.3207 157.79 22.5421 157.388 22.6559C156.506 22.9059 155.567 22.9059 154.685 22.6559C154.278 22.5386 153.913 22.3151 153.632 22.0104C153.339 21.6643 153.176 21.2338 153.17 20.7885H154.766C154.762 20.9363 154.796 21.0829 154.866 21.2148C154.936 21.3467 155.04 21.4598 155.167 21.5438C155.433 21.7038 155.743 21.7833 156.057 21.772C156.311 21.7774 156.563 21.7223 156.789 21.6118C156.902 21.5571 156.996 21.4731 157.061 21.3695C157.126 21.2659 157.16 21.1468 157.157 21.026C157.157 20.7913 156.988 20.6106 156.657 20.4848C156.201 20.3249 155.73 20.2033 155.251 20.1216C154.932 20.0602 154.62 19.971 154.318 19.8552C154.042 19.7537 153.795 19.5897 153.6 19.3774C153.404 19.147 153.303 18.857 153.313 18.5606C153.294 18.1443 153.435 17.7356 153.71 17.4122C153.975 17.1339 154.319 16.9352 154.7 16.8403C155.112 16.7321 155.538 16.68 155.965 16.6857ZM85.546 16.6857C86.1609 16.6717 86.7642 16.8467 87.2673 17.1849C87.7203 17.508 88.0656 17.9496 88.2615 18.4563C88.4733 18.9985 88.5601 19.5779 88.5159 20.1551H84.1024C84.0894 20.5664 84.2387 20.9673 84.5206 21.2784C84.6667 21.405 84.8382 21.502 85.0246 21.5637C85.2111 21.6253 85.4086 21.6502 85.6054 21.637C85.9162 21.6384 86.2209 21.554 86.4827 21.3939C86.6904 21.2776 86.8493 21.0958 86.932 20.8797H88.4106C88.2322 21.4818 87.8483 22.0097 87.3199 22.3793C86.6905 22.7419 85.9549 22.8996 85.2237 22.8289C84.4924 22.7582 83.8049 22.4629 83.2642 21.9872C82.6945 21.3801 82.3939 20.5853 82.4259 19.7705C82.4193 19.2213 82.5556 18.6791 82.8226 18.1927C83.074 17.7388 83.4513 17.3598 83.9133 17.0974C84.4083 16.8211 84.9727 16.6788 85.546 16.6857ZM149.5 16.6857C150.115 16.6719 150.718 16.8468 151.221 17.1849C151.674 17.5079 152.019 17.9491 152.215 18.4554C152.426 18.9976 152.513 19.577 152.469 20.1542H148.053C148.039 20.5657 148.189 20.9668 148.472 21.2774C148.618 21.4038 148.789 21.5007 148.975 21.5623C149.161 21.624 149.358 21.649 149.555 21.636C149.866 21.6373 150.17 21.5529 150.432 21.3929C150.64 21.277 150.8 21.0951 150.882 20.8788H152.361C152.183 21.4809 151.799 22.0087 151.27 22.3783C150.641 22.741 149.905 22.8988 149.173 22.8281C148.442 22.7574 147.754 22.462 147.213 21.9862C146.645 21.3785 146.345 20.5841 146.376 19.7695C146.37 19.2204 146.506 18.6783 146.773 18.1918C147.024 17.7376 147.401 17.3585 147.864 17.0965C148.36 16.8197 148.926 16.6777 149.5 16.6857ZM38.4726 16.6857C39.0879 16.6716 39.6916 16.8466 40.195 17.1849C40.6468 17.5083 40.9913 17.9495 41.1872 18.4554C41.399 18.9975 41.4858 19.577 41.4416 20.1542H37.0291C37.016 20.5657 37.1657 20.9667 37.4482 21.2774C37.5943 21.4039 37.7656 21.5009 37.9518 21.5625C38.1381 21.6242 38.3355 21.6492 38.5321 21.636C38.8429 21.6374 39.1475 21.553 39.4093 21.3929C39.6184 21.2768 39.7782 21.0942 39.8606 20.8769H41.3393C41.1611 21.4787 40.778 22.0064 40.2505 22.3765C39.6209 22.7391 38.8852 22.897 38.1538 22.8263C37.4224 22.7556 36.7346 22.4602 36.1938 21.9844C35.6246 21.377 35.3238 20.5825 35.3546 19.7677C35.3492 19.2185 35.4858 18.6765 35.7523 18.1899C36.0025 17.7365 36.3785 17.3575 36.8391 17.0946C37.3346 16.8191 37.8994 16.6777 38.4726 16.6857ZM109.918 14.6171V22.6866H108.324V21.9415H108.3C108.118 22.2402 107.846 22.4802 107.521 22.6307C107.184 22.7777 106.818 22.8509 106.448 22.845C105.9 22.856 105.363 22.6972 104.916 22.3923C104.508 22.0969 104.193 21.6995 104.006 21.2439C103.801 20.7577 103.699 20.2377 103.705 19.7136C103.7 19.2047 103.803 18.7 104.007 18.23C104.196 17.7879 104.509 17.4041 104.911 17.1207C105.351 16.8272 105.876 16.6749 106.412 16.6857C106.77 16.6835 107.124 16.7583 107.448 16.9046C107.767 17.0472 108.037 17.2732 108.227 17.5566H108.251V14.6153L109.918 14.6171ZM172.908 16.6857C173.523 16.6717 174.126 16.8467 174.629 17.1849C175.083 17.5072 175.43 17.9485 175.627 18.4554C175.839 18.9975 175.926 19.577 175.881 20.1542H171.469C171.455 20.5656 171.605 20.9667 171.887 21.2774C172.033 21.4041 172.205 21.5011 172.391 21.5627C172.578 21.6244 172.775 21.6493 172.972 21.636C173.283 21.6371 173.587 21.5527 173.849 21.3929C174.057 21.2764 174.215 21.0947 174.299 20.8788H175.777C175.598 21.4805 175.215 22.0081 174.687 22.3783C174.058 22.7411 173.322 22.8989 172.59 22.8282C171.859 22.7575 171.171 22.4621 170.63 21.9862C170.061 21.3785 169.761 20.5841 169.793 19.7695C169.786 19.2204 169.923 18.6783 170.189 18.1918C170.44 17.7379 170.817 17.359 171.279 17.0965C171.773 16.8214 172.336 16.6794 172.908 16.6857ZM20.1716 15.5494L20.2223 18.9564C20.1931 19.4943 19.9917 20.0106 19.6453 20.4355C19.837 20.5788 20.0458 20.7001 20.2671 20.7968C20.0734 21.0187 19.921 21.2707 19.8168 21.542C19.9811 21.7012 20.1037 21.8954 20.1745 22.1086C20.2453 22.3218 20.2624 22.5479 20.2243 22.7686C19.9911 22.7955 19.7547 22.7731 19.5317 22.7029C19.3086 22.6327 19.1045 22.5165 18.9337 22.3625C18.6484 22.4563 18.382 22.5962 18.1462 22.776C18.0732 22.5622 17.9751 22.3569 17.8538 22.1641C16.689 22.9092 15.7689 22.586 13.6811 22.5926C14.161 22.4284 14.6267 22.2284 15.0739 21.9946C16.1851 21.4442 16.382 20.8425 17.4132 20.8043C17.4649 20.5634 17.4649 20.315 17.4132 20.0741C17.6514 20.1131 17.8938 20.1228 18.1345 20.103C18.1234 19.6997 18.2496 19.3039 18.4942 18.9751C18.5916 18.8344 18.6228 18.773 18.7924 18.5364C19.3837 17.6011 19.8472 16.5973 20.1716 15.5494ZM0.677548 15.5299C0.99787 16.5795 1.45917 17.5851 2.04993 18.5215C2.21855 18.759 2.25072 18.8214 2.34234 18.9611C2.58702 19.2896 2.71357 19.685 2.70298 20.0881C2.94365 20.1076 3.18593 20.0986 3.42426 20.0611C3.37244 20.3013 3.37244 20.5491 3.42426 20.7894C4.4555 20.8267 4.65336 21.4293 5.76355 21.9788C6.21181 22.2112 6.67851 22.4096 7.15933 22.5721C5.07346 22.5655 4.15139 22.8925 2.98857 22.1436C2.86693 22.3369 2.76882 22.5428 2.69616 22.7574C2.46097 22.5774 2.19526 22.4372 1.91055 22.3429C1.73972 22.4972 1.53546 22.6136 1.31227 22.684C1.08907 22.7543 0.852402 22.7768 0.619066 22.75C0.580605 22.5294 0.597386 22.3032 0.668035 22.09C0.738684 21.8768 0.86119 21.6826 1.02552 21.5233C0.922824 21.2541 0.772118 21.0039 0.580078 20.7838C0.80164 20.687 1.01039 20.5654 1.20194 20.4215C0.855289 19.9958 0.654168 19.4784 0.625889 18.9397L0.677548 15.5299ZM63.1726 15.0903V16.8422H64.4027V17.9142H63.1726V20.809C63.1426 20.9032 63.1399 21.0035 63.1649 21.0991C63.1898 21.1947 63.2415 21.282 63.3144 21.3517C63.3872 21.4214 63.4786 21.4709 63.5786 21.4949C63.6786 21.5189 63.7835 21.5165 63.8822 21.4879C63.9709 21.4879 64.0576 21.4879 64.1424 21.4777C64.2298 21.4707 64.3166 21.4592 64.4027 21.4432V22.6959C64.2457 22.719 64.0876 22.7342 63.929 22.7416C63.7574 22.75 63.5888 22.7528 63.4202 22.7518C62.9544 22.7801 62.489 22.6915 62.0702 22.4948C61.8739 22.3758 61.716 22.2071 61.6142 22.0075C61.5123 21.8078 61.4704 21.5851 61.4932 21.3641V17.9179H60.4766V16.8422H61.499V15.0903H63.1726ZM98.6362 15.0903V16.8422H99.8673V17.9142H98.6352V20.809C98.6052 20.9032 98.6025 21.0035 98.6275 21.0991C98.6525 21.1947 98.7042 21.282 98.777 21.3517C98.8499 21.4214 98.9412 21.4709 99.0412 21.4949C99.1412 21.5189 99.2462 21.5165 99.3448 21.4879C99.4326 21.4879 99.5193 21.4879 99.6051 21.4777C99.6927 21.4706 99.7799 21.4591 99.8663 21.4432V22.6959C99.7093 22.7189 99.5512 22.7341 99.3926 22.7416C99.222 22.75 99.0524 22.7528 98.8838 22.7518C98.4184 22.7803 97.9532 22.6917 97.5348 22.4948C97.3382 22.3761 97.18 22.2075 97.0779 22.0078C96.9758 21.8081 96.9339 21.5852 96.9568 21.3641V17.9179H95.9402V16.8422H96.9588V15.0903H98.6362ZM145.828 16.6857C145.891 16.6857 145.954 16.6907 146.017 16.7006C146.077 16.7098 146.137 16.7239 146.196 16.7425V18.2328C146.102 18.2133 146.007 18.1996 145.911 18.1918C145.803 18.1815 145.696 18.1769 145.593 18.1759C145.347 18.1591 145.1 18.2009 144.875 18.2974C144.65 18.3939 144.453 18.5423 144.303 18.7292C144.039 19.1231 143.911 19.5864 143.937 20.0536V22.6866H142.257V16.8422H143.854V17.9254H143.877C144.036 17.558 144.308 17.2454 144.657 17.0294C145.004 16.8084 145.411 16.6889 145.828 16.6857ZM138.357 14.6171C138.947 14.5986 139.531 14.7297 140.05 14.9971C140.457 15.218 140.784 15.5507 140.989 15.9518C141.18 16.3446 141.278 16.7724 141.278 17.2054C141.278 17.6384 141.18 18.0662 140.989 18.4591C140.783 18.8603 140.456 19.1932 140.05 19.4147C139.531 19.6809 138.947 19.8116 138.357 19.7937H136.408V22.6876H134.556V14.6153L138.357 14.6171ZM30.6974 14.6171C31.3808 14.6042 32.0567 14.755 32.6634 15.0558C33.2465 15.356 33.7206 15.8181 34.0231 16.3812C34.3784 17.0726 34.5523 17.8362 34.53 18.6062C34.5438 19.326 34.4007 20.0406 34.1099 20.7046C33.8461 21.2969 33.4028 21.8001 32.8369 22.1492C32.1926 22.521 31.4498 22.7076 30.6974 22.6866H27.054V14.6153L30.6974 14.6171ZM180.372 16.6857C180.703 16.6508 181.039 16.6925 181.35 16.8074C181.661 16.9224 181.938 17.1071 182.159 17.3461C182.501 17.8667 182.658 18.4788 182.607 19.0915V22.6866H180.928V19.3867C180.958 19.0123 180.872 18.6378 180.682 18.3091C180.588 18.1861 180.461 18.0885 180.316 18.0259C180.17 17.9632 180.01 17.9376 179.851 17.9515C179.665 17.9341 179.477 17.9607 179.303 18.0291C179.13 18.0974 178.977 18.2054 178.857 18.3436C178.616 18.7293 178.508 19.1776 178.548 19.6252V22.6885H176.87V16.8422H178.463V17.6544H178.5C178.701 17.3437 178.987 17.0911 179.327 16.9232C179.651 16.7655 180.009 16.6841 180.372 16.6857ZM161.525 16.8441V22.6866H159.847V16.8422L161.525 16.8441ZM192.384 16.8441V22.6866H190.707V16.8422L192.384 16.8441ZM122.97 14.6171V22.6866H121.292V14.6153L122.97 14.6171ZM79.15 16.6857C79.7281 16.6519 80.2991 16.8216 80.7553 17.1626C80.9773 17.3711 81.1487 17.6237 81.2575 17.9024C81.3663 18.1811 81.4098 18.4792 81.3849 18.7757V22.6876H79.7065V19.3728C79.7326 19.0309 79.6793 18.6877 79.5506 18.3678C79.429 18.0996 79.1366 17.9599 78.6733 17.9487C78.4897 17.9341 78.3055 17.9703 78.1427 18.0528C77.98 18.1354 77.8454 18.2609 77.7551 18.4144C77.5998 18.7317 77.5288 19.0807 77.5485 19.4305V22.6904H75.872V19.4119C75.8802 19.1852 75.8714 18.9583 75.8457 18.7329C75.8275 18.5274 75.7383 18.3334 75.5923 18.1815C75.4913 18.0986 75.374 18.0358 75.2473 17.9966C75.1207 17.9574 74.9871 17.9427 74.8544 17.9533C74.7021 17.955 74.5518 17.9867 74.4129 18.0465C74.2174 18.1297 74.0524 18.2669 73.9392 18.4404C73.7812 18.7 73.7044 18.9974 73.7179 19.2973V22.6885H72.0395V16.8422H73.6234V17.632H73.6468C73.8536 17.3429 74.1283 17.104 74.449 16.9344C74.7784 16.7656 75.1474 16.6797 75.5211 16.6848C75.887 16.6762 76.2496 16.7526 76.5777 16.9074C76.9021 17.0694 77.1589 17.3322 77.3058 17.6525C77.4974 17.3791 77.7488 17.1487 78.0427 16.9772C78.3767 16.7846 78.7598 16.6837 79.15 16.6857ZM93.0054 16.6857C93.3369 16.6508 93.6724 16.6925 93.9835 16.8074C94.2946 16.9224 94.5722 17.1071 94.793 17.3461C95.135 17.8666 95.2919 18.4788 95.2404 19.0915V22.6866H93.5609V19.3867C93.5914 19.0123 93.506 18.6375 93.3153 18.3091C93.2209 18.186 93.0946 18.0883 92.9489 18.0256C92.8032 17.9629 92.643 17.9374 92.4839 17.9515C92.2974 17.9342 92.1093 17.9609 91.9362 18.0293C91.763 18.0977 91.61 18.2056 91.4907 18.3436C91.2488 18.729 91.1404 19.1775 91.1807 19.6252V22.6885H89.5042V16.8422H91.0998V17.6544H91.13C91.332 17.3433 91.6187 17.0905 91.9595 16.9232C92.2832 16.7652 92.6419 16.6837 93.0054 16.6857ZM60.0107 16.6857C60.0737 16.6858 60.1366 16.6907 60.1988 16.7006C60.2593 16.7099 60.319 16.7239 60.3772 16.7425V18.2328C60.2836 18.2134 60.1889 18.1997 60.0935 18.1918C59.9844 18.1815 59.8771 18.1769 59.7738 18.1759C59.5278 18.1593 59.2813 18.2011 59.0563 18.2976C58.8312 18.3942 58.6348 18.5424 58.4843 18.7292C58.2205 19.1233 58.0923 19.5864 58.1178 20.0536V22.6866H56.4403V16.8422H58.035V17.9254H58.0583C58.2185 17.5572 58.4926 17.2446 58.844 17.0294C59.1896 16.8089 59.5951 16.6895 60.0107 16.6857ZM10.4246 1.14932C15.7513 1.14932 20.0741 5.95991 20.0741 11.8956C20.0741 17.8313 15.7562 22.6401 10.4246 22.6401C5.09296 22.6401 0.775019 17.8295 0.775019 11.8956C0.775019 5.96178 5.09588 1.14932 10.4246 1.14932ZM17.5 21.0213C16.5369 20.9692 16.0769 21.881 14.7971 22.3206L13.9881 22.5627C15.4123 22.3787 16.7953 21.9725 18.0819 21.3603C18.0596 21.3006 18.049 21.2375 18.0507 21.1741C17.8803 21.0861 17.6932 21.034 17.5 21.0213ZM3.34824 21.0036C3.15649 21.0161 2.96974 21.0675 2.80045 21.1545C2.80197 21.2179 2.7914 21.281 2.76926 21.3408C4.05591 21.9525 5.43886 22.3584 6.86302 22.5423L6.05401 22.301C4.7713 21.8642 4.31124 20.9505 3.34824 21.0036ZM19.0263 21.5205C18.9672 21.5913 18.889 21.6454 18.8002 21.677C18.8117 21.8336 18.8768 21.9821 18.9854 22.0999C19.1117 22.2415 19.2696 22.3542 19.4476 22.4297C19.6256 22.5051 19.8191 22.5414 20.0137 22.5357L19.0263 21.5205ZM18.3236 21.6537C18.2687 21.8114 18.1646 21.9492 18.0253 22.0486C18.1279 22.1908 18.1971 22.3525 18.2281 22.5227L18.5263 21.7143C18.4536 21.7091 18.383 21.6884 18.3197 21.6537H18.3236ZM1.8199 21.5028L0.832526 22.5171C1.02695 22.5236 1.22037 22.4879 1.39829 22.4127C1.57622 22.3375 1.73402 22.2248 1.85986 22.0831C1.9687 21.9646 2.03437 21.8156 2.04701 21.6584C1.9576 21.6278 1.87893 21.5739 1.8199 21.5028ZM2.52169 21.6351C2.46016 21.6691 2.39168 21.6901 2.3209 21.6966L2.61818 22.5013L2.6367 22.4454C2.66186 22.2952 2.72511 22.1533 2.82092 22.0319C2.68162 21.9312 2.57761 21.7925 2.52266 21.6342L2.52169 21.6351ZM11.3018 21.405C11.0107 21.439 10.7178 21.4564 10.4246 21.4572C10.1313 21.4576 9.83831 21.4402 9.54735 21.405V21.8214C9.83857 21.8534 10.1314 21.8695 10.4246 21.8698C10.7177 21.8694 11.0106 21.8532 11.3018 21.8214V21.405ZM128.116 19.8217C127.936 19.9448 127.726 20.0224 127.506 20.0471L126.719 20.1607C126.473 20.1956 126.237 20.2797 126.026 20.4075C125.926 20.4771 125.846 20.5697 125.793 20.6766C125.741 20.7835 125.717 20.9014 125.724 21.0194C125.714 21.1367 125.738 21.2545 125.792 21.3599C125.847 21.4653 125.931 21.5544 126.035 21.6174C126.257 21.7278 126.505 21.779 126.754 21.7655C127.09 21.7853 127.423 21.6895 127.691 21.4954C127.872 21.3464 127.999 21.147 128.055 20.9254C128.098 20.7603 128.119 20.5907 128.116 20.4206V19.8217ZM53.4655 19.8217C53.2858 19.945 53.0761 20.0226 52.8563 20.0471L52.0688 20.1607C51.8225 20.1956 51.5867 20.2797 51.3768 20.4075C51.2768 20.4772 51.1968 20.5697 51.144 20.6766C51.0912 20.7836 51.0673 20.9014 51.0746 21.0194C51.0644 21.1367 51.0881 21.2544 51.1429 21.3598C51.1977 21.4652 51.2816 21.5543 51.3855 21.6174C51.6069 21.7278 51.8555 21.779 52.1049 21.7655C52.4408 21.7852 52.7731 21.6894 53.0415 21.4954C53.2221 21.3465 53.349 21.1471 53.4041 20.9254C53.4476 20.7604 53.4683 20.5907 53.4655 20.4206V19.8217ZM69.0189 19.8217C68.8391 19.945 68.6295 20.0226 68.4097 20.0471L67.6221 20.1607C67.3759 20.1956 67.1401 20.2797 66.9301 20.4075C66.8301 20.4772 66.7501 20.5697 66.6973 20.6766C66.6445 20.7836 66.6207 20.9014 66.6279 21.0194C66.6178 21.1367 66.6414 21.2544 66.6962 21.3598C66.751 21.4652 66.8349 21.5543 66.9389 21.6174C67.16 21.7277 67.4082 21.7789 67.6572 21.7655C67.9935 21.7854 68.3261 21.6896 68.5949 21.4954C68.7754 21.3465 68.9023 21.1471 68.9575 20.9254C69.001 20.7604 69.0217 20.5907 69.0189 20.4206V19.8217ZM197.53 19.8217C197.35 19.945 197.14 20.0226 196.92 20.0471L196.133 20.1607C195.887 20.1956 195.651 20.2797 195.441 20.4075C195.341 20.477 195.26 20.5695 195.208 20.6764C195.155 20.7834 195.131 20.9014 195.139 21.0194C195.128 21.1368 195.152 21.2546 195.207 21.36C195.261 21.4655 195.345 21.5545 195.45 21.6174C195.671 21.7278 195.919 21.779 196.168 21.7655C196.504 21.7853 196.837 21.6895 197.106 21.4954C197.286 21.3466 197.413 21.1471 197.468 20.9254C197.512 20.7604 197.533 20.5907 197.53 20.4206V19.8217ZM45.5051 17.8919C45.1904 17.8817 44.8825 17.981 44.6386 18.1713C44.4209 18.3586 44.2628 18.6007 44.1825 18.8698C44.0901 19.1656 44.0451 19.473 44.0489 19.7816C44.0305 20.2301 44.1432 20.6745 44.3745 21.0651C44.4945 21.2488 44.6636 21.3986 44.8644 21.499C45.0653 21.5993 45.2905 21.6466 45.5168 21.636C45.7431 21.648 45.9686 21.6013 46.1694 21.5007C46.3701 21.4002 46.5387 21.2497 46.6572 21.0651C46.883 20.6728 46.9922 20.229 46.973 19.7816C46.976 19.4758 46.928 19.1715 46.8307 18.8801C46.7455 18.6089 46.584 18.3653 46.3638 18.1759C46.1234 17.9844 45.818 17.8833 45.5051 17.8919ZM106.852 17.8919C106.624 17.8807 106.397 17.9278 106.194 18.0285C105.991 18.1292 105.82 18.2798 105.699 18.4647C105.466 18.8583 105.353 19.3064 105.372 19.7584C105.37 20.0624 105.422 20.3647 105.524 20.6525C105.616 20.9224 105.782 21.1639 106.005 21.352C106.243 21.54 106.544 21.6393 106.852 21.6314C107.08 21.6437 107.306 21.5958 107.508 21.493C107.709 21.3901 107.876 21.2362 107.991 21.0483C108.211 20.6466 108.316 20.197 108.297 19.7444C108.316 19.2969 108.207 18.8528 107.982 18.46C107.864 18.2768 107.698 18.1273 107.499 18.0273C107.3 17.9273 107.076 17.8805 106.852 17.8919ZM165.759 17.8919C165.531 17.8807 165.304 17.9278 165.101 18.0285C164.898 18.1292 164.728 18.2798 164.606 18.4647C164.373 18.8584 164.26 19.3064 164.279 19.7584C164.277 20.0624 164.328 20.3646 164.431 20.6525C164.523 20.9223 164.69 21.1637 164.912 21.352C165.15 21.54 165.451 21.6393 165.759 21.6314C165.987 21.6437 166.214 21.5958 166.415 21.493C166.616 21.3901 166.783 21.2362 166.899 21.0483C167.118 20.6467 167.223 20.197 167.203 19.7444C167.222 19.297 167.114 18.8529 166.889 18.46C166.772 18.2767 166.605 18.1272 166.406 18.0271C166.207 17.9271 165.984 17.8804 165.759 17.8919ZM18.8226 20.9906C18.7785 20.9483 18.7222 20.9196 18.6609 20.9079C18.5997 20.8962 18.5362 20.9022 18.4784 20.925C18.4207 20.9479 18.3714 20.9865 18.3367 21.0362C18.3019 21.0858 18.2834 21.1442 18.2834 21.2039C18.2834 21.2636 18.3019 21.3219 18.3367 21.3715C18.3714 21.4212 18.4207 21.4599 18.4784 21.4827C18.5362 21.5055 18.5997 21.5115 18.6609 21.4998C18.7222 21.4881 18.7785 21.4594 18.8226 21.4171C18.8816 21.3604 18.9146 21.2838 18.9146 21.2039C18.9146 21.124 18.8816 21.0473 18.8226 20.9906ZM2.02361 20.9701C1.97942 21.0123 1.94931 21.066 1.93711 21.1246C1.9249 21.1831 1.93114 21.2438 1.95503 21.299C1.97892 21.3541 2.0194 21.4013 2.07134 21.4345C2.12328 21.4676 2.18435 21.4853 2.24682 21.4853C2.30929 21.4853 2.37036 21.4676 2.4223 21.4345C2.47424 21.4013 2.51472 21.3541 2.53861 21.299C2.56251 21.2438 2.56874 21.1831 2.55654 21.1246C2.54433 21.066 2.51422 21.0123 2.47003 20.9701C2.44077 20.942 2.40599 20.9197 2.36769 20.9045C2.32938 20.8892 2.28831 20.8814 2.24682 20.8814C2.20534 20.8814 2.16426 20.8892 2.12596 20.9045C2.08765 20.9197 2.05287 20.942 2.02361 20.9701ZM5.74601 19.8524V20.3684C6.28836 20.7511 6.87753 21.0692 7.50047 21.3156V20.8686C6.87196 20.6041 6.28217 20.2625 5.74601 19.8524ZM15.0983 19.8524C14.5612 20.2613 13.9716 20.6028 13.3438 20.8686V21.3147C13.9668 21.0683 14.556 20.7503 15.0983 20.3675V19.8524ZM30.2315 16.1129H28.9108V21.1936H30.5678C30.924 21.1994 31.276 21.1204 31.5922 20.9636C31.9293 20.7914 32.2019 20.5232 32.372 20.1961C32.5911 19.7524 32.6967 19.2652 32.68 18.7748C32.7332 18.0885 32.5479 17.4045 32.1527 16.8292C31.9162 16.5717 31.619 16.3717 31.2856 16.2459C30.9522 16.12 30.5922 16.0719 30.2354 16.1055L30.2315 16.1129ZM19.4728 20.6245C19.3876 20.7781 19.2562 20.9036 19.0955 20.985L19.1482 21.1461L19.4689 21.0427L19.6843 20.9701C19.8246 20.9244 19.9504 20.8816 19.9991 20.863C19.8176 20.7964 19.6416 20.7167 19.4728 20.6245ZM10.4246 2.65537C10.1312 2.6554 9.8382 2.67375 9.54735 2.71032V21.0809C9.83827 21.1167 10.1313 21.1347 10.4246 21.1349C10.7179 21.1347 11.0109 21.1163 11.3018 21.08V2.70939C11.0109 2.67338 10.7179 2.65534 10.4246 2.65537ZM1.37349 20.6068C1.20612 20.7 1.03145 20.7807 0.851046 20.8481C0.900756 20.8676 1.02649 20.9095 1.16587 20.9561L1.37836 21.026L1.69904 21.1294L1.74972 20.9701C1.59034 20.8861 1.4597 20.76 1.37349 20.6068ZM17.6306 20.2846C17.6757 20.4538 17.6737 20.6314 17.6247 20.7996H17.6549L18.2641 20.7894L17.6306 20.2846ZM3.21763 20.2669L2.58309 20.7698C2.92424 20.7773 3.1221 20.7801 3.19228 20.781H3.2225C3.17282 20.6131 3.17114 20.4356 3.21763 20.2669ZM20.1092 15.8056C20.078 15.9192 20.0566 16.0114 20.0391 16.0971L20.0001 16.2834C19.8821 16.7939 19.7147 17.2927 19.5 17.7736C19.0673 18.8409 18.1355 19.4352 18.4366 20.3619C18.4559 20.4784 18.5059 20.5884 18.5819 20.6814C18.6496 20.6789 18.7172 20.6878 18.7817 20.7074C19.476 19.1454 19.9234 17.4934 20.1092 15.8056ZM0.73798 15.7869C0.923039 17.4754 1.37013 19.1281 2.06455 20.6907C2.12908 20.6711 2.19673 20.6626 2.26437 20.6655C2.34058 20.5726 2.39088 20.4626 2.41057 20.3461C2.70298 19.4147 1.77896 18.8242 1.3462 17.7568C1.132 17.2759 0.964936 16.777 0.847147 16.2666L0.821805 16.1409C0.799386 16.0338 0.775019 15.9285 0.73798 15.7869ZM7.50047 3.27381C6.86717 3.55523 6.27692 3.91777 5.74601 4.35142V19.4398C6.27741 19.8718 6.8676 20.2331 7.50047 20.5137V3.27381ZM13.3487 3.27381V20.5044C13.9815 20.2229 14.5716 19.861 15.1032 19.4286V4.357C14.5724 3.92337 13.9821 3.56112 13.3487 3.28033V3.27381ZM113.958 17.8919C113.664 17.8828 113.374 17.9605 113.128 18.1145C112.94 18.2399 112.791 18.4122 112.698 18.6128C112.619 18.7779 112.573 18.9558 112.562 19.1371H115.291C115.251 18.7938 115.104 18.4696 114.871 18.2057C114.75 18.0957 114.606 18.011 114.449 17.9569C114.292 17.9029 114.124 17.8807 113.958 17.8919ZM172.865 17.8919C172.571 17.8828 172.281 17.9605 172.035 18.1145C171.847 18.2399 171.698 18.4122 171.605 18.6128C171.526 18.7779 171.48 18.9558 171.469 19.1371H174.198C174.158 18.7938 174.012 18.4696 173.778 18.2057C173.657 18.0957 173.513 18.011 173.356 17.9569C173.199 17.9029 173.031 17.8807 172.865 17.8919ZM38.4249 17.8919C38.1307 17.8828 37.8408 17.9605 37.5944 18.1145C37.4066 18.2403 37.258 18.4125 37.1646 18.6128C37.0854 18.7779 37.0391 18.9557 37.0281 19.1371H39.7573C39.7172 18.7937 39.5709 18.4694 39.3372 18.2057C39.2162 18.0958 39.0726 18.0112 38.9156 17.9571C38.7585 17.9031 38.5914 17.8809 38.4249 17.8919ZM85.5031 17.8919C85.2089 17.8828 84.9189 17.9605 84.6726 18.1145C84.4848 18.2403 84.3362 18.4125 84.2428 18.6128C84.1636 18.7779 84.1173 18.9558 84.1063 19.1371H86.8355C86.7954 18.7937 86.6491 18.4694 86.4154 18.2057C86.2938 18.0952 86.1495 18.0102 85.9915 17.9562C85.8336 17.9021 85.6655 17.8802 85.4982 17.8919H85.5031ZM149.457 17.8919C149.163 17.883 148.873 17.9607 148.627 18.1145C148.439 18.2404 148.29 18.4125 148.196 18.6128C148.118 18.7782 148.072 18.9559 148.061 19.1371H150.791C150.75 18.7938 150.604 18.4696 150.371 18.2057C150.249 18.0952 150.104 18.0102 149.946 17.9561C149.788 17.9021 149.62 17.8802 149.452 17.8919H149.457ZM137.848 15.9928H136.404V18.4144H137.848C138.241 18.439 138.635 18.3632 138.988 18.1946C139.157 18.088 139.291 17.9392 139.377 17.7644C139.463 17.5896 139.497 17.3956 139.475 17.2036C139.497 17.0115 139.463 16.8174 139.377 16.6426C139.291 16.4678 139.157 16.319 138.988 16.2126C138.635 16.0447 138.241 15.9689 137.848 15.9928ZM3.69913 5.41599C2.29673 7.31019 1.55399 9.57821 1.57623 11.8984C1.55475 14.2171 2.29747 16.4834 3.69913 18.3762V17.6506C2.57443 15.9247 1.98626 13.9288 2.00315 11.8956C1.98623 9.86216 2.5744 7.86598 3.69913 6.13967V5.41599ZM17.15 5.4253V6.15085C18.2709 7.87546 18.8573 9.86833 18.8411 11.8984C18.8567 13.9273 18.2704 15.9188 17.15 17.6423V18.3622C18.5486 16.4708 19.2889 14.2068 19.2661 11.891C19.2881 9.57612 18.5478 7.31327 17.15 5.42251V5.4253ZM3.69913 6.75252C2.79126 8.32709 2.32142 10.0979 2.33454 11.8956C2.32132 13.693 2.79118 15.4636 3.69913 17.0378V6.75252ZM17.15 6.7637V17.0257C18.0559 15.4547 18.5257 13.6883 18.5146 11.8947C18.526 10.101 18.0562 8.33453 17.15 6.7637ZM172.602 14.5128L173.737 16.1166H172.567L170.746 14.5128H172.602ZM192.381 14.6143V15.9406H190.704V14.6153L192.381 14.6143ZM161.522 14.6143V15.9406H159.847V14.6153L161.522 14.6143ZM140.288 5.54917L142.299 10.5228L144.179 5.54917H144.924L142.276 12.2747C142.151 12.6478 141.941 12.9897 141.661 13.2759C141.376 13.4811 141.021 13.5754 140.666 13.5395C140.521 13.5349 140.404 13.5302 140.316 13.5246C140.242 13.5212 140.168 13.5071 140.098 13.4827V12.8857C140.266 12.9197 140.436 12.9388 140.607 12.9425C140.734 12.9521 140.862 12.9342 140.981 12.8902C141.1 12.8462 141.207 12.7772 141.294 12.6882C141.455 12.4875 141.582 12.2645 141.672 12.0269L141.933 11.3591L139.496 5.54917H140.288ZM94.2179 5.37966C94.7879 5.36315 95.3464 5.53449 95.7998 5.86491C96.2042 6.18132 96.5058 6.60133 96.6693 7.07571C96.8486 7.5833 96.9279 8.11826 96.9032 8.65347H92.2022C92.2055 9.01527 92.2765 9.37359 92.4118 9.71152C92.5425 10.053 92.7663 10.3549 93.0599 10.5861C93.389 10.8314 93.7967 10.9604 94.214 10.9512C94.6805 10.9716 95.1381 10.8244 95.4967 10.5386C95.8188 10.2494 96.0414 9.87367 96.1351 9.46098H96.8808C96.7694 10.0518 96.4618 10.5926 96.0035 11.0034C95.4984 11.3906 94.8616 11.5862 94.215 11.5529C93.6555 11.57 93.1044 11.4196 92.6389 11.1226C92.2317 10.8424 91.9201 10.4536 91.7431 10.0049C91.5477 9.51346 91.4518 8.991 91.4605 8.46534C91.4558 7.95846 91.5517 7.45533 91.7431 6.98257C91.9235 6.52858 92.2339 6.13224 92.6389 5.83884C93.0987 5.52538 93.6532 5.36413 94.2179 5.37966ZM111.944 5.37966C112.303 5.37246 112.661 5.41961 113.004 5.51937C113.34 5.61571 113.635 5.81137 113.847 6.0782C114.092 6.42589 114.212 6.83984 114.191 7.25826V10.3523C114.182 10.4676 114.221 10.5813 114.299 10.6699C114.342 10.7095 114.394 10.7399 114.451 10.7592C114.508 10.7784 114.568 10.7861 114.628 10.7817C114.671 10.7815 114.714 10.7772 114.756 10.7686C114.793 10.7608 114.829 10.7505 114.865 10.7379V11.3349C114.789 11.3514 114.712 11.363 114.635 11.3694C114.55 11.3771 114.465 11.3805 114.38 11.3796C114.245 11.3968 114.107 11.38 113.981 11.331C113.854 11.282 113.744 11.2025 113.659 11.1002C113.536 10.8732 113.483 10.6174 113.505 10.3626H113.482C113.265 10.7132 112.969 11.013 112.614 11.2399C112.202 11.4639 111.731 11.5711 111.258 11.5491C110.741 11.5693 110.232 11.4241 109.812 11.1365C109.613 10.981 109.455 10.7829 109.35 10.5582C109.246 10.3335 109.198 10.0884 109.211 9.84285C109.196 9.6244 109.233 9.40555 109.318 9.20234C109.403 8.99912 109.535 8.81668 109.703 8.66838C110.058 8.40506 110.479 8.23319 110.923 8.16916C111.42 8.08347 111.94 8.0161 112.483 7.96705C112.731 7.96082 112.974 7.89926 113.193 7.78729C113.286 7.71392 113.357 7.61919 113.4 7.51209C113.444 7.40499 113.458 7.28907 113.441 7.17537C113.459 6.98999 113.425 6.80337 113.342 6.63475C113.26 6.46612 113.132 6.32159 112.971 6.21604C112.626 6.03718 112.236 5.95426 111.844 5.97668C111.432 5.95681 111.025 6.07035 110.689 6.29894C110.533 6.42548 110.408 6.58452 110.325 6.76398C110.242 6.94344 110.203 7.1386 110.211 7.33464H109.467C109.464 7.04904 109.53 6.76657 109.657 6.50846C109.785 6.25036 109.973 6.02332 110.206 5.84442C110.716 5.51145 111.327 5.34813 111.944 5.37966ZM128.211 5.54917V9.34642C128.188 9.77717 128.326 10.2015 128.601 10.5442C128.92 10.7973 129.319 10.9412 129.734 10.9532C130.149 10.9651 130.556 10.8445 130.891 10.6103C131.169 10.3792 131.376 10.081 131.491 9.74692C131.622 9.38205 131.688 8.99845 131.685 8.61249V5.54917H132.429V11.3768H131.747V10.33H131.724C131.537 10.7054 131.238 11.0195 130.865 11.2325C130.487 11.4447 130.055 11.5545 129.616 11.5501C129.312 11.5743 129.007 11.5332 128.722 11.4297C128.437 11.3262 128.179 11.163 127.969 10.9521C127.609 10.4864 127.434 9.91368 127.476 9.33618V5.54917H128.211ZM30.674 3.14062C31.5017 3.11895 32.3141 3.35676 32.987 3.81773C33.6495 4.30724 34.0845 5.02559 34.1986 5.81834H33.3964C33.349 5.4792 33.2129 5.15694 33.0007 4.88137C32.7572 4.56013 32.4388 4.2974 32.0708 4.11391C31.5637 3.87188 30.9982 3.76369 30.4327 3.80053C29.8672 3.83738 29.3223 4.01791 28.8543 4.32347C28.387 4.66139 28.028 5.11761 27.8182 5.64045C27.5961 6.18375 27.4846 6.76257 27.4897 7.34581C27.4845 7.92877 27.596 8.50729 27.8182 9.05024C28.0278 9.57323 28.3867 10.0295 28.8543 10.3672C29.3846 10.727 30.0229 10.9126 30.6731 10.8962C31.0773 10.9126 31.4804 10.8463 31.8556 10.7018C32.2308 10.5572 32.5694 10.3377 32.8486 10.058C33.3749 9.46714 33.6429 8.70538 33.5972 7.93072H30.7218V7.27875H34.3048V11.3768H33.7258L33.6225 9.91177H33.5991C33.345 10.4434 32.918 10.8824 32.3817 11.1636C31.8559 11.4266 31.2695 11.5595 30.676 11.5501C29.8906 11.5674 29.1179 11.3584 28.4585 10.9503C27.874 10.5681 27.4142 10.0361 27.132 9.41535C26.8332 8.76311 26.6824 8.05778 26.6895 7.34581C26.6823 6.63384 26.8331 5.92849 27.132 5.27628C27.4134 4.6551 27.8725 4.12243 28.4566 3.7395C29.1159 3.33126 29.8887 3.12254 30.674 3.14062ZM104.927 3.14062C105.457 3.13946 105.982 3.2415 106.47 3.44052C106.95 3.63379 107.373 3.93589 107.703 4.32068C108.047 4.73152 108.262 5.22736 108.322 5.75035H107.519C107.397 5.17661 107.064 4.66382 106.579 4.30578C106.102 3.9671 105.521 3.78718 104.927 3.79352C104.277 3.77806 103.638 3.9636 103.107 4.32254C102.641 4.66104 102.282 5.11711 102.072 5.63952C101.85 6.18291 101.739 6.76166 101.744 7.34488C101.739 7.92781 101.85 8.50627 102.072 9.04931C102.282 9.57201 102.64 10.0282 103.107 10.3663C103.638 10.7258 104.276 10.9114 104.927 10.8953C105.279 10.9019 105.628 10.8381 105.952 10.708C106.276 10.5779 106.569 10.3844 106.81 10.14C107.289 9.63232 107.58 8.98821 107.638 8.307H108.44C108.374 9.19355 107.985 10.03 107.34 10.6709C107.019 10.9628 106.64 11.191 106.226 11.3421C105.812 11.4932 105.37 11.5642 104.927 11.551C104.142 11.5684 103.369 11.3594 102.71 10.9512C102.126 10.5685 101.666 10.0366 101.383 9.41628C101.085 8.7639 100.934 8.05862 100.941 7.34674C100.934 6.63486 101.085 5.92955 101.383 5.27721C101.666 4.65569 102.126 4.12277 102.71 3.7395C103.369 3.33112 104.142 3.12238 104.927 3.14062ZM148.061 5.37594C148.421 5.36879 148.779 5.41594 149.123 5.51565C149.458 5.61216 149.753 5.80781 149.965 6.07447C150.21 6.42197 150.331 6.83606 150.308 7.25454V10.3523C150.301 10.4675 150.339 10.5811 150.416 10.6699C150.46 10.7094 150.512 10.7398 150.569 10.759C150.625 10.7782 150.686 10.786 150.746 10.7817C150.789 10.7815 150.832 10.7772 150.874 10.7686C150.911 10.7605 150.948 10.7503 150.984 10.7379V11.3349C150.908 11.3514 150.831 11.3629 150.754 11.3694C150.668 11.3771 150.583 11.3805 150.497 11.3796C150.362 11.3968 150.225 11.38 150.098 11.331C149.972 11.282 149.861 11.2025 149.777 11.1002C149.655 10.8729 149.602 10.6173 149.624 10.3626H149.601C149.383 10.7135 149.087 11.0133 148.732 11.2399C148.32 11.464 147.849 11.5712 147.375 11.5491C146.859 11.5693 146.351 11.4241 145.931 11.1365C145.731 10.9813 145.573 10.7833 145.468 10.5585C145.364 10.3337 145.316 10.0885 145.329 9.84285C145.314 9.62438 145.351 9.40547 145.436 9.20223C145.521 8.99898 145.653 8.81656 145.822 8.66838C146.177 8.40495 146.596 8.23306 147.041 8.16916C147.537 8.08347 148.059 8.0161 148.605 7.96705C148.854 7.96082 149.097 7.89926 149.316 7.78729C149.409 7.7142 149.48 7.61953 149.524 7.51237C149.567 7.40522 149.581 7.28917 149.564 7.17537C149.582 6.99001 149.548 6.80346 149.466 6.63487C149.383 6.46628 149.255 6.32172 149.095 6.21604C148.75 6.0372 148.359 5.95428 147.967 5.97668C147.555 5.95694 147.149 6.07049 146.813 6.29894C146.656 6.42534 146.531 6.58436 146.448 6.76385C146.365 6.94335 146.326 7.13857 146.334 7.33464H145.59C145.587 7.04911 145.653 6.76678 145.781 6.50873C145.909 6.25068 146.096 6.0236 146.328 5.84442C146.837 5.51244 147.446 5.34917 148.061 5.37966V5.37594ZM38.1734 5.37594C38.7434 5.35958 39.3019 5.5309 39.7554 5.86119C40.1597 6.17763 40.4613 6.59763 40.6248 7.07199C40.8033 7.57976 40.8822 8.11462 40.8578 8.64975H36.1568C36.1593 9.01154 36.2299 9.36993 36.3653 9.7078C36.4964 10.0491 36.7201 10.351 37.0135 10.5824C37.343 10.8276 37.751 10.9565 38.1685 10.9475C38.6342 10.9656 39.0902 10.8172 39.4474 10.5311C39.7694 10.242 39.992 9.8662 40.0858 9.45353H40.8353C40.7239 10.0444 40.4163 10.5852 39.9581 10.9959C39.453 11.3831 38.8162 11.5788 38.1695 11.5454C37.6097 11.5626 37.0583 11.4121 36.5924 11.1151C36.1858 10.8346 35.8746 10.4459 35.6977 9.99746C35.5022 9.50602 35.4063 8.98356 35.415 8.45788C35.4103 7.951 35.5062 7.44787 35.6977 6.97512C35.878 6.52137 36.188 6.12509 36.5924 5.83138C37.054 5.52043 37.609 5.36183 38.1734 5.37966V5.37594ZM74.4626 5.37594C74.8216 5.36876 75.1795 5.41592 75.5231 5.51565C75.8589 5.61151 76.1539 5.80729 76.3652 6.07447C76.6104 6.42194 76.7311 6.83598 76.7093 7.25454V10.3523C76.7015 10.4674 76.7398 10.5809 76.8165 10.6699C76.8605 10.7094 76.9125 10.7398 76.9694 10.759C77.0263 10.7783 77.0868 10.786 77.1469 10.7817C77.1899 10.7816 77.2326 10.7772 77.2746 10.7686C77.3117 10.7608 77.3482 10.7505 77.3838 10.7379V11.3349C77.308 11.3515 77.2312 11.363 77.1538 11.3694C77.0689 11.3771 76.9836 11.3805 76.8984 11.3796C76.7633 11.3969 76.6258 11.3802 76.4995 11.3312C76.3732 11.2822 76.2624 11.2026 76.1781 11.1002C76.0546 10.8732 76.0012 10.6174 76.0241 10.3626H76.0007C75.7837 10.7132 75.4873 11.013 75.1332 11.2399C74.7208 11.4639 74.2502 11.5711 73.7764 11.5491C73.2599 11.5693 72.7512 11.4241 72.3309 11.1365C72.1322 10.981 71.9745 10.7829 71.8707 10.5583C71.767 10.3337 71.7199 10.0889 71.7334 9.84378C71.7182 9.62571 71.754 9.40712 71.8383 9.20395C71.9226 9.00078 72.0533 8.81813 72.2208 8.66931C72.5762 8.40599 72.9964 8.23412 73.4411 8.17009C73.9369 8.0844 74.4584 8.01703 75.0055 7.96798C75.2535 7.96167 75.4964 7.90012 75.7151 7.78822C75.8079 7.71506 75.8795 7.62041 75.9232 7.5133C75.9669 7.40618 75.9812 7.29017 75.9646 7.1763C75.9824 6.99086 75.9481 6.80425 75.8653 6.63565C75.7826 6.46705 75.6544 6.32254 75.4938 6.21698C75.1488 6.03676 74.7577 5.95285 74.3651 5.97482C73.9535 5.95516 73.5469 6.06869 73.2111 6.29708C73.054 6.42352 72.9292 6.58252 72.8461 6.76199C72.763 6.94145 72.7238 7.13666 72.7315 7.33277H71.9869C71.9846 7.04715 72.0499 6.76472 72.178 6.50665C72.3061 6.24858 72.4937 6.02155 72.7267 5.84256C73.2366 5.51064 73.8465 5.348 74.4626 5.37966V5.37594ZM90.3503 3.31013V11.3768H89.668V10.2732H89.6446C89.4652 10.6637 89.1571 10.9875 88.7673 11.1952C88.3348 11.4402 87.8383 11.5628 87.3357 11.5488C86.8331 11.5348 86.3449 11.3847 85.928 11.1161C85.5205 10.8333 85.2055 10.4457 85.0196 9.99839C84.8159 9.51036 84.7146 8.98884 84.7214 8.46347C84.7147 7.93872 84.816 7.41783 85.0196 6.93042C85.205 6.48287 85.5201 6.09514 85.928 5.81276C86.3798 5.51708 86.9178 5.36549 87.4651 5.37966C87.9151 5.37592 88.3578 5.48787 88.7469 5.70378C89.1336 5.91852 89.4297 6.2555 89.5842 6.65659H89.6075V3.31013H90.3503ZM50.6584 5.37966C51.228 5.36367 51.7861 5.53496 52.2394 5.86491C52.6432 6.18165 52.9444 6.60158 53.1078 7.07571C53.2873 7.58325 53.3663 8.11829 53.3408 8.65347H48.6466C48.6501 9.01517 48.7207 9.3734 48.8552 9.71152C48.9863 10.0526 49.2096 10.3543 49.5024 10.5861C49.8322 10.8314 50.2406 10.9603 50.6584 10.9512C51.1238 10.9695 51.5795 10.821 51.9362 10.5349C52.2583 10.2457 52.4809 9.86994 52.5747 9.45726H53.3193C53.2079 10.0481 52.9003 10.5889 52.4421 10.9996C51.9372 11.3866 51.3008 11.5823 50.6545 11.5491C50.0947 11.5664 49.5433 11.416 49.0774 11.1188C48.6707 10.8381 48.3593 10.4495 48.1817 10.0012C47.9862 9.50974 47.8903 8.98728 47.899 8.46161C47.8943 7.95473 47.9902 7.45159 48.1817 6.97885C48.3628 6.52522 48.673 6.12904 49.0774 5.83511C49.5384 5.52265 50.0935 5.36271 50.6584 5.37966ZM60.4785 5.37966C60.8375 5.37249 61.1954 5.41964 61.539 5.51937C61.8748 5.61571 62.17 5.81137 62.3821 6.0782C62.6264 6.42601 62.7468 6.83987 62.7252 7.25826V10.3523C62.7174 10.4674 62.7558 10.5809 62.8324 10.6699C62.8764 10.7094 62.9285 10.7398 62.9853 10.759C63.0422 10.7783 63.1027 10.786 63.1629 10.7817C63.2058 10.7816 63.2486 10.7772 63.2906 10.7686C63.3276 10.7608 63.3641 10.7505 63.3997 10.7379V11.3349C63.324 11.3515 63.2471 11.363 63.1697 11.3694C63.0848 11.3771 62.9996 11.3805 62.9143 11.3796C62.7792 11.3969 62.6417 11.3802 62.5154 11.3312C62.3891 11.2822 62.2783 11.2026 62.194 11.1002C62.0706 10.8732 62.0172 10.6174 62.04 10.3626H62.0166C61.7996 10.7135 61.5028 11.0133 61.1482 11.2399C60.7358 11.4641 60.2652 11.5714 59.7914 11.5491C59.2752 11.5692 58.7668 11.424 58.3469 11.1365C58.1473 10.9812 57.9888 10.7832 57.8843 10.5584C57.7798 10.3336 57.7322 10.0885 57.7455 9.84285C57.7299 9.62475 57.7656 9.40609 57.8499 9.20287C57.9343 8.99966 58.0651 8.81703 58.2328 8.66838C58.5883 8.40506 59.0084 8.23319 59.4531 8.16916C59.9489 8.08347 60.4704 8.0161 61.0175 7.96705C61.2655 7.96061 61.5084 7.89906 61.7271 7.78729C61.8199 7.71414 61.8915 7.61946 61.935 7.51232C61.9785 7.40519 61.9925 7.28917 61.9757 7.17537C61.9936 6.99 61.9595 6.80342 61.877 6.63481C61.7944 6.4662 61.6663 6.32165 61.5059 6.21604C61.1627 6.03734 60.7742 5.95379 60.384 5.97482C59.9723 5.95508 59.5657 6.06862 59.2299 6.29708C59.0729 6.42352 58.948 6.58252 58.865 6.76199C58.7819 6.94145 58.7427 7.13666 58.7504 7.33277H58.0057C58.0034 7.04715 58.0688 6.76472 58.1969 6.50665C58.325 6.24858 58.5126 6.02155 58.7455 5.84256C59.2546 5.51123 59.8634 5.34862 60.4785 5.37966ZM121.566 5.37966C121.925 5.37246 122.283 5.41961 122.627 5.51937C122.962 5.61571 123.258 5.81137 123.47 6.0782C123.714 6.42589 123.835 6.83984 123.813 7.25826V10.3523C123.805 10.4675 123.844 10.5811 123.921 10.6699C123.965 10.7095 124.017 10.7399 124.073 10.7592C124.13 10.7784 124.19 10.7861 124.25 10.7817C124.293 10.7815 124.336 10.7772 124.378 10.7686C124.415 10.7607 124.452 10.7504 124.487 10.7379V11.3349C124.412 11.3514 124.335 11.3629 124.258 11.3694C124.173 11.3771 124.087 11.3805 124.002 11.3796C123.867 11.3968 123.729 11.38 123.603 11.331C123.477 11.282 123.366 11.2025 123.282 11.1002C123.158 10.8734 123.105 10.6174 123.129 10.3626H123.105C122.888 10.7131 122.591 11.0128 122.237 11.2399C121.824 11.4637 121.354 11.5709 120.88 11.5491C120.364 11.5694 119.855 11.4242 119.435 11.1365C119.236 10.9813 119.077 10.7833 118.973 10.5585C118.868 10.3337 118.821 10.0885 118.834 9.84285C118.819 9.62436 118.855 9.40539 118.94 9.20211C119.026 8.99883 119.157 8.81643 119.326 8.66838C119.681 8.40477 120.101 8.23286 120.546 8.16916C121.041 8.08347 121.561 8.0161 122.105 7.96705C122.353 7.96068 122.597 7.89914 122.816 7.78729C122.908 7.71391 122.98 7.6192 123.023 7.51213C123.067 7.40505 123.081 7.28915 123.064 7.17537C123.082 6.99001 123.048 6.80346 122.965 6.63487C122.883 6.46628 122.755 6.32172 122.594 6.21604C122.249 6.03729 121.859 5.95438 121.467 5.97668C121.055 5.9571 120.648 6.07062 120.312 6.29894C120.155 6.42548 120.03 6.58452 119.947 6.76398C119.864 6.94344 119.825 7.1386 119.833 7.33464H119.089C119.087 7.04907 119.152 6.76667 119.28 6.5086C119.408 6.25052 119.595 6.02346 119.828 5.84442C120.338 5.51145 120.949 5.34813 121.566 5.37966ZM116.857 3.79631V5.54917H118.1V6.14619H116.857V10.2145C116.858 10.3574 116.893 10.4984 116.96 10.6261C117.017 10.7009 117.092 10.7607 117.18 10.8C117.268 10.8392 117.364 10.8566 117.461 10.8506C117.674 10.8503 117.888 10.8391 118.1 10.8171V11.4253C117.988 11.4253 117.877 11.4299 117.769 11.4364C117.66 11.443 117.549 11.4458 117.437 11.4467C117.253 11.4683 117.067 11.4547 116.888 11.4068C116.71 11.3588 116.543 11.2774 116.398 11.1673C116.166 10.8748 116.064 10.5067 116.114 10.1428V6.14619H115.049V5.54917H116.114V3.79538L116.857 3.79631ZM79.3761 3.79631V5.54917H80.6179V6.14619H79.3761V10.2145C79.3749 10.357 79.4082 10.498 79.4736 10.6261C79.5304 10.7009 79.6062 10.7607 79.6938 10.8C79.7814 10.8392 79.878 10.8566 79.9746 10.8506C80.1878 10.8502 80.4009 10.839 80.613 10.8171V11.4253C80.5019 11.4253 80.3898 11.4299 80.2816 11.4364C80.1734 11.443 80.0623 11.4458 79.9502 11.4467C79.7664 11.4684 79.5799 11.4549 79.4017 11.4069C79.2235 11.3589 79.057 11.2775 78.9121 11.1673C78.6801 10.8748 78.5779 10.5067 78.6275 10.1428V6.14619H77.568V5.54917H78.6324V3.79538L79.3761 3.79631ZM69.7538 3.79631V5.54917H70.9956V6.14619H69.7538V10.0813C69.7352 10.2683 69.7688 10.4566 69.8513 10.6271C69.9084 10.7018 69.9844 10.7615 70.0722 10.8008C70.1599 10.84 70.2566 10.8575 70.3533 10.8515C70.5665 10.8512 70.7796 10.84 70.9917 10.818V11.4262C70.8793 11.4262 70.7688 11.4299 70.6603 11.4374C70.5511 11.4439 70.441 11.4467 70.3289 11.4476C70.145 11.4692 69.9584 11.4557 69.78 11.4077C69.6016 11.3597 69.435 11.2783 69.2898 11.1682C69.0582 10.8756 68.9563 10.5075 69.0062 10.1437V6.14619H67.9448V5.54917H69.0101V3.79538L69.7538 3.79631ZM57.3585 5.4728V6.17972C57.0584 6.15722 56.7568 6.19618 56.4737 6.29399C56.1907 6.39181 55.9327 6.54623 55.7171 6.74693C55.5117 6.94853 55.3502 7.18714 55.2421 7.44888C55.134 7.71062 55.0815 7.99028 55.0874 8.27161V11.3768H54.3438V5.54917H55.026V6.91458H55.0494C55.2122 6.46353 55.527 6.07686 55.9446 5.81525C56.3621 5.55364 56.8588 5.43188 57.3566 5.46908L57.3585 5.4728ZM67.1523 5.54917V11.3768H66.4086V5.54917H67.1523ZM136.544 5.37966C136.866 5.34773 137.192 5.38531 137.496 5.48961C137.801 5.59391 138.077 5.76227 138.305 5.98227C138.661 6.46003 138.829 7.04251 138.779 7.62709V11.3768H138.035V7.74444C138.064 7.30318 137.952 6.86378 137.713 6.48521C137.568 6.31022 137.38 6.17249 137.166 6.08451C136.951 5.99652 136.717 5.96106 136.485 5.98134C136.223 5.97374 135.962 6.02108 135.722 6.12004C135.481 6.219 135.266 6.36718 135.091 6.55414C134.745 6.95598 134.56 7.46185 134.568 7.98195V11.3768H133.822V5.54917H134.567V6.55321H134.59C134.736 6.19794 135.001 5.89912 135.345 5.70378C135.704 5.49222 136.117 5.38003 136.54 5.37966H136.544ZM126.054 3.31013V11.3768H125.31V3.31013H126.054ZM44.5684 5.37873C44.8904 5.34694 45.2156 5.38457 45.5203 5.48887C45.8249 5.59316 46.1012 5.76145 46.3288 5.98134C46.6848 6.45902 46.8526 7.04165 46.8025 7.62616V11.3768H46.0588V7.74444C46.0885 7.30305 45.9759 6.86356 45.7361 6.48521C45.5915 6.31016 45.4034 6.17238 45.189 6.08439C44.9745 5.9964 44.7404 5.96097 44.508 5.98134C44.246 5.97399 43.9856 6.02145 43.7448 6.1204C43.504 6.21934 43.2888 6.36737 43.1142 6.55414C42.7703 6.95518 42.5847 7.45886 42.5898 7.97729V11.3768H41.8461V5.54917H42.5898V6.55321H42.6142C42.7599 6.19783 43.0253 5.89896 43.3686 5.70378C43.7289 5.49129 44.1441 5.37904 44.5675 5.37966L44.5684 5.37873ZM64.967 3.31013V11.3768H64.2282V3.31013H64.967ZM87.4651 5.97482C87.0479 5.96443 86.6405 6.09652 86.316 6.34737C86.017 6.5968 85.7938 6.91851 85.6697 7.27875C85.3975 8.04556 85.3975 8.87673 85.6697 9.64353C85.7941 10.0037 86.0172 10.3253 86.316 10.5749C86.6407 10.8253 87.048 10.9573 87.4651 10.9475C87.9174 10.9621 88.3617 10.8309 88.7264 10.5749C89.0412 10.3322 89.2778 10.0093 89.4087 9.64353C89.5471 9.26338 89.6154 8.86315 89.6105 8.46068C89.6144 8.05835 89.5452 7.65842 89.4058 7.27875C89.2748 6.91301 89.0383 6.59012 88.7235 6.34737C88.3598 6.09156 87.9165 5.96032 87.4651 5.97482ZM75.9636 8.19151H75.9393C75.8744 8.28147 75.7773 8.34572 75.6664 8.3722C75.5506 8.40686 75.4324 8.43332 75.3125 8.45136L74.0133 8.63764C73.631 8.68503 73.2619 8.80269 72.9265 8.98412C72.7822 9.0679 72.664 9.18705 72.5841 9.3292C72.5042 9.47136 72.4656 9.63134 72.4723 9.79256C72.4708 9.95434 72.5077 10.1144 72.5803 10.2605C72.6529 10.4067 72.7593 10.5352 72.8914 10.6364C73.1591 10.8398 73.4918 10.9493 73.8339 10.9465C74.3766 10.9553 74.9054 10.7826 75.3291 10.4585C75.5344 10.2949 75.6981 10.089 75.808 9.85618C75.9179 9.62338 75.9711 9.3698 75.9636 9.11451V8.19151ZM61.9786 8.19151H61.9552C61.8903 8.28147 61.7932 8.34572 61.6823 8.3722C61.5665 8.40674 61.4483 8.4332 61.3285 8.45136L60.0292 8.63764C59.6472 8.68487 59.2784 8.80254 58.9434 8.98412C58.7988 9.06764 58.6802 9.18671 58.6002 9.3289C58.5201 9.4711 58.4814 9.63121 58.4882 9.79256C58.4866 9.95427 58.5233 10.1142 58.5958 10.2604C58.6682 10.4066 58.7744 10.5351 58.9063 10.6364C59.1745 10.8398 59.5075 10.9493 59.8498 10.9465C60.3926 10.9554 60.9214 10.7828 61.345 10.4585C61.5502 10.2949 61.7138 10.0889 61.8235 9.85609C61.9332 9.62329 61.9863 9.36973 61.9786 9.11451V8.19151ZM123.066 8.19151H123.043C122.977 8.28111 122.88 8.34522 122.769 8.3722C122.653 8.40677 122.535 8.43323 122.415 8.45136L121.117 8.63764C120.734 8.68487 120.365 8.80253 120.03 8.98412C119.886 9.06786 119.767 9.18697 119.687 9.32911C119.607 9.47126 119.568 9.63126 119.575 9.79256C119.573 9.95434 119.61 10.1144 119.683 10.2605C119.755 10.4067 119.862 10.5352 119.994 10.6364C120.261 10.8396 120.593 10.9491 120.935 10.9465C121.478 10.9556 122.007 10.783 122.432 10.4585C122.637 10.2951 122.801 10.0892 122.911 9.85639C123.021 9.62354 123.074 9.36985 123.066 9.11451V8.19151ZM113.443 8.19151H113.42C113.354 8.28129 113.257 8.34548 113.147 8.3722C113.031 8.40667 112.913 8.43313 112.793 8.45136L111.494 8.63764C111.111 8.68501 110.742 8.80266 110.407 8.98412C110.262 9.0679 110.144 9.18705 110.064 9.3292C109.985 9.47136 109.946 9.63134 109.953 9.79256C109.951 9.95434 109.988 10.1144 110.061 10.2605C110.133 10.4067 110.24 10.5352 110.372 10.6364C110.639 10.84 110.972 10.9495 111.314 10.9465C111.857 10.9552 112.386 10.7826 112.809 10.4585C113.015 10.295 113.178 10.0891 113.288 9.85626C113.398 9.62342 113.451 9.36977 113.443 9.11451V8.19151ZM149.562 8.19151H149.538C149.473 8.28135 149.375 8.34553 149.264 8.3722C149.149 8.40676 149.031 8.43322 148.911 8.45136L147.612 8.63764C147.23 8.68487 146.861 8.80253 146.525 8.98412C146.381 9.06775 146.263 9.18687 146.183 9.32906C146.103 9.47125 146.064 9.6313 146.071 9.79256C146.069 9.95428 146.106 10.1143 146.179 10.2604C146.251 10.4066 146.357 10.5352 146.489 10.6364C146.757 10.8398 147.09 10.9493 147.432 10.9465C147.975 10.9555 148.503 10.7829 148.927 10.4585C149.133 10.2951 149.296 10.0892 149.406 9.85639C149.516 9.62354 149.569 9.36985 149.562 9.11451V8.19151ZM20.2233 1.06456C20.2614 1.28538 20.2443 1.51168 20.1735 1.72501C20.1027 1.93833 19.9802 2.13265 19.8159 2.29213C19.9209 2.56299 20.0731 2.81492 20.2662 3.03723C20.0446 3.13364 19.8358 3.25495 19.6443 3.39861C19.9905 3.82323 20.1919 4.33918 20.2213 4.87672L20.1716 8.28278C19.8496 7.23417 19.388 6.22938 18.7983 5.29304C18.654 5.09 18.6082 5.01363 18.538 4.90931L18.5 4.85343C18.2558 4.52445 18.1296 4.12874 18.1403 3.72553C17.8996 3.70565 17.6572 3.71536 17.4191 3.7544C17.4708 3.51319 17.4708 3.26447 17.4191 3.02326C16.3878 2.98787 16.1909 2.3834 15.0798 1.83482C14.6291 1.60218 14.1602 1.4035 13.6772 1.2406C15.764 1.24805 16.6851 0.922063 17.8499 1.66996C17.9714 1.47698 18.0695 1.27137 18.1423 1.05711C18.3781 1.23699 18.6445 1.37687 18.9298 1.47065C19.1008 1.3161 19.3054 1.19955 19.529 1.12935C19.7526 1.05915 19.9897 1.03703 20.2233 1.06456ZM2.70201 1.03849C2.77492 1.25238 2.87302 1.45767 2.99442 1.6504C4.16114 0.903436 5.08223 1.23035 7.16907 1.22476C6.68815 1.38701 6.22116 1.58475 5.77232 1.81619C4.66214 2.36571 4.46427 2.96738 3.43304 3.00557C3.38122 3.24614 3.38122 3.49427 3.43304 3.73484C3.19489 3.69568 2.95243 3.68629 2.71175 3.7069C2.72199 4.11048 2.5955 4.50643 2.35111 4.83574C2.25364 4.97544 2.22343 5.03598 2.0587 5.27442C1.46499 6.21008 1.00074 7.21535 0.677548 8.26509L0.625889 4.85716C0.655019 4.31972 0.856092 3.80378 1.20194 3.37905C1.01106 3.23452 0.802184 3.11314 0.580078 3.01768C0.773865 2.79587 0.926198 2.54381 1.03039 2.27257C0.866499 2.11306 0.744349 1.91882 0.673888 1.70566C0.603427 1.49251 0.586647 1.26646 0.624914 1.04594C0.858156 1.0194 1.09465 1.042 1.31777 1.11216C1.54089 1.18231 1.74522 1.29832 1.9164 1.45202C2.20105 1.35805 2.46677 1.21818 2.70201 1.03849ZM94.2179 5.97482C93.846 5.96991 93.4818 6.07677 93.1769 6.28031C92.8904 6.47866 92.6597 6.74167 92.5053 7.04591C92.342 7.3631 92.2393 7.70566 92.2022 8.05739H96.1556C96.1459 7.70596 96.0609 7.36015 95.9061 7.04125C95.7596 6.73658 95.5325 6.47367 95.2472 6.27845C94.9456 6.07712 94.5857 5.97095 94.2179 5.97482ZM50.6584 5.97482C50.288 5.97002 49.9253 6.0762 49.6213 6.27845C49.3344 6.47668 49.1034 6.73971 48.9488 7.04404C48.7854 7.36122 48.6827 7.70378 48.6456 8.05553H52.5981C52.588 7.70402 52.5028 7.35821 52.3476 7.03939C52.2013 6.73453 51.9742 6.47155 51.6887 6.27659C51.3866 6.07567 51.0264 5.97015 50.6584 5.97482ZM38.1734 5.97482C37.803 5.9702 37.4404 6.07637 37.1363 6.27845C36.8498 6.4768 36.6191 6.73981 36.4648 7.04404C36.2994 7.36148 36.1951 7.70471 36.1568 8.05739H40.1141C40.1041 7.70557 40.0178 7.35956 39.8606 7.04125C39.7148 6.73644 39.488 6.47344 39.2027 6.27845C38.9011 6.07723 38.5412 5.97108 38.1734 5.97482ZM18.7768 3.12199C18.7123 3.14161 18.6447 3.15074 18.577 3.149C18.5011 3.24169 18.4511 3.35131 18.4318 3.46753C18.1394 4.39892 19.0624 4.98848 19.4952 6.05771C19.71 6.53849 19.8774 7.03739 19.9952 7.54792L20.0342 7.7342C20.0527 7.81989 20.0732 7.91209 20.1044 8.02479C19.9199 6.33756 19.4742 4.68588 18.7817 3.12385L18.7768 3.12199ZM2.06455 3.10616C1.37033 4.66851 0.923248 6.32087 0.73798 8.00896C0.863844 7.33346 1.06783 6.67341 1.3462 6.04095C1.77896 4.97265 2.71078 4.37843 2.41057 3.45263C2.39121 3.33595 2.34087 3.22596 2.26437 3.13317C2.19663 3.13516 2.12905 3.12603 2.06455 3.10616ZM67.1523 3.31013V4.45014H66.4086V3.31013H67.1523ZM13.3487 2.48027V2.92733C13.9771 3.19233 14.5669 3.53422 15.1032 3.9444V3.43028C14.5605 3.04724 13.9714 2.72825 13.3487 2.48027ZM7.50047 2.48027C6.87782 2.72647 6.2887 3.04391 5.74601 3.42562V3.94068C6.28224 3.53119 6.87203 3.19023 7.50047 2.9264V2.48027ZM17.6247 3.0391C17.6737 3.20671 17.6758 3.3837 17.6306 3.55229L18.2631 3.04934C17.8265 3.0363 17.6247 3.03444 17.6247 3.03444V3.0391ZM3.2225 3.01581C3.2225 3.01581 3.02171 3.01581 2.58309 3.02606L3.21763 3.529C3.17117 3.3606 3.17286 3.18338 3.2225 3.01581ZM19.1472 2.6861L19.0994 2.84723C19.2605 2.92852 19.392 3.05451 19.4767 3.20861C19.6438 3.11414 19.8189 3.03314 20.0001 2.96645C19.8597 2.91336 19.1472 2.6861 19.1472 2.6861ZM1.69904 2.66841C1.69904 2.66841 0.987504 2.89566 0.851046 2.94782C1.03138 3.01501 1.20604 3.09535 1.37349 3.18812C1.4598 3.03598 1.59051 2.91108 1.74972 2.8286L1.69904 2.66841ZM18.3752 2.41693C18.3312 2.45918 18.3012 2.51295 18.2891 2.57146C18.277 2.62997 18.2833 2.69059 18.3073 2.74567C18.3312 2.80075 18.3717 2.84782 18.4236 2.88093C18.4755 2.91404 18.5365 2.93171 18.5989 2.93171C18.6613 2.93171 18.7224 2.91404 18.7743 2.88093C18.8262 2.84782 18.8667 2.80075 18.8906 2.74567C18.9145 2.69059 18.9208 2.62997 18.9087 2.57146C18.8967 2.51295 18.8667 2.45918 18.8226 2.41693C18.7933 2.3888 18.7584 2.36648 18.72 2.35125C18.6817 2.33602 18.6405 2.32818 18.5989 2.32818C18.5574 2.32818 18.5162 2.33602 18.4778 2.35125C18.4394 2.36648 18.4046 2.3888 18.3752 2.41693ZM2.471 2.39737C2.42685 2.35514 2.37058 2.32638 2.30931 2.31471C2.24804 2.30305 2.18453 2.30901 2.12681 2.33184C2.06909 2.35467 2.01975 2.39335 1.98503 2.44298C1.95032 2.49261 1.93179 2.55097 1.93179 2.61066C1.93179 2.67036 1.95032 2.72871 1.98503 2.77834C2.01975 2.82797 2.06909 2.86665 2.12681 2.88948C2.18453 2.91232 2.24804 2.91828 2.30931 2.90661C2.37058 2.89495 2.42685 2.86618 2.471 2.82395C2.50041 2.79599 2.52375 2.76276 2.53968 2.72615C2.55561 2.68955 2.5638 2.6503 2.5638 2.61066C2.5638 2.57102 2.55561 2.53177 2.53968 2.49517C2.52375 2.45856 2.50041 2.42533 2.471 2.39737ZM13.9861 1.27133L14.7952 1.51163C16.0779 1.95031 16.536 2.86307 17.499 2.80811C17.6906 2.79536 17.8772 2.74427 18.0468 2.65816C18.0453 2.59478 18.0559 2.53167 18.078 2.47188C16.792 1.86026 15.4097 1.45468 13.9861 1.27133ZM6.86107 1.25177C5.4369 1.43562 4.05394 1.84151 2.76731 2.45326C2.7896 2.51299 2.80017 2.57614 2.7985 2.63953C2.96761 2.72689 3.15446 2.77836 3.34629 2.79042C4.31124 2.84537 4.7713 1.93168 6.05206 1.49393L6.86107 1.25177ZM10.4226 1.91957C10.1295 1.91969 9.83656 1.93617 9.5454 1.96894V2.3834C9.83649 2.34984 10.1294 2.33305 10.4226 2.33311C10.7158 2.33324 11.0088 2.35004 11.2999 2.3834V1.96987C11.0093 1.93735 10.7171 1.92087 10.4246 1.92051L10.4226 1.91957ZM18.9864 1.7333C18.8776 1.85199 18.8125 2.00152 18.8012 2.15894C18.8903 2.18949 18.9687 2.24339 19.0273 2.31448L20.0147 1.29648C19.8202 1.2907 19.6269 1.3267 19.4489 1.40181C19.2709 1.47693 19.1129 1.58925 18.9864 1.7305V1.7333ZM0.832526 1.27878L1.8199 2.29399C1.87835 2.22212 1.95718 2.16781 2.04701 2.13752C2.03417 1.98037 1.96852 1.8314 1.85986 1.71281C1.73374 1.57137 1.57589 1.4589 1.39803 1.38376C1.22018 1.30862 1.02689 1.27274 0.832526 1.27878ZM18.2281 1.31138C18.1975 1.48076 18.129 1.64183 18.0273 1.78359C18.1665 1.88389 18.2705 2.02226 18.3255 2.18036C18.3875 2.14548 18.4567 2.12387 18.5283 2.11703L18.2281 1.31138ZM2.61916 1.29369L2.32187 2.10026C2.39284 2.10582 2.46153 2.12685 2.52266 2.16173C2.57827 2.00368 2.68257 1.86537 2.8219 1.76497C2.71974 1.62367 2.64993 1.46288 2.61916 1.29369Z" fill="white"/>
</g>
<defs>
<clipPath id="clip0_659_13148">
<rect width="200" height="23.7037" fill="white" transform="translate(0 0.945312)"/>
</clipPath>
</defs>
</svg>
