<svg width="83" height="15" viewBox="0 0 83 15" fill="none" xmlns="http://www.w3.org/2000/svg">
<path d="M7.14473 5.22822C6.93133 5.1393 6.70312 5.05335 6.46008 4.97036C6.21705 4.88737 5.97105 4.81624 5.72208 4.75697C5.47312 4.69769 5.22416 4.65027 4.9752 4.6147C4.72623 4.57321 4.49209 4.55246 4.27277 4.55246C3.90525 4.55246 3.64443 4.60285 3.49031 4.70362C3.33619 4.79846 3.25913 4.9259 3.25913 5.08595C3.25913 5.18079 3.29173 5.25785 3.35694 5.31713C3.42214 5.37641 3.51699 5.42976 3.64147 5.47718C3.76595 5.51867 3.91414 5.55424 4.08604 5.58388C4.25795 5.61352 4.4506 5.64612 4.66399 5.68168L5.30418 5.77949C6.24076 5.92175 6.94911 6.21517 7.42926 6.65975C7.91533 7.0984 8.15836 7.6882 8.15836 8.42916C8.15836 8.90931 8.06648 9.33906 7.88272 9.71843C7.70489 10.0919 7.44111 10.412 7.09138 10.6787C6.74757 10.9395 6.32374 11.1381 5.81989 11.2745C5.32197 11.4167 4.75587 11.4878 4.12161 11.4878C3.74817 11.4878 3.37472 11.4701 3.00128 11.4345C2.62783 11.3989 2.26625 11.3426 1.91651 11.2656C1.57271 11.1944 1.24372 11.1025 0.929553 10.9899C0.621314 10.8714 0.342713 10.7321 0.09375 10.572L1.06293 8.42027C1.50157 8.68109 1.96986 8.88263 2.46779 9.0249C2.97164 9.16716 3.52884 9.23829 4.13939 9.23829C4.57211 9.23829 4.88332 9.19087 5.073 9.09603C5.26269 9.00119 5.35753 8.85892 5.35753 8.66924C5.35753 8.50326 5.25083 8.37878 5.03744 8.29579C4.82404 8.20688 4.47134 8.12389 3.97935 8.04683L3.47253 7.9757C2.4174 7.82158 1.64087 7.52223 1.14295 7.07765C0.645024 6.63308 0.396062 6.0166 0.396062 5.22822C0.396062 4.76586 0.479049 4.35388 0.645024 3.99229C0.816927 3.63071 1.06293 3.32543 1.38302 3.07647C1.70904 2.8275 2.1062 2.63782 2.57449 2.50741C3.04277 2.377 3.5733 2.3118 4.16607 2.3118C4.52173 2.3118 4.84775 2.32662 5.14414 2.35625C5.44645 2.37996 5.74283 2.42146 6.03329 2.48074C6.32374 2.54001 6.62013 2.61707 6.92244 2.71191C7.23068 2.80676 7.56263 2.92235 7.91829 3.05868L7.14473 5.22822Z" fill="white"/>
<path d="M17.9992 11.2656H15.3051V10.3231C15.0383 10.6669 14.7004 10.9484 14.2914 11.1678C13.8883 11.3871 13.3904 11.4967 12.7977 11.4967C12.2167 11.4967 11.6773 11.3782 11.1794 11.1411C10.6874 10.904 10.2606 10.5779 9.89902 10.163C9.53743 9.74807 9.2529 9.262 9.04543 8.7048C8.84389 8.14167 8.74312 7.53705 8.74312 6.89093C8.74312 6.25074 8.84389 5.65205 9.04543 5.09484C9.2529 4.53764 9.53743 4.05157 9.89902 3.63663C10.2606 3.2217 10.6874 2.89567 11.1794 2.65857C11.6773 2.42146 12.2197 2.3029 12.8065 2.3029C13.3934 2.3029 13.8913 2.41553 14.3003 2.64078C14.7093 2.86011 15.0442 3.14167 15.3051 3.48548V2.54298H17.9992V11.2656ZM13.4645 4.89923C13.1859 4.89923 12.931 4.94961 12.6998 5.05039C12.4746 5.15116 12.279 5.29342 12.113 5.47718C11.953 5.65501 11.8285 5.86544 11.7396 6.10848C11.6506 6.35151 11.6062 6.61529 11.6062 6.89982C11.6062 7.18435 11.6506 7.44813 11.7396 7.69117C11.8285 7.9342 11.953 8.1476 12.113 8.33136C12.279 8.50919 12.4746 8.64849 12.6998 8.74926C12.931 8.85003 13.1859 8.90042 13.4645 8.90042C13.7372 8.90042 13.9862 8.85003 14.2114 8.74926C14.4426 8.64849 14.6412 8.50919 14.8071 8.33136C14.9731 8.15353 15.1006 7.94309 15.1895 7.70006C15.2843 7.45702 15.3317 7.19028 15.3317 6.89982C15.3317 6.60937 15.2843 6.34262 15.1895 6.09959C15.1006 5.85655 14.9731 5.64612 14.8071 5.46829C14.6412 5.29046 14.4426 5.15116 14.2114 5.05039C13.9862 4.94961 13.7372 4.89923 13.4645 4.89923Z" fill="white"/>
<path d="M24.8459 2.3029C25.2787 2.3029 25.6847 2.377 26.0641 2.52519C26.4435 2.67338 26.7695 2.88678 27.0422 3.16538C27.3208 3.44398 27.5401 3.78483 27.7001 4.18791C27.8602 4.58506 27.9402 5.03557 27.9402 5.53942V11.2656H25.1571V6.52638C25.1571 6.00474 25.0356 5.60759 24.7926 5.33491C24.5496 5.05631 24.2117 4.91701 23.779 4.91701C23.5833 4.91701 23.3996 4.94961 23.2277 5.01482C23.0617 5.08002 22.9135 5.18079 22.7831 5.31713C22.6527 5.45347 22.549 5.62537 22.4719 5.83284C22.4008 6.04031 22.3652 6.28631 22.3652 6.57084V11.2656H19.5822V2.54298H22.2496V3.63663C22.5282 3.17427 22.8839 2.8364 23.3166 2.623C23.7493 2.4096 24.2591 2.3029 24.8459 2.3029Z" fill="white"/>
<path d="M35.4453 5.00593H32.4666V7.5578C32.4666 7.80676 32.4963 8.01719 32.5555 8.18909C32.6208 8.361 32.7097 8.5003 32.8223 8.60699C32.9349 8.71369 33.0653 8.79075 33.2135 8.83817C33.3617 8.87967 33.5247 8.90042 33.7026 8.90042C33.9634 8.90042 34.2242 8.8441 34.485 8.73148C34.7518 8.61292 34.9948 8.48844 35.2141 8.35803L36.1744 10.5276C35.9669 10.6698 35.7565 10.8002 35.5431 10.9188C35.3297 11.0373 35.0985 11.1411 34.8496 11.23C34.6006 11.313 34.3309 11.3782 34.0404 11.4256C33.75 11.473 33.4299 11.4967 33.0801 11.4967C32.4933 11.4967 31.9865 11.4138 31.5597 11.2478C31.1329 11.0759 30.7802 10.8358 30.5016 10.5276C30.223 10.2134 30.0155 9.83699 29.8792 9.39834C29.7488 8.95376 29.6836 8.4588 29.6836 7.91346V5.00593V2.54298V0H32.4666V2.54298H35.4453V5.00593Z" fill="white"/>
<path d="M40.9278 2.3029C41.7398 2.3029 42.4571 2.47184 43.0795 2.80972C43.7078 3.1476 44.2324 3.61589 44.6533 4.21458L42.4749 5.73503C42.2556 5.4505 42.0155 5.24007 41.7547 5.10373C41.4998 4.9674 41.2034 4.89923 40.8655 4.89923C40.6225 4.89923 40.3913 4.94665 40.172 5.04149C39.9586 5.13041 39.7689 5.26082 39.6029 5.43272C39.4369 5.60462 39.3065 5.81506 39.2117 6.06402C39.1168 6.30705 39.0694 6.58566 39.0694 6.89982C39.0694 7.21399 39.1168 7.49555 39.2117 7.74452C39.3065 7.99348 39.434 8.20391 39.594 8.37582C39.7541 8.54772 39.9408 8.67813 40.1542 8.76704C40.3735 8.85596 40.6047 8.90042 40.8477 8.90042C41.4998 8.90042 42.0481 8.61885 42.4927 8.05572L44.6622 9.60285C44.2413 10.1956 43.7167 10.6609 43.0884 10.9988C42.4601 11.3308 41.7398 11.4967 40.9278 11.4967C40.2342 11.4967 39.597 11.3841 39.0161 11.1589C38.4411 10.9277 37.9461 10.6076 37.5312 10.1986C37.1163 9.78957 36.7932 9.30646 36.562 8.74926C36.3368 8.18613 36.2241 7.56965 36.2241 6.89982C36.2241 6.23592 36.3368 5.62241 36.562 5.05928C36.7932 4.49615 37.1163 4.01008 37.5312 3.60107C37.9461 3.19206 38.4411 2.87493 39.0161 2.64967C39.597 2.41849 40.2342 2.3029 40.9278 2.3029Z" fill="white"/>
<path d="M53.9103 7.53112C53.9103 8.2128 53.8007 8.80261 53.5814 9.30053C53.362 9.79846 53.0597 10.2104 52.6744 10.5365C52.2951 10.8625 51.8505 11.1055 51.3407 11.2656C50.8309 11.4197 50.2856 11.4967 49.7047 11.4967C49.1237 11.4967 48.5754 11.4197 48.0597 11.2656C47.5499 11.1055 47.1024 10.8625 46.7171 10.5365C46.3377 10.2104 46.0384 9.79846 45.8191 9.30053C45.5997 8.80261 45.4901 8.20984 45.4901 7.52223V2.54298H48.2731V7.28216C48.2731 7.56076 48.3087 7.80083 48.3798 8.00237C48.451 8.20391 48.5488 8.37285 48.6732 8.50919C48.8037 8.6396 48.9548 8.7374 49.1267 8.80261C49.3045 8.86781 49.4972 8.90042 49.7047 8.90042C49.9121 8.90042 50.1018 8.86781 50.2737 8.80261C50.4515 8.7374 50.6027 8.6396 50.7272 8.50919C50.8576 8.37285 50.9584 8.20391 51.0295 8.00237C51.1006 7.80083 51.1362 7.56076 51.1362 7.28216V2.54298H53.9103V7.53112Z" fill="white"/>
<path d="M59.026 2.3029C59.601 2.3029 60.0841 2.4096 60.4753 2.623C60.8725 2.8364 61.2015 3.11203 61.4623 3.44991V2.54298H64.1564V10.4298C64.1564 11.147 64.0438 11.7872 63.8186 12.3503C63.5933 12.9194 63.2732 13.3995 62.8583 13.7908C62.4493 14.182 61.9513 14.4813 61.3645 14.6888C60.7836 14.8963 60.1375 15 59.4261 15C59.0586 15 58.6941 14.9763 58.3325 14.9289C57.9709 14.8814 57.6182 14.8103 57.2744 14.7155C56.9365 14.6266 56.6105 14.511 56.2963 14.3687C55.9881 14.2324 55.7036 14.0723 55.4427 13.8886L56.4297 11.6746C56.8565 11.9769 57.2981 12.1992 57.7545 12.3414C58.2169 12.4896 58.7089 12.5637 59.2305 12.5637C59.5151 12.5637 59.7877 12.5222 60.0486 12.4392C60.3153 12.3622 60.5494 12.2407 60.751 12.0747C60.9584 11.9146 61.1215 11.7072 61.24 11.4523C61.3645 11.2033 61.4267 10.904 61.4267 10.5542V10.0119C61.1659 10.3438 60.8399 10.6106 60.4487 10.8121C60.0634 11.0136 59.5892 11.1144 59.026 11.1144C58.4392 11.1144 57.8998 11.0018 57.4078 10.7765C56.9158 10.5513 56.489 10.2401 56.1274 9.84292C55.7658 9.44576 55.4842 8.98044 55.2827 8.44695C55.0812 7.90753 54.9804 7.32958 54.9804 6.7131C54.9804 6.09662 55.0812 5.52164 55.2827 4.98814C55.4842 4.44873 55.7658 3.98044 56.1274 3.58328C56.489 3.18613 56.9158 2.87493 57.4078 2.64967C57.8998 2.41849 58.4392 2.3029 59.026 2.3029ZM59.684 4.84588C59.4113 4.84588 59.1624 4.8933 58.9371 4.98814C58.7119 5.08299 58.5192 5.2134 58.3592 5.37937C58.1991 5.54535 58.0746 5.74392 57.9857 5.9751C57.8968 6.20036 57.8523 6.44635 57.8523 6.7131C57.8523 6.97985 57.8968 7.22585 57.9857 7.4511C58.0746 7.67635 58.1991 7.87493 58.3592 8.04683C58.5192 8.2128 58.7119 8.34321 58.9371 8.43806C59.1624 8.5329 59.4113 8.58032 59.684 8.58032C59.9448 8.58032 60.1849 8.5329 60.4042 8.43806C60.6235 8.34321 60.8103 8.2128 60.9644 8.04683C61.1244 7.88085 61.2459 7.68524 61.3289 7.45999C61.4178 7.22881 61.4623 6.97985 61.4623 6.7131C61.4623 6.44635 61.4178 6.20036 61.3289 5.9751C61.2459 5.74392 61.1244 5.54535 60.9644 5.37937C60.8103 5.2134 60.6235 5.08299 60.4042 4.98814C60.1849 4.8933 59.9448 4.84588 59.684 4.84588Z" fill="white"/>
<path d="M74.5437 11.2656H71.8496V10.3231C71.5828 10.6669 71.2449 10.9484 70.8359 11.1678C70.4328 11.3871 69.9349 11.4967 69.3421 11.4967C68.7612 11.4967 68.2218 11.3782 67.7239 11.1411C67.2319 10.904 66.8051 10.5779 66.4435 10.163C66.0819 9.74807 65.7974 9.262 65.5899 8.7048C65.3884 8.14167 65.2876 7.53705 65.2876 6.89093C65.2876 6.25074 65.3884 5.65205 65.5899 5.09484C65.7974 4.53764 66.0819 4.05157 66.4435 3.63663C66.8051 3.2217 67.2319 2.89567 67.7239 2.65857C68.2218 2.42146 68.7642 2.3029 69.351 2.3029C69.9379 2.3029 70.4358 2.41553 70.8448 2.64078C71.2538 2.86011 71.5887 3.14167 71.8496 3.48548V2.54298H74.5437V11.2656ZM70.009 4.89923C69.7304 4.89923 69.4755 4.94961 69.2443 5.05039C69.0191 5.15116 68.8235 5.29342 68.6575 5.47718C68.4974 5.65501 68.373 5.86544 68.284 6.10848C68.1951 6.35151 68.1507 6.61529 68.1507 6.89982C68.1507 7.18435 68.1951 7.44813 68.284 7.69117C68.373 7.9342 68.4974 8.1476 68.6575 8.33136C68.8235 8.50919 69.0191 8.64849 69.2443 8.74926C69.4755 8.85003 69.7304 8.90042 70.009 8.90042C70.2817 8.90042 70.5306 8.85003 70.7559 8.74926C70.9871 8.64849 71.1856 8.50919 71.3516 8.33136C71.5176 8.15353 71.645 7.94309 71.734 7.70006C71.8288 7.45702 71.8762 7.19028 71.8762 6.89982C71.8762 6.60937 71.8288 6.34262 71.734 6.09959C71.645 5.85655 71.5176 5.64612 71.3516 5.46829C71.1856 5.29046 70.9871 5.15116 70.7559 5.05039C70.5306 4.94961 70.2817 4.89923 70.009 4.89923Z" fill="white"/>
<path d="M82.1417 5.00593H79.1631V7.5578C79.1631 7.80676 79.1927 8.01719 79.252 8.18909C79.3172 8.361 79.4061 8.5003 79.5187 8.60699C79.6314 8.71369 79.7618 8.79075 79.91 8.83817C80.0581 8.87967 80.2212 8.90042 80.399 8.90042C80.6598 8.90042 80.9206 8.8441 81.1814 8.73148C81.4482 8.61292 81.6912 8.48844 81.9105 8.35803L82.8708 10.5276C82.6634 10.6698 82.4529 10.8002 82.2395 10.9188C82.0261 11.0373 81.795 11.1411 81.546 11.23C81.297 11.313 81.0273 11.3782 80.7369 11.4256C80.4464 11.473 80.1263 11.4967 79.7766 11.4967C79.1897 11.4967 78.6829 11.4138 78.2561 11.2478C77.8293 11.0759 77.4766 10.8358 77.198 10.5276C76.9194 10.2134 76.712 9.83699 76.5756 9.39834C76.4452 8.95376 76.38 8.4588 76.38 7.91346V5.00593V2.54298V0H79.1631V2.54298H82.1417V5.00593Z" fill="white"/>
</svg>
