<svg style="padding-top:2px" width="53"  height="15" viewBox="0 0 53 15" fill="none" xmlns="http://www.w3.org/2000/svg">
<path d="M4.89997 0C5.48867 0 5.9833 0.109244 6.38386 0.327731C6.79049 0.546218 7.12733 0.828431 7.39437 1.17437V0.245798H10.1528V8.32073C10.1528 9.05509 10.0375 9.71055 9.80683 10.2871C9.57621 10.8697 9.24847 11.3613 8.82364 11.7619C8.40487 12.1625 7.89507 12.469 7.29423 12.6814C6.69946 12.8938 6.03792 13 5.30963 13C4.93335 13 4.5601 12.9757 4.18989 12.9272C3.81967 12.8786 3.45856 12.8058 3.10655 12.7087C2.76061 12.6176 2.42681 12.4993 2.10515 12.3536C1.78956 12.2141 1.49824 12.0502 1.2312 11.862L2.24171 9.59524C2.67868 9.90476 3.13083 10.1324 3.59815 10.278C4.07154 10.4297 4.57527 10.5056 5.10935 10.5056C5.40067 10.5056 5.67985 10.4631 5.94689 10.3782C6.22 10.2993 6.45973 10.1748 6.66608 10.0049C6.87849 9.84104 7.04539 9.62862 7.16678 9.36765C7.29423 9.11275 7.35795 8.80626 7.35795 8.44818V7.89286C7.09091 8.23273 6.75711 8.50583 6.35655 8.71218C5.96206 8.91853 5.47653 9.02171 4.89997 9.02171C4.29913 9.02171 3.74684 8.9064 3.24311 8.67577C2.73937 8.44514 2.3024 8.12652 1.93218 7.71989C1.56197 7.31326 1.27369 6.83683 1.06734 6.29062C0.860987 5.73833 0.757812 5.14659 0.757812 4.51541C0.757812 3.88422 0.860987 3.29552 1.06734 2.7493C1.27369 2.19701 1.56197 1.71755 1.93218 1.31092C2.3024 0.904295 2.73937 0.585667 3.24311 0.355042C3.74684 0.118347 4.29913 0 4.89997 0ZM5.57364 2.60364C5.29446 2.60364 5.03956 2.65219 4.80893 2.7493C4.57831 2.8464 4.38106 2.97992 4.2172 3.14986C4.05333 3.31979 3.92588 3.52311 3.83484 3.7598C3.74381 3.99043 3.69829 4.2423 3.69829 4.51541C3.69829 4.78851 3.74381 5.04038 3.83484 5.27101C3.92588 5.50163 4.05333 5.70495 4.2172 5.88095C4.38106 6.05089 4.57831 6.18441 4.80893 6.28151C5.03956 6.37862 5.29446 6.42717 5.57364 6.42717C5.84068 6.42717 6.08648 6.37862 6.31103 6.28151C6.53559 6.18441 6.72677 6.05089 6.88456 5.88095C7.04843 5.71102 7.17284 5.51074 7.25781 5.28011C7.34885 5.04342 7.39437 4.78851 7.39437 4.51541C7.39437 4.2423 7.34885 3.99043 7.25781 3.7598C7.17284 3.52311 7.04843 3.31979 6.88456 3.14986C6.72677 2.97992 6.53559 2.8464 6.31103 2.7493C6.08648 2.65219 5.84068 2.60364 5.57364 2.60364Z" fill="white"/>
<path d="M14.6338 9.17647H11.7843V0.245798H14.6338V9.17647Z" fill="white"/>
<path d="M21.4273 0C21.6398 0 21.8309 0.0151725 22.0009 0.0455179C22.1769 0.0758634 22.3195 0.106209 22.4287 0.136555L22.1647 2.97689C21.9705 2.91013 21.746 2.85551 21.4911 2.81302C21.2422 2.76447 20.9904 2.7402 20.7355 2.7402C20.2257 2.7402 19.8251 2.87068 19.5338 3.13165C19.2485 3.38655 19.1059 3.79318 19.1059 4.35154V9.17647H16.2565V0.245798H18.9876V1.27451C19.2485 0.837535 19.5823 0.515873 19.989 0.309523C20.3956 0.103174 20.8751 0 21.4273 0Z" fill="white"/>
<path d="M27.4988 0C28.1967 0 28.84 0.118347 29.4287 0.355042C30.0235 0.591736 30.5363 0.919468 30.9672 1.33824C31.4042 1.757 31.7441 2.25467 31.9869 2.83123C32.2296 3.4078 32.351 4.03291 32.351 4.70658C32.351 5.38025 32.2296 6.00537 31.9869 6.58193C31.7441 7.1585 31.4042 7.65616 30.9672 8.07493C30.5363 8.4937 30.0235 8.82143 29.4287 9.05812C28.84 9.29482 28.1967 9.41316 27.4988 9.41316C26.8008 9.41316 26.1545 9.29482 25.5597 9.05812C24.971 8.82143 24.4612 8.4937 24.0303 8.07493C23.5994 7.65616 23.2625 7.1585 23.0198 6.58193C22.777 6.00537 22.6556 5.38025 22.6556 4.70658C22.6556 4.03291 22.777 3.4078 23.0198 2.83123C23.2625 2.25467 23.5994 1.757 24.0303 1.33824C24.4612 0.919468 24.971 0.591736 25.5597 0.355042C26.1545 0.118347 26.8008 0 27.4988 0ZM27.4988 2.65826C27.2196 2.65826 26.9616 2.70985 26.7249 2.81302C26.4943 2.91013 26.291 3.04972 26.115 3.23179C25.9451 3.41387 25.8116 3.63235 25.7144 3.88725C25.6173 4.13609 25.5688 4.4092 25.5688 4.70658C25.5688 5.01004 25.6173 5.28618 25.7144 5.53501C25.8116 5.78385 25.9451 5.9993 26.115 6.18137C26.291 6.36344 26.4943 6.50607 26.7249 6.60924C26.9616 6.70635 27.2196 6.7549 27.4988 6.7549C27.7779 6.7549 28.0359 6.70635 28.2726 6.60924C28.5093 6.50607 28.7126 6.36344 28.8825 6.18137C29.0585 5.9993 29.1951 5.78385 29.2922 5.53501C29.3893 5.28618 29.4378 5.01004 29.4378 4.70658C29.4378 4.4092 29.3893 4.13609 29.2922 3.88725C29.1951 3.63235 29.0585 3.41387 28.8825 3.23179C28.7126 3.04972 28.5093 2.91013 28.2726 2.81302C28.0359 2.70985 27.7779 2.65826 27.4988 2.65826Z" fill="white"/>
<path d="M38.9115 0C39.3545 0 39.7702 0.0758634 40.1587 0.227591C40.5471 0.379318 40.8809 0.597805 41.1601 0.883053C41.4453 1.1683 41.6699 1.51727 41.8337 1.92997C41.9976 2.3366 42.0795 2.79785 42.0795 3.31373V9.17647H39.2301V4.32423C39.2301 3.79015 39.1057 3.38352 38.8568 3.10434C38.608 2.81909 38.2621 2.67647 37.819 2.67647C37.6187 2.67647 37.4306 2.70985 37.2546 2.77661C37.0847 2.84337 36.9329 2.94654 36.7994 3.08613C36.6659 3.22572 36.5597 3.40173 36.4808 3.61415C36.408 3.82656 36.3715 4.07843 36.3715 4.36975V9.17647H33.5221V0.245798H36.2532V1.36555C36.5384 0.892156 36.9026 0.546218 37.3456 0.327731C37.7887 0.109244 38.3106 0 38.9115 0Z" fill="white"/>
<path d="M52.652 9.17647H49.8936V8.21148C49.6205 8.56349 49.2745 8.85177 48.8558 9.07633C48.4431 9.30089 47.9333 9.41316 47.3263 9.41316C46.7316 9.41316 46.1793 9.29178 45.6695 9.04902C45.1658 8.80626 44.7288 8.47246 44.3586 8.04762C43.9883 7.62278 43.697 7.12512 43.4846 6.55462C43.2783 5.97806 43.1751 5.35901 43.1751 4.69748C43.1751 4.04202 43.2783 3.42904 43.4846 2.85854C43.697 2.28805 43.9883 1.79038 44.3586 1.36555C44.7288 0.940709 45.1658 0.606909 45.6695 0.364145C46.1793 0.121382 46.7346 0 47.3354 0C47.9363 0 48.4461 0.115313 48.8649 0.345938C49.2836 0.570495 49.6265 0.858776 49.8936 1.21078V0.245798H52.652V9.17647ZM48.0091 2.65826C47.7239 2.65826 47.4629 2.70985 47.2262 2.81302C46.9956 2.9162 46.7953 3.06186 46.6254 3.25C46.4615 3.43207 46.334 3.64752 46.243 3.89636C46.152 4.14519 46.1065 4.41527 46.1065 4.70658C46.1065 4.9979 46.152 5.26797 46.243 5.51681C46.334 5.76564 46.4615 5.98413 46.6254 6.17227C46.7953 6.35434 46.9956 6.49696 47.2262 6.60014C47.4629 6.70331 47.7239 6.7549 48.0091 6.7549C48.2883 6.7549 48.5432 6.70331 48.7738 6.60014C49.0105 6.49696 49.2138 6.35434 49.3838 6.17227C49.5537 5.9902 49.6842 5.77474 49.7752 5.52591C49.8723 5.27708 49.9209 5.00397 49.9209 4.70658C49.9209 4.4092 49.8723 4.13609 49.7752 3.88725C49.6842 3.63842 49.5537 3.42297 49.3838 3.2409C49.2138 3.05882 49.0105 2.9162 48.7738 2.81302C48.5432 2.70985 48.2883 2.65826 48.0091 2.65826Z" fill="white"/>
</svg>
