<svg width="117" height="15" viewBox="0 0 117 15" fill="none" xmlns="http://www.w3.org/2000/svg">
<path d="M5.33576 2.83542C5.92014 2.83542 6.46277 2.95468 6.96367 3.1932C7.46456 3.43172 7.89688 3.75968 8.26063 4.1771C8.62437 4.59451 8.90762 5.08348 9.11036 5.644C9.31906 6.20453 9.42342 6.80679 9.42342 7.4508C9.42342 8.10077 9.31906 8.709 9.11036 9.27549C8.90762 9.83601 8.62437 10.325 8.26063 10.7424C7.89688 11.1598 7.46456 11.4878 6.96367 11.7263C6.46277 11.9648 5.92014 12.0841 5.33576 12.0841C4.73946 12.0841 4.23856 11.9767 3.83308 11.7621C3.42759 11.5414 3.09068 11.2582 2.82235 10.9123V11.8515H0.121094V0H2.91179V3.91771C3.18013 3.5957 3.50809 3.33631 3.89569 3.13953C4.28925 2.93679 4.76927 2.83542 5.33576 2.83542ZM4.66492 5.44722C4.39062 5.44722 4.13719 5.49791 3.90464 5.59928C3.67804 5.70065 3.48126 5.84078 3.31429 6.01967C3.15329 6.19856 3.02509 6.41025 2.92968 6.65473C2.84023 6.89922 2.79551 7.16755 2.79551 7.45974C2.79551 7.75193 2.84023 8.02027 2.92968 8.26475C3.02509 8.50924 3.15329 8.72092 3.31429 8.89981C3.48126 9.07871 3.67804 9.21884 3.90464 9.32021C4.13719 9.42158 4.39062 9.47227 4.66492 9.47227C4.94518 9.47227 5.20159 9.42158 5.43415 9.32021C5.66671 9.21884 5.86349 9.07871 6.02449 8.89981C6.19146 8.71496 6.31966 8.50029 6.40911 8.25581C6.49855 8.01132 6.54328 7.74597 6.54328 7.45974C6.54328 7.17352 6.49855 6.90816 6.40911 6.66368C6.31966 6.41919 6.19146 6.20751 6.02449 6.02862C5.86349 5.84376 5.66671 5.70065 5.43415 5.59928C5.20159 5.49791 4.94518 5.44722 4.66492 5.44722Z" fill="white"/>
<path d="M19.4058 11.8515H16.6956V10.9034C16.4273 11.2492 16.0874 11.5325 15.6759 11.7531C15.2704 11.9738 14.7696 12.0841 14.1732 12.0841C13.5889 12.0841 13.0462 11.9648 12.5453 11.7263C12.0504 11.4878 11.6211 11.1598 11.2573 10.7424C10.8936 10.325 10.6074 9.83601 10.3987 9.27549C10.1959 8.709 10.0945 8.10077 10.0945 7.4508C10.0945 6.80679 10.1959 6.20453 10.3987 5.644C10.6074 5.08348 10.8936 4.59451 11.2573 4.1771C11.6211 3.75968 12.0504 3.43172 12.5453 3.1932C13.0462 2.95468 13.5919 2.83542 14.1822 2.83542C14.7725 2.83542 15.2734 2.94871 15.6849 3.17531C16.0963 3.39594 16.4332 3.67918 16.6956 4.02504V3.07692H19.4058V11.8515ZM14.8441 5.44722C14.5638 5.44722 14.3074 5.49791 14.0749 5.59928C13.8483 5.70065 13.6515 5.84376 13.4845 6.02862C13.3235 6.20751 13.1983 6.41919 13.1088 6.66368C13.0194 6.90816 12.9747 7.17352 12.9747 7.45974C12.9747 7.74597 13.0194 8.01132 13.1088 8.25581C13.1983 8.50029 13.3235 8.71496 13.4845 8.89981C13.6515 9.07871 13.8483 9.21884 14.0749 9.32021C14.3074 9.42158 14.5638 9.47227 14.8441 9.47227C15.1184 9.47227 15.3688 9.42158 15.5954 9.32021C15.828 9.21884 16.0277 9.07871 16.1947 8.89981C16.3617 8.72092 16.4899 8.50924 16.5793 8.26475C16.6747 8.02027 16.7224 7.75193 16.7224 7.45974C16.7224 7.16755 16.6747 6.89922 16.5793 6.65473C16.4899 6.41025 16.3617 6.19856 16.1947 6.01967C16.0277 5.84078 15.828 5.70065 15.5954 5.59928C15.3688 5.49791 15.1184 5.44722 14.8441 5.44722Z" fill="white"/>
<path d="M23.7979 11.8515H20.9982V3.07692H23.7979V11.8515Z" fill="white"/>
<path d="M31.3851 7.42396L34.4799 11.8515H31.2241L29.4978 9.32915L27.8251 11.8515H24.6051L27.7267 7.42396L24.7035 3.07692H27.9772L29.6051 5.57245L31.2151 3.07692H34.4351L31.3851 7.42396Z" fill="white"/>
<path d="M46.058 2.83542C46.5589 2.83542 47.0091 2.90995 47.4086 3.05903C47.8141 3.2081 48.16 3.42277 48.4462 3.70304C48.7324 3.9833 48.9501 4.32617 49.0992 4.73166C49.2542 5.13118 49.3317 5.58437 49.3317 6.09123V11.8515H46.5321V7.08407C46.5321 6.55933 46.4098 6.1598 46.1654 5.8855C45.9209 5.60524 45.578 5.46511 45.1367 5.46511C44.9459 5.46511 44.764 5.49791 44.5911 5.5635C44.4182 5.62909 44.2661 5.73047 44.1349 5.86762C44.0038 6.00476 43.8994 6.17769 43.8219 6.3864C43.7503 6.5951 43.7146 6.84257 43.7146 7.12879V11.8515H40.9149V7.08407C40.9149 6.55933 40.7927 6.1598 40.5482 5.8855C40.3037 5.60524 39.9638 5.46511 39.5285 5.46511C39.3317 5.46511 39.1469 5.49791 38.9739 5.5635C38.807 5.62909 38.6579 5.73047 38.5267 5.86762C38.3955 6.00476 38.2912 6.17769 38.2137 6.3864C38.1421 6.5951 38.1063 6.84257 38.1063 7.12879V11.8515H35.3067V3.07692H37.99V4.1771C38.2703 3.71198 38.6281 3.37209 39.0634 3.15742C39.4987 2.94275 40.0115 2.83542 40.6019 2.83542C41.1803 2.83542 41.702 2.96362 42.1671 3.22003C42.6382 3.47048 43.0079 3.83124 43.2763 4.30232C43.5744 3.79546 43.959 3.42576 44.4301 3.1932C44.9072 2.95468 45.4498 2.83542 46.058 2.83542Z" fill="white"/>
<path d="M55.1747 2.83542C55.8605 2.83542 56.4926 2.95169 57.071 3.18425C57.6554 3.41681 58.1592 3.73881 58.5826 4.15026C59.012 4.56171 59.3459 5.05068 59.5844 5.61717C59.8229 6.18366 59.9422 6.79785 59.9422 7.45974C59.9422 8.12164 59.8229 8.73583 59.5844 9.30232C59.3459 9.86881 59.012 10.3578 58.5826 10.7692C58.1592 11.1807 57.6554 11.5027 57.071 11.7352C56.4926 11.9678 55.8605 12.0841 55.1747 12.0841C54.489 12.0841 53.8539 11.9678 53.2696 11.7352C52.6911 11.5027 52.1903 11.1807 51.7669 10.7692C51.3435 10.3578 51.0126 9.86881 50.774 9.30232C50.5355 8.73583 50.4162 8.12164 50.4162 7.45974C50.4162 6.79785 50.5355 6.18366 50.774 5.61717C51.0126 5.05068 51.3435 4.56171 51.7669 4.15026C52.1903 3.73881 52.6911 3.41681 53.2696 3.18425C53.8539 2.95169 54.489 2.83542 55.1747 2.83542ZM55.1747 5.44722C54.9004 5.44722 54.647 5.49791 54.4145 5.59928C54.1879 5.69469 53.9881 5.83184 53.8152 6.01073C53.6482 6.18962 53.517 6.40429 53.4216 6.65473C53.3262 6.89922 53.2785 7.16755 53.2785 7.45974C53.2785 7.75789 53.3262 8.02921 53.4216 8.2737C53.517 8.51818 53.6482 8.72987 53.8152 8.90876C53.9881 9.08765 54.1879 9.22778 54.4145 9.32915C54.647 9.42456 54.9004 9.47227 55.1747 9.47227C55.449 9.47227 55.7025 9.42456 55.935 9.32915C56.1676 9.22778 56.3674 9.08765 56.5343 8.90876C56.7072 8.72987 56.8414 8.51818 56.9368 8.2737C57.0322 8.02921 57.0799 7.75789 57.0799 7.45974C57.0799 7.16755 57.0322 6.89922 56.9368 6.65473C56.8414 6.40429 56.7072 6.18962 56.5343 6.01073C56.3674 5.83184 56.1676 5.69469 55.935 5.59928C55.7025 5.49791 55.449 5.44722 55.1747 5.44722Z" fill="white"/>
<path d="M66.388 2.83542C66.8233 2.83542 67.2318 2.90995 67.6134 3.05903C67.995 3.2081 68.323 3.42277 68.5973 3.70304C68.8775 3.9833 69.0982 4.32617 69.2592 4.73166C69.4202 5.13118 69.5007 5.58437 69.5007 6.09123V11.8515H66.701V7.08407C66.701 6.55933 66.5788 6.1598 66.3343 5.8855C66.0898 5.60524 65.7499 5.46511 65.3146 5.46511C65.1179 5.46511 64.933 5.49791 64.7601 5.5635C64.5931 5.62909 64.444 5.73047 64.3128 5.86762C64.1817 6.00476 64.0773 6.17769 63.9998 6.3864C63.9282 6.5951 63.8925 6.84257 63.8925 7.12879V11.8515H61.0928V3.07692H63.7762V4.1771C64.0564 3.71198 64.4142 3.37209 64.8495 3.15742C65.2848 2.94275 65.7976 2.83542 66.388 2.83542Z" fill="white"/>
<path d="M77.6991 5.55456H74.7026V8.12164C74.7026 8.37209 74.7324 8.58377 74.7921 8.7567C74.8577 8.92963 74.9471 9.06976 75.0604 9.17709C75.1737 9.28443 75.3049 9.36195 75.454 9.40965C75.603 9.45139 75.767 9.47227 75.9459 9.47227C76.2083 9.47227 76.4707 9.41562 76.733 9.30232C77.0014 9.18306 77.2459 9.05783 77.4665 8.92665L78.4325 11.1091C78.2238 11.2522 78.0121 11.3834 77.7974 11.5027C77.5828 11.6219 77.3502 11.7263 77.0998 11.8157C76.8493 11.8992 76.578 11.9648 76.2858 12.0125C75.9936 12.0602 75.6716 12.0841 75.3198 12.0841C74.7295 12.0841 74.2196 12.0006 73.7903 11.8336C73.3609 11.6607 73.0062 11.4192 72.7259 11.1091C72.4456 10.7931 72.2369 10.4144 72.0998 9.97316C71.9686 9.52593 71.903 9.02802 71.903 8.47942V5.55456V3.07692V0.518779H74.7026V3.07692H77.6991V5.55456Z" fill="white"/>
<path d="M85.7758 5.77817C85.5612 5.68872 85.3316 5.60226 85.0871 5.51878C84.8426 5.4353 84.5952 5.36374 84.3447 5.30411C84.0943 5.24448 83.8438 5.19677 83.5934 5.161C83.3429 5.11925 83.1074 5.09838 82.8868 5.09838C82.517 5.09838 82.2547 5.14907 82.0996 5.25044C81.9446 5.34585 81.8671 5.47406 81.8671 5.63506C81.8671 5.73047 81.8999 5.80798 81.9655 5.86762C82.0311 5.92725 82.1265 5.98091 82.2517 6.02862C82.3769 6.07036 82.526 6.10614 82.6989 6.13595C82.8718 6.16577 83.0656 6.19856 83.2803 6.23434L83.9243 6.33273C84.8665 6.47584 85.5791 6.77101 86.0621 7.21824C86.551 7.6595 86.7955 8.25283 86.7955 8.9982C86.7955 9.48121 86.7031 9.91353 86.5182 10.2952C86.3393 10.6708 86.074 10.9928 85.7222 11.2612C85.3763 11.5235 84.95 11.7233 84.4431 11.8605C83.9422 12.0036 83.3727 12.0751 82.7347 12.0751C82.359 12.0751 81.9834 12.0572 81.6077 12.0215C81.232 11.9857 80.8683 11.929 80.5164 11.8515C80.1706 11.78 79.8396 11.6875 79.5236 11.5742C79.2135 11.455 78.9333 11.3148 78.6828 11.1538L79.6578 8.98926C80.099 9.25163 80.5701 9.45438 81.071 9.59749C81.5779 9.7406 82.1384 9.81216 82.7526 9.81216C83.1879 9.81216 83.5009 9.76445 83.6918 9.66904C83.8826 9.57364 83.978 9.43052 83.978 9.23971C83.978 9.07274 83.8707 8.94752 83.656 8.86404C83.4413 8.77459 83.0865 8.69111 82.5916 8.61359L82.0817 8.54203C81.0203 8.38699 80.2392 8.08586 79.7383 7.63863C79.2374 7.19141 78.9869 6.57125 78.9869 5.77817C78.9869 5.31305 79.0704 4.89862 79.2374 4.53488C79.4103 4.17113 79.6578 3.86404 79.9798 3.61359C80.3077 3.36314 80.7073 3.17233 81.1783 3.04114C81.6494 2.90995 82.1831 2.84436 82.7794 2.84436C83.1372 2.84436 83.4652 2.85927 83.7633 2.88908C84.0674 2.91293 84.3656 2.95468 84.6578 3.01431C84.95 3.07394 85.2481 3.15146 85.5522 3.24686C85.8623 3.34227 86.1962 3.45855 86.554 3.5957L85.7758 5.77817Z" fill="white"/>
<path d="M91.8829 2.83542C92.5328 2.83542 93.1262 2.94871 93.6628 3.17531C94.2055 3.39594 94.6676 3.71198 95.0492 4.12343C95.4368 4.52892 95.738 5.0149 95.9526 5.58139C96.1673 6.14788 96.2746 6.77399 96.2746 7.45974C96.2746 7.60286 96.2687 7.76088 96.2567 7.9338C96.2508 8.10077 96.2389 8.23196 96.221 8.32736H90.2728C90.3921 8.81037 90.6127 9.16517 90.9347 9.39176C91.2627 9.61836 91.6682 9.73166 92.1512 9.73166C92.4792 9.73166 92.8101 9.66606 93.144 9.53488C93.478 9.40369 93.7851 9.21287 94.0653 8.96243L95.8721 10.644C95.413 11.1032 94.8584 11.458 94.2084 11.7084C93.5585 11.9588 92.825 12.0841 92.0081 12.0841C91.3164 12.0841 90.6873 11.9738 90.1208 11.7531C89.5543 11.5325 89.0683 11.2224 88.6628 10.8229C88.2573 10.4234 87.9413 9.94334 87.7147 9.38282C87.4941 8.8223 87.3838 8.19916 87.3838 7.51341C87.3838 6.8217 87.4911 6.18962 87.7058 5.61717C87.9264 5.04472 88.2335 4.55277 88.6271 4.14132C89.0266 3.72987 89.5006 3.41085 90.0492 3.18425C90.6038 2.95169 91.215 2.83542 91.8829 2.83542ZM91.8918 5.21466C91.4565 5.21466 91.1047 5.33094 90.8364 5.5635C90.574 5.7901 90.3891 6.12104 90.2818 6.55634H93.475C93.3617 6.11508 93.1709 5.78115 92.9025 5.55456C92.6402 5.32796 92.3033 5.21466 91.8918 5.21466Z" fill="white"/>
<path d="M102.709 2.83542C103.144 2.83542 103.553 2.90995 103.935 3.05903C104.316 3.2081 104.644 3.42277 104.918 3.70304C105.199 3.9833 105.419 4.32617 105.58 4.73166C105.741 5.13118 105.822 5.58437 105.822 6.09123V11.8515H103.022V7.08407C103.022 6.55933 102.9 6.1598 102.655 5.8855C102.411 5.60524 102.071 5.46511 101.636 5.46511C101.439 5.46511 101.254 5.49791 101.081 5.5635C100.914 5.62909 100.765 5.73047 100.634 5.86762C100.503 6.00476 100.398 6.17769 100.321 6.3864C100.249 6.5951 100.214 6.84257 100.214 7.12879V11.8515H97.4139V3.07692H100.097V4.1771C100.378 3.71198 100.735 3.37209 101.171 3.15742C101.606 2.94275 102.119 2.83542 102.709 2.83542Z" fill="white"/>
<path d="M110.052 15H106.993L109.752 9.91949L106.058 3.07692H109.269L111.264 7.02146L113.223 3.07692H116.282L110.052 15Z" fill="white"/>
</svg>
