<svg width="32" height="15" viewBox="0 0 32 15" fill="none" xmlns="http://www.w3.org/2000/svg">
<path d="M5.2014 3.52276C5.40865 3.52276 5.59518 3.53756 5.76099 3.56717C5.93271 3.59678 6.07187 3.62638 6.17845 3.65599L5.92087 6.42727C5.73138 6.36213 5.51228 6.30884 5.26358 6.26739C5.02079 6.22002 4.77505 6.19633 4.52634 6.19633C4.02894 6.19633 3.63811 6.32364 3.35388 6.57827C3.07557 6.82697 2.93641 7.22372 2.93641 7.7685V12.4761H0.15625V3.76258H2.82094V4.76628C3.07557 4.33993 3.40125 4.02609 3.798 3.82476C4.19474 3.62342 4.66254 3.52276 5.2014 3.52276Z" fill="white"/>
<path d="M15.4019 8.74555C15.4019 9.42653 15.2923 10.0157 15.0732 10.5131C14.8542 11.0105 14.5522 11.4221 14.1673 11.7478C13.7883 12.0735 13.3442 12.3162 12.8349 12.4761C12.3257 12.6301 11.7809 12.7071 11.2006 12.7071C10.6203 12.7071 10.0725 12.6301 9.55734 12.4761C9.04809 12.3162 8.60101 12.0735 8.21611 11.7478C7.83713 11.4221 7.53809 11.0105 7.319 10.5131C7.0999 10.0157 6.99035 9.42357 6.99035 8.73667V3.76258H9.77051V8.49685C9.77051 8.77516 9.80604 9.01498 9.8771 9.21632C9.94816 9.41765 10.0459 9.58641 10.1702 9.72261C10.3005 9.85288 10.4515 9.95059 10.6232 10.0157C10.8009 10.0809 10.9933 10.1134 11.2006 10.1134C11.4078 10.1134 11.5973 10.0809 11.769 10.0157C11.9467 9.95059 12.0977 9.85288 12.222 9.72261C12.3523 9.58641 12.453 9.41765 12.524 9.21632C12.5951 9.01498 12.6306 8.77516 12.6306 8.49685V3.76258H15.4019V8.74555Z" fill="white"/>
<path d="M22.1111 3.52276C22.6914 3.52276 23.2303 3.64119 23.7277 3.87805C24.2251 4.11491 24.6544 4.4406 25.0156 4.8551C25.3768 5.26961 25.6581 5.75518 25.8594 6.3118C26.0667 6.86843 26.1703 7.4665 26.1703 8.10603C26.1703 8.75148 26.0667 9.35547 25.8594 9.91802C25.6581 10.4746 25.3768 10.9602 25.0156 11.3747C24.6544 11.7892 24.2251 12.1149 23.7277 12.3518C23.2303 12.5886 22.6914 12.7071 22.1111 12.7071C21.5189 12.7071 21.0215 12.6005 20.6189 12.3873C20.2162 12.1682 19.8816 11.8869 19.6152 11.5435V12.4761H16.9327V0.707062H19.704V4.59752C19.9705 4.27775 20.2961 4.02017 20.681 3.82476C21.0719 3.62342 21.5485 3.52276 22.1111 3.52276ZM21.4449 6.11639C21.1725 6.11639 20.9209 6.16672 20.6899 6.26739C20.4649 6.36806 20.2695 6.50721 20.1037 6.68486C19.9438 6.8625 19.8165 7.07272 19.7217 7.3155C19.6329 7.55828 19.5885 7.82475 19.5885 8.11491C19.5885 8.40507 19.6329 8.67153 19.7217 8.91432C19.8165 9.1571 19.9438 9.36731 20.1037 9.54496C20.2695 9.72261 20.4649 9.86176 20.6899 9.96243C20.9209 10.0631 21.1725 10.1134 21.4449 10.1134C21.7232 10.1134 21.9779 10.0631 22.2088 9.96243C22.4397 9.86176 22.6351 9.72261 22.795 9.54496C22.9608 9.36139 23.0881 9.14822 23.177 8.90543C23.2658 8.66265 23.3102 8.39914 23.3102 8.11491C23.3102 7.83068 23.2658 7.56717 23.177 7.32438C23.0881 7.0816 22.9608 6.87139 22.795 6.69374C22.6351 6.51017 22.4397 6.36806 22.2088 6.26739C21.9779 6.16672 21.7232 6.11639 21.4449 6.11639Z" fill="white"/>
<path d="M30.0788 12.4761H27.2986V3.76258H30.0788V12.4761ZM26.9256 2.66117L28.4109 0.707062H31.5996L29.5281 2.66117H26.9256Z" fill="white"/>
</svg>
