<svg width="73" height="15" viewBox="0 0 73 15" fill="none" xmlns="http://www.w3.org/2000/svg">
<path d="M5.22193 2.89831C5.7756 2.89831 6.28972 3.0113 6.7643 3.23729C7.23888 3.46328 7.64848 3.77401 7.99311 4.16949C8.33775 4.56497 8.60611 5.02825 8.7982 5.55932C8.99594 6.0904 9.09481 6.66102 9.09481 7.27119C9.09481 7.88701 8.99594 8.46328 8.7982 9C8.60611 9.53107 8.33775 9.99435 7.99311 10.3898C7.64848 10.7853 7.23888 11.096 6.7643 11.322C6.28972 11.548 5.7756 11.661 5.22193 11.661C4.65696 11.661 4.18238 11.5593 3.7982 11.3559C3.41402 11.1469 3.09481 10.8785 2.84057 10.5508V11.4407H0.28125V3.68741e-06H2.92532V3.92373C3.17955 3.61865 3.49029 3.37288 3.85752 3.18644C4.2304 2.99435 4.6852 2.89831 5.22193 2.89831ZM4.58633 5.37288C4.32645 5.37288 4.08633 5.42091 3.866 5.51695C3.65131 5.613 3.46487 5.74577 3.30667 5.91526C3.15413 6.08475 3.03266 6.28531 2.94227 6.51695C2.85752 6.74859 2.81515 7.00283 2.81515 7.27966C2.81515 7.5565 2.85752 7.81074 2.94227 8.04238C3.03266 8.27401 3.15413 8.47458 3.30667 8.64407C3.46487 8.81356 3.65131 8.94633 3.866 9.04238C4.08633 9.13842 4.32645 9.18644 4.58633 9.18644C4.85187 9.18644 5.09481 9.13842 5.31515 9.04238C5.53549 8.94633 5.72193 8.81356 5.87447 8.64407C6.03266 8.46893 6.15413 8.26554 6.23888 8.0339C6.32362 7.80226 6.36599 7.55085 6.36599 7.27966C6.36599 7.00848 6.32362 6.75706 6.23888 6.52543C6.15413 6.29379 6.03266 6.09322 5.87447 5.92373C5.72193 5.74859 5.53549 5.613 5.31515 5.51695C5.09481 5.42091 4.85187 5.37288 4.58633 5.37288Z" fill="white"/>
<path d="M13.9934 2.89831C14.6092 2.89831 15.1713 3.00565 15.6798 3.22034C16.1939 3.42938 16.6318 3.72882 16.9934 4.11865C17.3606 4.50283 17.6459 4.96328 17.8493 5.5C18.0527 6.03673 18.1544 6.62995 18.1544 7.27966C18.1544 7.41526 18.1487 7.56497 18.1374 7.72882C18.1318 7.88701 18.1205 8.0113 18.1035 8.1017H12.468C12.5809 8.55932 12.79 8.89548 13.0951 9.11017C13.4058 9.32486 13.79 9.43221 14.2476 9.43221C14.5583 9.43221 14.8719 9.37006 15.1883 9.24577C15.5047 9.12147 15.7956 8.94068 16.0612 8.70339L17.773 10.2966C17.338 10.7316 16.8126 11.0678 16.1968 11.3051C15.5809 11.5424 14.886 11.661 14.112 11.661C13.4567 11.661 12.8606 11.5565 12.3239 11.3475C11.7872 11.1384 11.3267 10.8446 10.9425 10.4661C10.5583 10.0876 10.2589 9.63277 10.0442 9.1017C9.83519 8.57062 9.73066 7.98023 9.73066 7.33051C9.73066 6.67514 9.83236 6.07627 10.0358 5.5339C10.2448 4.99153 10.5357 4.52543 10.9086 4.1356C11.2872 3.74577 11.7363 3.44351 12.2561 3.22882C12.7815 3.00848 13.3606 2.89831 13.9934 2.89831ZM14.0019 5.15255C13.5894 5.15255 13.2561 5.26271 13.0019 5.48305C12.7533 5.69774 12.5781 6.0113 12.4764 6.42373H15.5019C15.3945 6.00565 15.2137 5.68927 14.9595 5.47458C14.7109 5.25989 14.3917 5.15255 14.0019 5.15255Z" fill="white"/>
<path d="M24.0474 2.89831C24.2451 2.89831 24.4231 2.91243 24.5813 2.94068C24.7451 2.96893 24.8779 2.99718 24.9796 3.02543L24.7338 5.66949C24.553 5.60735 24.344 5.5565 24.1067 5.51695C23.8751 5.47175 23.6406 5.44916 23.4033 5.44916C22.9288 5.44916 22.5559 5.57062 22.2847 5.81356C22.0192 6.05085 21.8864 6.42938 21.8864 6.94915V11.4407H19.2338V3.12712H21.7762V4.08475C22.0192 3.67797 22.3299 3.37853 22.7084 3.18644C23.0869 2.99435 23.5333 2.89831 24.0474 2.89831Z" fill="white"/>
<path d="M29.0467 2.89831C29.5948 2.89831 30.0552 3 30.4281 3.20339C30.8066 3.40678 31.1202 3.66949 31.3688 3.99153V3.12712H33.9366V10.6441C33.9366 11.3277 33.8292 11.9379 33.6145 12.4746C33.3998 13.017 33.0948 13.4746 32.6993 13.8475C32.3094 14.2203 31.8349 14.5056 31.2755 14.7034C30.7219 14.9011 30.1061 15 29.4281 15C29.0778 15 28.7304 14.9774 28.3857 14.9322C28.0411 14.887 27.7049 14.8192 27.3772 14.7288C27.0552 14.6441 26.7445 14.5339 26.445 14.3983C26.1513 14.2684 25.8801 14.1158 25.6315 13.9407L26.5722 11.8305C26.9789 12.1186 27.3998 12.3305 27.8349 12.4661C28.2755 12.6073 28.7445 12.678 29.2416 12.678C29.5128 12.678 29.7727 12.6384 30.0213 12.5593C30.2755 12.4859 30.4987 12.3701 30.6908 12.2119C30.8885 12.0593 31.0439 11.8616 31.1569 11.6186C31.2755 11.3814 31.3349 11.096 31.3349 10.7627V10.2458C31.0863 10.5621 30.7755 10.8164 30.4027 11.0085C30.0354 11.2006 29.5835 11.2966 29.0467 11.2966C28.4874 11.2966 27.9733 11.1893 27.5044 10.9746C27.0354 10.7599 26.6287 10.4633 26.284 10.0847C25.9394 9.70622 25.671 9.26271 25.4789 8.75424C25.2868 8.24012 25.1908 7.68927 25.1908 7.1017C25.1908 6.51413 25.2868 5.9661 25.4789 5.45763C25.671 4.94351 25.9394 4.49718 26.284 4.11865C26.6287 3.74012 27.0354 3.44351 27.5044 3.22882C27.9733 3.00848 28.4874 2.89831 29.0467 2.89831ZM29.6739 5.32204C29.414 5.32204 29.1767 5.36723 28.962 5.45763C28.7473 5.54803 28.5637 5.67232 28.4111 5.83051C28.2586 5.9887 28.14 6.17797 28.0552 6.39831C27.9705 6.613 27.9281 6.84746 27.9281 7.1017C27.9281 7.35593 27.9705 7.5904 28.0552 7.80509C28.14 8.01978 28.2586 8.20904 28.4111 8.37288C28.5637 8.53108 28.7473 8.65537 28.962 8.74577C29.1767 8.83616 29.414 8.88136 29.6739 8.88136C29.9224 8.88136 30.1513 8.83616 30.3603 8.74577C30.5693 8.65537 30.7473 8.53108 30.8942 8.37288C31.0467 8.21469 31.1626 8.02825 31.2416 7.81356C31.3264 7.59322 31.3688 7.35593 31.3688 7.1017C31.3688 6.84746 31.3264 6.613 31.2416 6.39831C31.1626 6.17797 31.0467 5.9887 30.8942 5.83051C30.7473 5.67232 30.5693 5.54803 30.3603 5.45763C30.1513 5.36723 29.9224 5.32204 29.6739 5.32204Z" fill="white"/>
<path d="M43.4215 7.88136C43.4215 8.53108 43.3169 9.09322 43.1079 9.5678C42.8989 10.0424 42.6107 10.435 42.2435 10.7458C41.8819 11.0565 41.4582 11.2881 40.9723 11.4407C40.4864 11.5876 39.9667 11.661 39.413 11.661C38.8593 11.661 38.3367 11.5876 37.8452 11.4407C37.3593 11.2881 36.9328 11.0565 36.5655 10.7458C36.204 10.435 35.9186 10.0424 35.7096 9.5678C35.5006 9.09322 35.396 8.52825 35.396 7.87288V3.12712H38.0486V7.64407C38.0486 7.90961 38.0825 8.13842 38.1503 8.33051C38.2181 8.5226 38.3113 8.68362 38.4299 8.81356C38.5542 8.93786 38.6983 9.03108 38.8621 9.09322C39.0316 9.15537 39.2153 9.18644 39.413 9.18644C39.6107 9.18644 39.7915 9.15537 39.9554 9.09322C40.1249 9.03108 40.2689 8.93786 40.3876 8.81356C40.5119 8.68362 40.6079 8.5226 40.6757 8.33051C40.7435 8.13842 40.7774 7.90961 40.7774 7.64407V3.12712H43.4215V7.88136Z" fill="white"/>
<path d="M48.704 2.89831C49.3199 2.89831 49.882 3.00565 50.3905 3.22034C50.9046 3.42938 51.3425 3.72882 51.704 4.11865C52.0713 4.50283 52.3566 4.96328 52.56 5.5C52.7634 6.03673 52.8651 6.62995 52.8651 7.27966C52.8651 7.41526 52.8594 7.56497 52.8481 7.72882C52.8425 7.88701 52.8312 8.0113 52.8142 8.1017H47.1786C47.2916 8.55932 47.5007 8.89548 47.8057 9.11017C48.1165 9.32486 48.5007 9.43221 48.9583 9.43221C49.269 9.43221 49.5826 9.37006 49.899 9.24577C50.2153 9.12147 50.5063 8.94068 50.7718 8.70339L52.4837 10.2966C52.0487 10.7316 51.5232 11.0678 50.9074 11.3051C50.2916 11.5424 49.5967 11.661 48.8227 11.661C48.1673 11.661 47.5713 11.5565 47.0345 11.3475C46.4978 11.1384 46.0374 10.8446 45.6532 10.4661C45.269 10.0876 44.9696 9.63277 44.7549 9.1017C44.5458 8.57062 44.4413 7.98023 44.4413 7.33051C44.4413 6.67514 44.543 6.07627 44.7464 5.5339C44.9555 4.99153 45.2464 4.52543 45.6193 4.1356C45.9978 3.74577 46.447 3.44351 46.9668 3.22882C47.4922 3.00848 48.0713 2.89831 48.704 2.89831ZM48.7125 5.15255C48.3001 5.15255 47.9668 5.26271 47.7125 5.48305C47.4639 5.69774 47.2888 6.0113 47.1871 6.42373H50.2125C50.1052 6.00565 49.9244 5.68927 49.6701 5.47458C49.4216 5.25989 49.1023 5.15255 48.7125 5.15255Z" fill="white"/>
<path d="M57.3767 2.89831C57.9078 2.89831 58.3598 2.99435 58.7326 3.18644C59.1055 3.37288 59.4191 3.61865 59.6733 3.92373L59.6479 0H62.292L62.3174 11.4407H59.7581V10.5424C59.5038 10.8701 59.1818 11.1384 58.792 11.3475C58.4078 11.5565 57.9332 11.661 57.3682 11.661C56.8146 11.661 56.3004 11.548 55.8259 11.322C55.3569 11.096 54.9502 10.7853 54.6055 10.3898C54.2609 9.99435 53.9897 9.53107 53.792 9C53.5999 8.46328 53.5038 7.88701 53.5038 7.27119C53.5038 6.66102 53.5999 6.0904 53.792 5.55932C53.9897 5.02825 54.2609 4.56497 54.6055 4.16949C54.9502 3.77401 55.3569 3.46328 55.8259 3.23729C56.3004 3.0113 56.8174 2.89831 57.3767 2.89831ZM58.0038 5.37288C57.7383 5.37288 57.4953 5.42091 57.275 5.51695C57.0603 5.613 56.8739 5.74859 56.7157 5.92373C56.5631 6.09322 56.4445 6.29379 56.3598 6.52543C56.275 6.75706 56.2326 7.00848 56.2326 7.27966C56.2326 7.55085 56.275 7.80226 56.3598 8.0339C56.4445 8.26554 56.5631 8.46893 56.7157 8.64407C56.8739 8.81356 57.0603 8.94633 57.275 9.04238C57.4953 9.13842 57.7383 9.18644 58.0038 9.18644C58.2637 9.18644 58.501 9.13842 58.7157 9.04238C58.936 8.94633 59.1253 8.81356 59.2835 8.64407C59.4417 8.47458 59.5631 8.27401 59.6479 8.04238C59.7383 7.81074 59.7835 7.5565 59.7835 7.27966C59.7835 7.00283 59.7383 6.74859 59.6479 6.51695C59.5631 6.28531 59.4417 6.08475 59.2835 5.91526C59.1253 5.74577 58.936 5.613 58.7157 5.51695C58.501 5.42091 58.2637 5.37288 58.0038 5.37288Z" fill="white"/>
<path d="M72.2159 11.4407H69.6482V10.5424C69.3939 10.8701 69.0719 11.1384 68.6821 11.3475C68.2979 11.5565 67.8233 11.661 67.2583 11.661C66.7047 11.661 66.1905 11.548 65.716 11.322C65.247 11.096 64.8402 10.7853 64.4956 10.3898C64.151 9.99435 63.8798 9.53107 63.6821 9C63.49 8.46328 63.3939 7.88701 63.3939 7.27119C63.3939 6.66102 63.49 6.0904 63.6821 5.55932C63.8798 5.02825 64.151 4.56497 64.4956 4.16949C64.8402 3.77401 65.247 3.46328 65.716 3.23729C66.1905 3.0113 66.7075 2.89831 67.2668 2.89831C67.8261 2.89831 68.3007 3.00565 68.6905 3.22034C69.0804 3.42938 69.3996 3.69774 69.6482 4.02543V3.12712H72.2159V11.4407ZM67.8939 5.37288C67.6284 5.37288 67.3854 5.42091 67.1651 5.51695C66.9504 5.613 66.764 5.74859 66.6058 5.92373C66.4532 6.09322 66.3346 6.29379 66.2498 6.52543C66.1651 6.75706 66.1227 7.00848 66.1227 7.27966C66.1227 7.55085 66.1651 7.80226 66.2498 8.0339C66.3346 8.26554 66.4532 8.46893 66.6058 8.64407C66.764 8.81356 66.9504 8.94633 67.1651 9.04238C67.3854 9.13842 67.6284 9.18644 67.8939 9.18644C68.1538 9.18644 68.3911 9.13842 68.6058 9.04238C68.8261 8.94633 69.0154 8.81356 69.1736 8.64407C69.3318 8.47458 69.4532 8.27401 69.538 8.04238C69.6284 7.81074 69.6736 7.5565 69.6736 7.27966C69.6736 7.00283 69.6284 6.74859 69.538 6.51695C69.4532 6.28531 69.3318 6.08475 69.1736 5.91526C69.0154 5.74577 68.8261 5.613 68.6058 5.51695C68.3911 5.42091 68.1538 5.37288 67.8939 5.37288ZM65.5634 0H68.6058L69.8176 2.07627H67.3346L65.5634 0Z" fill="white"/>
</svg>
