<svg width="69" height="9" viewBox="0 0 69 9" fill="none" xmlns="http://www.w3.org/2000/svg">
<path d="M10.6693 0C11.1567 0 11.5948 0.0725338 11.9836 0.217601C12.3782 0.362669 12.7148 0.571566 12.9933 0.844293C13.2718 1.11702 13.4836 1.45068 13.6287 1.84526C13.7796 2.23404 13.855 2.67505 13.855 3.16828V8.77369H11.1306V4.13443C11.1306 3.62379 11.0117 3.23501 10.7738 2.96808C10.5359 2.69536 10.2022 2.55899 9.7728 2.55899C9.58711 2.55899 9.41013 2.59091 9.24185 2.65474C9.07357 2.71857 8.9256 2.81721 8.79794 2.95068C8.67028 3.08414 8.56873 3.25242 8.4933 3.45551C8.42367 3.65861 8.38885 3.89942 8.38885 4.17795V8.77369H5.66448V4.13443C5.66448 3.62379 5.54552 3.23501 5.30761 2.96808C5.0697 2.69536 4.73895 2.55899 4.31535 2.55899C4.12386 2.55899 3.94398 2.59091 3.7757 2.65474C3.61322 2.71857 3.46815 2.81721 3.34049 2.95068C3.21283 3.08414 3.11129 3.25242 3.03585 3.45551C2.96622 3.65861 2.9314 3.89942 2.9314 4.17795V8.77369H0.207031V0.235009H2.81825V1.30561C3.09098 0.852998 3.43914 0.522243 3.86274 0.313346C4.28634 0.104449 4.78537 0 5.35984 0C5.9227 0 6.43044 0.124758 6.88305 0.374274C7.34146 0.617988 7.70123 0.969052 7.96235 1.42747C8.25249 0.934236 8.62676 0.574468 9.08517 0.348162C9.54939 0.116054 10.0774 0 10.6693 0Z" fill="white"/>
<path d="M23.9713 8.77369H21.334V7.85106C21.0728 8.18762 20.7421 8.46325 20.3417 8.67795C19.9471 8.89265 19.4597 9 18.8794 9C18.3108 9 17.7827 8.88395 17.2953 8.65184C16.8137 8.41973 16.3959 8.10058 16.0419 7.69439C15.6879 7.2882 15.4094 6.81238 15.2063 6.26692C15.009 5.71567 14.9104 5.12379 14.9104 4.4913C14.9104 3.8646 15.009 3.27853 15.2063 2.73308C15.4094 2.18762 15.6879 1.7118 16.0419 1.30561C16.3959 0.89942 16.8137 0.580271 17.2953 0.348162C17.7827 0.116054 18.3137 0 18.8881 0C19.4626 0 19.95 0.110251 20.3504 0.330754C20.7508 0.545454 21.0786 0.821083 21.334 1.15764V0.235009H23.9713V8.77369ZM19.5322 2.54159C19.2595 2.54159 19.01 2.59091 18.7837 2.68955C18.5632 2.7882 18.3717 2.92747 18.2092 3.10735C18.0525 3.28143 17.9307 3.48743 17.8436 3.72534C17.7566 3.96325 17.7131 4.22147 17.7131 4.5C17.7131 4.77853 17.7566 5.03675 17.8436 5.27466C17.9307 5.51257 18.0525 5.72147 18.2092 5.90135C18.3717 6.07544 18.5632 6.2118 18.7837 6.31044C19.01 6.40909 19.2595 6.45841 19.5322 6.45841C19.7992 6.45841 20.0429 6.40909 20.2634 6.31044C20.4897 6.2118 20.6841 6.07544 20.8465 5.90135C21.009 5.72727 21.1338 5.52128 21.2208 5.28337C21.3137 5.04545 21.3601 4.78433 21.3601 4.5C21.3601 4.21567 21.3137 3.95455 21.2208 3.71663C21.1338 3.47872 21.009 3.27273 20.8465 3.09865C20.6841 2.92456 20.4897 2.7882 20.2634 2.68955C20.0429 2.59091 19.7992 2.54159 19.5322 2.54159Z" fill="white"/>
<path d="M30.6737 0C31.0973 0 31.4948 0.0725338 31.8662 0.217601C32.2375 0.362669 32.5567 0.571566 32.8236 0.844293C33.0963 1.11702 33.311 1.45068 33.4677 1.84526C33.6244 2.23404 33.7027 2.67505 33.7027 3.16828V8.77369H30.9783V4.13443C30.9783 3.62379 30.8594 3.23501 30.6215 2.96808C30.3836 2.69536 30.0528 2.55899 29.6292 2.55899C29.4377 2.55899 29.2578 2.59091 29.0896 2.65474C28.9271 2.71857 28.782 2.81721 28.6544 2.95068C28.5267 3.08414 28.4251 3.25242 28.3497 3.45551C28.2801 3.65861 28.2453 3.89942 28.2453 4.17795V8.77369H25.5209V0.235009H28.1321V1.30561C28.4048 0.852998 28.753 0.522243 29.1766 0.313346C29.6002 0.104449 30.0992 0 30.6737 0Z" fill="white"/>
<path d="M40.1467 0C40.3498 0 40.5326 0.0145068 40.6951 0.0435203C40.8633 0.0725338 40.9997 0.101547 41.1042 0.130561L40.8517 2.84623C40.6661 2.7824 40.4513 2.73017 40.2076 2.68955C39.9697 2.64313 39.7289 2.61992 39.4852 2.61992C38.9978 2.61992 38.6148 2.74468 38.3363 2.9942C38.0635 3.23791 37.9272 3.62669 37.9272 4.16054V8.77369H35.2028V0.235009H37.814V1.21857C38.0635 0.800773 38.3827 0.49323 38.7715 0.295938C39.1602 0.098646 39.6187 0 40.1467 0Z" fill="white"/>
<path d="M45.6992 0C46.3317 0 46.9091 0.110251 47.4313 0.330754C47.9594 0.545454 48.4091 0.852998 48.7805 1.25338C49.1576 1.64797 49.4507 2.12089 49.6596 2.67215C49.8685 3.2234 49.9729 3.83269 49.9729 4.5C49.9729 4.63926 49.9671 4.79304 49.9555 4.96131C49.9497 5.12379 49.9381 5.25145 49.9207 5.34429H44.1325C44.2485 5.81431 44.4632 6.15957 44.7766 6.38008C45.0957 6.60058 45.4903 6.71083 45.9603 6.71083C46.2795 6.71083 46.6015 6.647 46.9265 6.51934C47.2514 6.39168 47.5503 6.206 47.823 5.96228L49.5812 7.59865C49.1344 8.04545 48.5948 8.39072 47.9623 8.63443C47.3298 8.87814 46.6161 9 45.8211 9C45.148 9 44.5358 8.89265 43.9845 8.67795C43.4333 8.46325 42.9603 8.16151 42.5658 7.77273C42.1712 7.38395 41.8636 6.91683 41.6431 6.37137C41.4284 5.82592 41.3211 5.21954 41.3211 4.55222C41.3211 3.87911 41.4255 3.26402 41.6344 2.70696C41.8491 2.1499 42.148 1.67118 42.5309 1.27079C42.9197 0.870406 43.381 0.559961 43.9149 0.339458C44.4545 0.113153 45.0493 0 45.6992 0ZM45.7079 2.31528C45.2843 2.31528 44.942 2.42843 44.6808 2.65474C44.4255 2.87524 44.2456 3.19729 44.1412 3.62089H47.2485C47.1383 3.19149 46.9526 2.86654 46.6915 2.64603C46.4362 2.42553 46.1083 2.31528 45.7079 2.31528Z" fill="white"/>
<path d="M57.3862 2.86364C57.1773 2.7766 56.9539 2.69246 56.716 2.61122C56.4781 2.52998 56.2373 2.46035 55.9935 2.40232C55.7498 2.34429 55.5061 2.29787 55.2624 2.26306C55.0187 2.22244 54.7895 2.20213 54.5748 2.20213C54.215 2.20213 53.9597 2.25145 53.8088 2.3501C53.658 2.44294 53.5825 2.5677 53.5825 2.72437C53.5825 2.81721 53.6144 2.89265 53.6783 2.95068C53.7421 3.0087 53.8349 3.06093 53.9568 3.10735C54.0786 3.14797 54.2237 3.18278 54.392 3.2118C54.5603 3.24081 54.7489 3.27273 54.9578 3.30754L55.5845 3.40329C56.5013 3.54255 57.1947 3.82979 57.6647 4.26499C58.1405 4.69439 58.3785 5.27176 58.3785 5.9971C58.3785 6.46712 58.2885 6.88781 58.1086 7.25919C57.9345 7.62476 57.6763 7.9381 57.334 8.19923C56.9974 8.45455 56.5825 8.64894 56.0893 8.7824C55.6019 8.92166 55.0477 8.9913 54.4268 8.9913C54.0612 8.9913 53.6957 8.97389 53.3301 8.93907C52.9645 8.90426 52.6106 8.84913 52.2682 8.77369C51.9316 8.70406 51.6096 8.61412 51.3021 8.50387C51.0003 8.38781 50.7276 8.25145 50.4839 8.09478L51.4326 5.98839C51.862 6.24371 52.3204 6.44101 52.8079 6.58027C53.3011 6.71954 53.8465 6.78917 54.4442 6.78917C54.8678 6.78917 55.1725 6.74275 55.3581 6.6499C55.5438 6.55706 55.6367 6.41779 55.6367 6.23211C55.6367 6.06963 55.5322 5.94778 55.3233 5.86654C55.1144 5.7795 54.7692 5.69826 54.2875 5.62282L53.7914 5.55319C52.7585 5.40232 51.9984 5.10928 51.511 4.67408C51.0235 4.23888 50.7798 3.6354 50.7798 2.86364C50.7798 2.41102 50.861 2.00774 51.0235 1.65377C51.1918 1.29981 51.4326 1.00097 51.746 0.757253C52.0651 0.513539 52.4539 0.327853 52.9123 0.200193C53.3707 0.0725333 53.8901 0.00870343 54.4703 0.00870343C54.8185 0.00870343 55.1376 0.0232102 55.4278 0.0522237C55.7237 0.0754349 56.0138 0.116054 56.2982 0.174081C56.5825 0.232108 56.8726 0.307543 57.1686 0.400386C57.4703 0.49323 57.7953 0.606383 58.1434 0.739845L57.3862 2.86364Z" fill="white"/>
<path d="M68.0118 8.77369H65.3745V7.85106C65.1134 8.18762 64.7826 8.46325 64.3822 8.67795C63.9876 8.89265 63.5002 9 62.9199 9C62.3513 9 61.8232 8.88395 61.3358 8.65184C60.8542 8.41973 60.4364 8.10058 60.0824 7.69439C59.7284 7.2882 59.4499 6.81238 59.2468 6.26692C59.0495 5.71567 58.9509 5.12379 58.9509 4.4913C58.9509 3.8646 59.0495 3.27853 59.2468 2.73308C59.4499 2.18762 59.7284 1.7118 60.0824 1.30561C60.4364 0.89942 60.8542 0.580271 61.3358 0.348162C61.8232 0.116054 62.3542 0 62.9286 0C63.5031 0 63.9905 0.110251 64.3909 0.330754C64.7913 0.545454 65.1192 0.821083 65.3745 1.15764V0.235009H68.0118V8.77369ZM63.5727 2.54159C63.3 2.54159 63.0505 2.59091 62.8242 2.68955C62.6037 2.7882 62.4122 2.92747 62.2497 3.10735C62.0931 3.28143 61.9712 3.48743 61.8842 3.72534C61.7971 3.96325 61.7536 4.22147 61.7536 4.5C61.7536 4.77853 61.7971 5.03675 61.8842 5.27466C61.9712 5.51257 62.0931 5.72147 62.2497 5.90135C62.4122 6.07544 62.6037 6.2118 62.8242 6.31044C63.0505 6.40909 63.3 6.45841 63.5727 6.45841C63.8397 6.45841 64.0834 6.40909 64.3039 6.31044C64.5302 6.2118 64.7246 6.07544 64.8871 5.90135C65.0495 5.72727 65.1743 5.52128 65.2613 5.28337C65.3542 5.04545 65.4006 4.78433 65.4006 4.5C65.4006 4.21567 65.3542 3.95455 65.2613 3.71663C65.1743 3.47872 65.0495 3.27273 64.8871 3.09865C64.7246 2.92456 64.5302 2.7882 64.3039 2.68955C64.0834 2.59091 63.8397 2.54159 63.5727 2.54159Z" fill="white"/>
</svg>
