<svg width="63" height="15" viewBox="0 0 63 15" fill="none" xmlns="http://www.w3.org/2000/svg">
<path d="M9.65451 11.2656H6.96038V10.3231C6.69364 10.6669 6.35576 10.9484 5.94675 11.1678C5.54367 11.3871 5.04574 11.4967 4.45297 11.4967C3.87206 11.4967 3.33264 11.3782 2.83471 11.1411C2.34272 10.904 1.91592 10.5779 1.55434 10.163C1.19275 9.74807 0.908218 9.262 0.700749 8.7048C0.499208 8.14167 0.398438 7.53705 0.398438 6.89093C0.398438 6.25074 0.499208 5.65204 0.700749 5.09484C0.908218 4.53764 1.19275 4.05157 1.55434 3.63663C1.91592 3.22169 2.34272 2.89567 2.83471 2.65857C3.33264 2.42146 3.87502 2.3029 4.46186 2.3029C5.0487 2.3029 5.54663 2.41553 5.95564 2.64078C6.36465 2.86011 6.69956 3.14167 6.96038 3.48548V2.54298H9.65451V11.2656ZM5.11984 4.89923C4.84124 4.89923 4.58634 4.94961 4.35517 5.05038C4.12991 5.15116 3.9343 5.29342 3.76832 5.47718C3.60828 5.65501 3.4838 5.86544 3.39488 6.10848C3.30597 6.35151 3.26151 6.61529 3.26151 6.89982C3.26151 7.18435 3.30597 7.44813 3.39488 7.69117C3.4838 7.9342 3.60828 8.1476 3.76832 8.33136C3.9343 8.50919 4.12991 8.64849 4.35517 8.74926C4.58634 8.85003 4.84124 8.90041 5.11984 8.90041C5.39251 8.90041 5.64147 8.85003 5.86672 8.74926C6.0979 8.64849 6.29648 8.50919 6.46246 8.33136C6.62843 8.15353 6.75588 7.94309 6.84479 7.70006C6.93963 7.45702 6.98706 7.19028 6.98706 6.89982C6.98706 6.60936 6.93963 6.34262 6.84479 6.09958C6.75588 5.85655 6.62843 5.64612 6.46246 5.46829C6.29648 5.29046 6.0979 5.15116 5.86672 5.05038C5.64147 4.94961 5.39251 4.89923 5.11984 4.89923Z" fill="white"/>
<path d="M14.8208 2.3029C15.3957 2.3029 15.8789 2.4096 16.2701 2.623C16.6672 2.8364 16.9962 3.11203 17.257 3.44991V2.54298H19.9512V10.4298C19.9512 11.147 19.8385 11.7872 19.6133 12.3503C19.388 12.9194 19.0679 13.3995 18.653 13.7908C18.244 14.182 17.7461 14.4813 17.1592 14.6888C16.5783 14.8963 15.9322 15 15.2209 15C14.8534 15 14.4888 14.9763 14.1272 14.9289C13.7656 14.8814 13.4129 14.8103 13.0691 14.7155C12.7313 14.6266 12.4052 14.511 12.0911 14.3687C11.7828 14.2324 11.4983 14.0723 11.2375 13.8886L12.2244 11.6746C12.6512 11.9769 13.0928 12.1992 13.5493 12.3414C14.0116 12.4896 14.5036 12.5637 15.0253 12.5637C15.3098 12.5637 15.5825 12.5222 15.8433 12.4392C16.11 12.3622 16.3442 12.2407 16.5457 12.0747C16.7532 11.9146 16.9162 11.7072 17.0348 11.4523C17.1592 11.2033 17.2215 10.904 17.2215 10.5542V10.0119C16.9607 10.3438 16.6346 10.6105 16.2434 10.8121C15.8581 11.0136 15.3839 11.1144 14.8208 11.1144C14.2339 11.1144 13.6945 11.0018 13.2025 10.7765C12.7105 10.5513 12.2837 10.2401 11.9221 9.84292C11.5605 9.44576 11.279 8.98044 11.0774 8.44695C10.8759 7.90753 10.7751 7.32958 10.7751 6.7131C10.7751 6.09662 10.8759 5.52164 11.0774 4.98814C11.279 4.44873 11.5605 3.98044 11.9221 3.58328C12.2837 3.18613 12.7105 2.87493 13.2025 2.64967C13.6945 2.41849 14.2339 2.3029 14.8208 2.3029ZM15.4787 4.84588C15.2061 4.84588 14.9571 4.8933 14.7319 4.98814C14.5066 5.08299 14.3139 5.2134 14.1539 5.37937C13.9939 5.54535 13.8694 5.74392 13.7805 5.9751C13.6915 6.20035 13.6471 6.44635 13.6471 6.7131C13.6471 6.97984 13.6915 7.22584 13.7805 7.4511C13.8694 7.67635 13.9939 7.87492 14.1539 8.04683C14.3139 8.2128 14.5066 8.34321 14.7319 8.43805C14.9571 8.5329 15.2061 8.58032 15.4787 8.58032C15.7396 8.58032 15.9796 8.5329 16.199 8.43805C16.4183 8.34321 16.605 8.2128 16.7591 8.04683C16.9192 7.88085 17.0407 7.68524 17.1237 7.45999C17.2126 7.22881 17.257 6.97984 17.257 6.7131C17.257 6.44635 17.2126 6.20035 17.1237 5.9751C17.0407 5.74392 16.9192 5.54535 16.7591 5.37937C16.605 5.2134 16.4183 5.08299 16.199 4.98814C15.9796 4.8933 15.7396 4.84588 15.4787 4.84588Z" fill="white"/>
<path d="M29.9027 7.53112C29.9027 8.2128 29.7931 8.80261 29.5737 9.30053C29.3544 9.79846 29.0521 10.2104 28.6668 10.5365C28.2874 10.8625 27.8429 11.1055 27.3331 11.2656C26.8233 11.4197 26.278 11.4967 25.697 11.4967C25.1161 11.4967 24.5678 11.4197 24.0521 11.2656C23.5423 11.1055 23.0948 10.8625 22.7095 10.5365C22.3301 10.2104 22.0308 9.79846 21.8114 9.30053C21.5921 8.80261 21.4825 8.20984 21.4825 7.52223V2.54298H24.2655V7.28216C24.2655 7.56076 24.3011 7.80083 24.3722 8.00237C24.4433 8.20391 24.5411 8.37285 24.6656 8.50919C24.796 8.6396 24.9472 8.7374 25.1191 8.80261C25.2969 8.86781 25.4896 8.90041 25.697 8.90041C25.9045 8.90041 26.0942 8.86781 26.2661 8.80261C26.4439 8.7374 26.5951 8.6396 26.7196 8.50919C26.85 8.37285 26.9507 8.20391 27.0219 8.00237C27.093 7.80083 27.1286 7.56076 27.1286 7.28216V2.54298H29.9027V7.53112Z" fill="white"/>
<path d="M40.2288 11.2656H37.5347V10.3231C37.268 10.6669 36.9301 10.9484 36.5211 11.1678C36.118 11.3871 35.6201 11.4967 35.0273 11.4967C34.4464 11.4967 33.907 11.3782 33.409 11.1411C32.9171 10.904 32.4903 10.5779 32.1287 10.163C31.7671 9.74807 31.4826 9.262 31.2751 8.7048C31.0735 8.14167 30.9728 7.53705 30.9728 6.89093C30.9728 6.25074 31.0735 5.65204 31.2751 5.09484C31.4826 4.53764 31.7671 4.05157 32.1287 3.63663C32.4903 3.22169 32.9171 2.89567 33.409 2.65857C33.907 2.42146 34.4494 2.3029 35.0362 2.3029C35.623 2.3029 36.121 2.41553 36.53 2.64078C36.939 2.86011 37.2739 3.14167 37.5347 3.48548V2.54298H40.2288V11.2656ZM35.6942 4.89923C35.4156 4.89923 35.1607 4.94961 34.9295 5.05038C34.7042 5.15116 34.5086 5.29342 34.3427 5.47718C34.1826 5.65501 34.0581 5.86544 33.9692 6.10848C33.8803 6.35151 33.8358 6.61529 33.8358 6.89982C33.8358 7.18435 33.8803 7.44813 33.9692 7.69117C34.0581 7.9342 34.1826 8.1476 34.3427 8.33136C34.5086 8.50919 34.7042 8.64849 34.9295 8.74926C35.1607 8.85003 35.4156 8.90041 35.6942 8.90041C35.9668 8.90041 36.2158 8.85003 36.4411 8.74926C36.6722 8.64849 36.8708 8.50919 37.0368 8.33136C37.2028 8.15353 37.3302 7.94309 37.4191 7.70006C37.514 7.45702 37.5614 7.19028 37.5614 6.89982C37.5614 6.60936 37.514 6.34262 37.4191 6.09958C37.3302 5.85655 37.2028 5.64612 37.0368 5.46829C36.8708 5.29046 36.6722 5.15116 36.4411 5.05038C36.2158 4.94961 35.9668 4.89923 35.6942 4.89923Z" fill="white"/>
<path d="M44.5949 11.2656H41.8118V2.54298H44.5949V11.2656Z" fill="white"/>
<path d="M52.0837 5.00593H49.105V7.55779C49.105 7.80676 49.1347 8.01719 49.194 8.18909C49.2592 8.361 49.3481 8.5003 49.4607 8.60699C49.5733 8.71369 49.7037 8.79075 49.8519 8.83817C50.0001 8.87967 50.1631 8.90041 50.341 8.90041C50.6018 8.90041 50.8626 8.8441 51.1234 8.73147C51.3902 8.61292 51.6332 8.48844 51.8525 8.35803L52.8128 10.5276C52.6053 10.6698 52.3949 10.8002 52.1815 10.9188C51.9681 11.0373 51.7369 11.1411 51.488 11.23C51.239 11.313 50.9693 11.3782 50.6788 11.4256C50.3884 11.473 50.0683 11.4967 49.7186 11.4967C49.1317 11.4967 48.6249 11.4138 48.1981 11.2478C47.7713 11.0759 47.4186 10.8358 47.14 10.5276C46.8614 10.2134 46.6539 9.83699 46.5176 9.39834C46.3872 8.95376 46.322 8.4588 46.322 7.91345V5.00593V2.54298V0H49.105V2.54298H52.0837V5.00593Z" fill="white"/>
<path d="M62.1186 11.2656H59.4245V10.3231C59.1577 10.6669 58.8199 10.9484 58.4108 11.1678C58.0078 11.3871 57.5098 11.4967 56.9171 11.4967C56.3362 11.4967 55.7967 11.3782 55.2988 11.1411C54.8068 10.904 54.38 10.5779 54.0184 10.163C53.6568 9.74807 53.3723 9.262 53.1648 8.7048C52.9633 8.14167 52.8625 7.53705 52.8625 6.89093C52.8625 6.25074 52.9633 5.65204 53.1648 5.09484C53.3723 4.53764 53.6568 4.05157 54.0184 3.63663C54.38 3.22169 54.8068 2.89567 55.2988 2.65857C55.7967 2.42146 56.3391 2.3029 56.926 2.3029C57.5128 2.3029 58.0107 2.41553 58.4197 2.64078C58.8287 2.86011 59.1637 3.14167 59.4245 3.48548V2.54298H62.1186V11.2656ZM57.5839 4.89923C57.3053 4.89923 57.0504 4.94961 56.8193 5.05038C56.594 5.15116 56.3984 5.29342 56.2324 5.47718C56.0724 5.65501 55.9479 5.86544 55.859 6.10848C55.7701 6.35151 55.7256 6.61529 55.7256 6.89982C55.7256 7.18435 55.7701 7.44813 55.859 7.69117C55.9479 7.9342 56.0724 8.1476 56.2324 8.33136C56.3984 8.50919 56.594 8.64849 56.8193 8.74926C57.0504 8.85003 57.3053 8.90041 57.5839 8.90041C57.8566 8.90041 58.1056 8.85003 58.3308 8.74926C58.562 8.64849 58.7606 8.50919 58.9266 8.33136C59.0925 8.15353 59.22 7.94309 59.3089 7.70006C59.4037 7.45702 59.4512 7.19028 59.4512 6.89982C59.4512 6.60936 59.4037 6.34262 59.3089 6.09958C59.22 5.85655 59.0925 5.64612 58.9266 5.46829C58.7606 5.29046 58.562 5.15116 58.3308 5.05038C58.1056 4.94961 57.8566 4.89923 57.5839 4.89923Z" fill="white"/>
</svg>
