<svg width="43" height="15" viewBox="0 0 43 15" fill="none" xmlns="http://www.w3.org/2000/svg">
<path d="M3.2489 11.7691H0.46875V0H3.2489V11.7691Z" fill="white"/>
<path d="M7.61233 11.7691H4.83217V0H7.61233V11.7691Z" fill="white"/>
<path d="M13.2015 2.81572C13.8469 2.81572 14.4361 2.92823 14.9691 3.15325C15.5079 3.37234 15.9669 3.68618 16.3458 4.09477C16.7307 4.49743 17.0298 4.98004 17.2429 5.54258C17.4561 6.10512 17.5627 6.72688 17.5627 7.40786C17.5627 7.54998 17.5568 7.7069 17.5449 7.87862C17.539 8.04442 17.5272 8.1747 17.5094 8.26944H11.6027C11.7211 8.74908 11.9402 9.10141 12.26 9.32643C12.5857 9.55145 12.9883 9.66396 13.468 9.66396C13.7937 9.66396 14.1223 9.59882 14.4539 9.46855C14.7855 9.33828 15.0905 9.14879 15.3688 8.90008L17.163 10.57C16.707 11.0259 16.1563 11.3782 15.5109 11.6269C14.8654 11.8756 14.1371 12 13.3259 12C12.639 12 12.0142 11.8905 11.4517 11.6714C10.8891 11.4523 10.4065 11.1443 10.0039 10.7476C9.60122 10.3509 9.28738 9.87417 9.06236 9.31755C8.84326 8.76093 8.73371 8.14213 8.73371 7.46115C8.73371 6.77426 8.8403 6.14658 9.05348 5.57811C9.27257 5.00964 9.57753 4.52112 9.96835 4.11253C10.3651 3.70395 10.8359 3.38715 11.3806 3.16213C11.9313 2.93119 12.5383 2.81572 13.2015 2.81572ZM13.2104 5.17841C12.7781 5.17841 12.4287 5.29388 12.1623 5.52482C11.9017 5.74983 11.7182 6.07848 11.6116 6.51075H14.7825C14.67 6.07256 14.4806 5.74095 14.2141 5.51593C13.9535 5.29091 13.619 5.17841 13.2104 5.17841Z" fill="white"/>
<path d="M21.4742 11.7691H18.6941V3.05554H21.4742V11.7691Z" fill="white"/>
<path d="M26.6548 2.81572C27.2115 2.81572 27.6852 2.91638 28.076 3.11772C28.4668 3.31313 28.7955 3.57071 29.0619 3.89048V0H31.8332V11.7691H29.1508V10.8275C28.8843 11.171 28.5468 11.4523 28.1382 11.6714C27.7355 11.8905 27.2381 12 26.6459 12C26.0656 12 25.5268 11.8816 25.0294 11.6447C24.5379 11.4078 24.1115 11.0822 23.7503 10.6677C23.3891 10.2532 23.1049 9.76759 22.8976 9.21096C22.6963 8.64842 22.5956 8.04442 22.5956 7.39898C22.5956 6.75945 22.6963 6.16138 22.8976 5.60476C23.1049 5.04813 23.3891 4.56257 23.7503 4.14806C24.1115 3.73355 24.5379 3.40787 25.0294 3.17101C25.5268 2.93415 26.0686 2.81572 26.6548 2.81572ZM27.3121 5.40935C27.0338 5.40935 26.7792 5.45968 26.5482 5.56034C26.3232 5.66101 26.1278 5.80313 25.962 5.98669C25.8021 6.16434 25.6778 6.37455 25.589 6.61734C25.5001 6.86012 25.4557 7.12363 25.4557 7.40786C25.4557 7.69209 25.5001 7.9556 25.589 8.19838C25.6778 8.44116 25.8021 8.65434 25.962 8.83791C26.1278 9.01555 26.3232 9.15471 26.5482 9.25537C26.7792 9.35604 27.0338 9.40637 27.3121 9.40637C27.5845 9.40637 27.8332 9.35604 28.0582 9.25537C28.2892 9.15471 28.4875 9.01555 28.6533 8.83791C28.8191 8.66026 28.9465 8.45005 29.0353 8.20726C29.13 7.96448 29.1774 7.69801 29.1774 7.40786C29.1774 7.1177 29.13 6.85124 29.0353 6.60845C28.9465 6.36567 28.8191 6.15546 28.6533 5.97781C28.4875 5.80017 28.2892 5.66101 28.0582 5.56034C27.8332 5.45968 27.5845 5.40935 27.3121 5.40935Z" fill="white"/>
<path d="M42.208 11.7691H39.5167V10.8275C39.2502 11.171 38.9127 11.4523 38.5041 11.6714C38.1014 11.8905 37.604 12 37.0119 12C36.4315 12 35.8927 11.8816 35.3953 11.6447C34.9038 11.4078 34.4774 11.0822 34.1162 10.6677C33.755 10.2532 33.4708 9.76759 33.2635 9.21096C33.0622 8.64842 32.9615 8.04442 32.9615 7.39898C32.9615 6.75945 33.0622 6.16138 33.2635 5.60476C33.4708 5.04813 33.755 4.56257 34.1162 4.14806C34.4774 3.73355 34.9038 3.40787 35.3953 3.17101C35.8927 2.93415 36.4345 2.81572 37.0207 2.81572C37.607 2.81572 38.1044 2.92823 38.513 3.15325C38.9215 3.37234 39.2561 3.65361 39.5167 3.99706V3.05554H42.208V11.7691ZM37.678 5.40935C37.3997 5.40935 37.1451 5.45968 36.9141 5.56034C36.6891 5.66101 36.4937 5.80313 36.3279 5.98669C36.168 6.16434 36.0437 6.37455 35.9549 6.61734C35.866 6.86012 35.8216 7.12363 35.8216 7.40786C35.8216 7.69209 35.866 7.9556 35.9549 8.19838C36.0437 8.44116 36.168 8.65434 36.3279 8.83791C36.4937 9.01555 36.6891 9.15471 36.9141 9.25537C37.1451 9.35604 37.3997 9.40637 37.678 9.40637C37.9504 9.40637 38.1991 9.35604 38.4241 9.25537C38.6551 9.15471 38.8534 9.01555 39.0192 8.83791C39.185 8.66026 39.3124 8.45005 39.4012 8.20726C39.4959 7.96448 39.5433 7.69801 39.5433 7.40786C39.5433 7.1177 39.4959 6.85124 39.4012 6.60845C39.3124 6.36567 39.185 6.15546 39.0192 5.97781C38.8534 5.80017 38.6551 5.66101 38.4241 5.56034C38.1991 5.45968 37.9504 5.40935 37.678 5.40935Z" fill="white"/>
</svg>
