<svg width="62" height="15" viewBox="0 0 62 15" fill="none" xmlns="http://www.w3.org/2000/svg">
<path d="M7.91478 5.73796C7.7016 5.64914 7.47362 5.56327 7.23084 5.48037C6.98805 5.39747 6.74231 5.32641 6.49361 5.2672C6.2449 5.20798 5.9962 5.16061 5.74749 5.12508C5.49879 5.08363 5.26488 5.0629 5.04579 5.0629C4.67865 5.0629 4.4181 5.11324 4.26414 5.2139C4.11018 5.30865 4.0332 5.43596 4.0332 5.59584C4.0332 5.69059 4.06577 5.76757 4.13091 5.82678C4.19604 5.886 4.29079 5.93929 4.41514 5.98667C4.53949 6.02812 4.68753 6.06365 4.85926 6.09325C5.03098 6.12286 5.22343 6.15543 5.43661 6.19096L6.07614 6.28866C7.01174 6.43078 7.71937 6.7239 8.19901 7.16801C8.68458 7.60621 8.92736 8.1954 8.92736 8.9356C8.92736 9.41524 8.83558 9.84456 8.65201 10.2235C8.47436 10.5966 8.21086 10.9164 7.86148 11.1828C7.51803 11.4434 7.09464 11.6417 6.59131 11.7779C6.0939 11.9201 5.52839 11.9911 4.89479 11.9911C4.52173 11.9911 4.14867 11.9734 3.77561 11.9378C3.40256 11.9023 3.04134 11.846 2.69197 11.7691C2.34852 11.698 2.01987 11.6062 1.70603 11.4937C1.39811 11.3753 1.1198 11.2361 0.871094 11.0762L1.83927 8.92672C2.27746 9.18726 2.74526 9.3886 3.24267 9.53071C3.74601 9.67283 4.30263 9.74389 4.91255 9.74389C5.34482 9.74389 5.65571 9.69652 5.8452 9.60177C6.03469 9.50703 6.12943 9.36491 6.12943 9.17542C6.12943 9.00962 6.02284 8.88526 5.80967 8.80236C5.59649 8.71354 5.24416 8.63064 4.75267 8.55366L4.24638 8.4826C3.19234 8.32864 2.41662 8.0296 1.91921 7.58548C1.4218 7.14137 1.17309 6.52553 1.17309 5.73796C1.17309 5.27608 1.25599 4.86453 1.4218 4.50332C1.59352 4.1421 1.83927 3.83714 2.15903 3.58844C2.48472 3.33973 2.88146 3.15024 3.34926 3.01997C3.81706 2.88969 4.34704 2.82456 4.9392 2.82456C5.29449 2.82456 5.62018 2.83936 5.91625 2.86897C6.21825 2.89266 6.51433 2.93411 6.80449 2.99332C7.09464 3.05254 7.39072 3.12952 7.69272 3.22426C8.00064 3.31901 8.33225 3.43448 8.68754 3.57067L7.91478 5.73796Z" fill="white"/>
<path d="M14.2369 2.81568C14.9179 2.81568 15.5456 2.93115 16.12 3.16209C16.7003 3.39303 17.2006 3.71279 17.6211 4.12138C18.0474 4.52996 18.379 5.01553 18.6159 5.57808C18.8528 6.14063 18.9712 6.75055 18.9712 7.40784C18.9712 8.06513 18.8528 8.67505 18.6159 9.2376C18.379 9.80014 18.0474 10.2857 17.6211 10.6943C17.2006 11.1029 16.7003 11.4226 16.12 11.6536C15.5456 11.8845 14.9179 12 14.2369 12C13.5559 12 12.9253 11.8845 12.345 11.6536C11.7706 11.4226 11.2732 11.1029 10.8527 10.6943C10.4323 10.2857 10.1037 9.80014 9.86681 9.2376C9.62995 8.67505 9.51151 8.06513 9.51151 7.40784C9.51151 6.75055 9.62995 6.14063 9.86681 5.57808C10.1037 5.01553 10.4323 4.52996 10.8527 4.12138C11.2732 3.71279 11.7706 3.39303 12.345 3.16209C12.9253 2.93115 13.5559 2.81568 14.2369 2.81568ZM14.2369 5.40931C13.9645 5.40931 13.7129 5.45965 13.4819 5.56031C13.2569 5.65506 13.0585 5.79125 12.8868 5.9689C12.721 6.14655 12.5907 6.35972 12.496 6.60843C12.4012 6.85121 12.3539 7.11768 12.3539 7.40784C12.3539 7.70392 12.4012 7.97335 12.496 8.21613C12.5907 8.45891 12.721 8.66913 12.8868 8.84677C13.0585 9.02442 13.2569 9.16358 13.4819 9.26424C13.7129 9.35899 13.9645 9.40636 14.2369 9.40636C14.5093 9.40636 14.761 9.35899 14.9919 9.26424C15.2228 9.16358 15.4212 9.02442 15.587 8.84677C15.7587 8.66913 15.892 8.45891 15.9867 8.21613C16.0815 7.97335 16.1288 7.70392 16.1288 7.40784C16.1288 7.11768 16.0815 6.85121 15.9867 6.60843C15.892 6.35972 15.7587 6.14655 15.587 5.9689C15.4212 5.79125 15.2228 5.65506 14.9919 5.56031C14.761 5.45965 14.5093 5.40931 14.2369 5.40931Z" fill="white"/>
<path d="M22.894 11.7691H20.1138V0H22.894V11.7691Z" fill="white"/>
<path d="M31.0324 5.73796C30.8192 5.64914 30.5913 5.56327 30.3485 5.48037C30.1057 5.39747 29.8599 5.32641 29.6112 5.2672C29.3625 5.20798 29.1138 5.16061 28.8651 5.12508C28.6164 5.08363 28.3825 5.0629 28.1634 5.0629C27.7963 5.0629 27.5357 5.11324 27.3818 5.2139C27.2278 5.30865 27.1508 5.43596 27.1508 5.59584C27.1508 5.69059 27.1834 5.76757 27.2485 5.82678C27.3137 5.886 27.4084 5.93929 27.5328 5.98667C27.6571 6.02812 27.8052 6.06365 27.9769 6.09325C28.1486 6.12286 28.3411 6.15543 28.5542 6.19096L29.1938 6.28866C30.1294 6.43078 30.837 6.7239 31.3166 7.16801C31.8022 7.60621 32.045 8.1954 32.045 8.9356C32.045 9.41524 31.9532 9.84456 31.7696 10.2235C31.592 10.5966 31.3285 10.9164 30.9791 11.1828C30.6357 11.4434 30.2123 11.6417 29.709 11.7779C29.2115 11.9201 28.646 11.9911 28.0124 11.9911C27.6394 11.9911 27.2663 11.9734 26.8933 11.9378C26.5202 11.9023 26.159 11.846 25.8096 11.7691C25.4662 11.698 25.1375 11.6062 24.8237 11.4937C24.5157 11.3753 24.2374 11.2361 23.9887 11.0762L24.9569 8.92672C25.3951 9.18726 25.8629 9.3886 26.3603 9.53071C26.8636 9.67283 27.4203 9.74389 28.0302 9.74389C28.4625 9.74389 28.7733 9.69652 28.9628 9.60177C29.1523 9.50703 29.2471 9.36491 29.2471 9.17542C29.2471 9.00962 29.1405 8.88526 28.9273 8.80236C28.7141 8.71354 28.3618 8.63064 27.8703 8.55366L27.364 8.4826C26.31 8.32864 25.5343 8.0296 25.0368 7.58548C24.5394 7.14137 24.2907 6.52553 24.2907 5.73796C24.2907 5.27608 24.3736 4.86453 24.5394 4.50332C24.7112 4.1421 24.9569 3.83714 25.2767 3.58844C25.6024 3.33973 25.9991 3.15024 26.4669 3.01997C26.9347 2.88969 27.4647 2.82456 28.0568 2.82456C28.4121 2.82456 28.7378 2.83936 29.0339 2.86897C29.3359 2.89266 29.632 2.93411 29.9221 2.99332C30.2123 3.05254 30.5084 3.12952 30.8104 3.22426C31.1183 3.31901 31.4499 3.43448 31.8052 3.57067L31.0324 5.73796Z" fill="white"/>
<path d="M37.3545 2.81568C38.0355 2.81568 38.6632 2.93115 39.2376 3.16209C39.8179 3.39303 40.3183 3.71279 40.7387 4.12138C41.1651 4.52996 41.4967 5.01553 41.7335 5.57808C41.9704 6.14063 42.0888 6.75055 42.0888 7.40784C42.0888 8.06513 41.9704 8.67505 41.7335 9.2376C41.4967 9.80014 41.1651 10.2857 40.7387 10.6943C40.3183 11.1029 39.8179 11.4226 39.2376 11.6536C38.6632 11.8845 38.0355 12 37.3545 12C36.6736 12 36.0429 11.8845 35.4626 11.6536C34.8882 11.4226 34.3908 11.1029 33.9704 10.6943C33.55 10.2857 33.2213 9.80014 32.9844 9.2376C32.7476 8.67505 32.6292 8.06513 32.6292 7.40784C32.6292 6.75055 32.7476 6.14063 32.9844 5.57808C33.2213 5.01553 33.55 4.52996 33.9704 4.12138C34.3908 3.71279 34.8882 3.39303 35.4626 3.16209C36.0429 2.93115 36.6736 2.81568 37.3545 2.81568ZM37.3545 5.40931C37.0822 5.40931 36.8305 5.45965 36.5996 5.56031C36.3745 5.65506 36.1762 5.79125 36.0044 5.9689C35.8386 6.14655 35.7084 6.35972 35.6136 6.60843C35.5189 6.85121 35.4715 7.11768 35.4715 7.40784C35.4715 7.70392 35.5189 7.97335 35.6136 8.21613C35.7084 8.45891 35.8386 8.66913 36.0044 8.84677C36.1762 9.02442 36.3745 9.16358 36.5996 9.26424C36.8305 9.35899 37.0822 9.40636 37.3545 9.40636C37.6269 9.40636 37.8786 9.35899 38.1095 9.26424C38.3405 9.16358 38.5389 9.02442 38.7047 8.84677C38.8764 8.66913 39.0096 8.45891 39.1044 8.21613C39.1991 7.97335 39.2465 7.70392 39.2465 7.40784C39.2465 7.11768 39.1991 6.85121 39.1044 6.60843C39.0096 6.35972 38.8764 6.14655 38.7047 5.9689C38.5389 5.79125 38.3405 5.65506 38.1095 5.56031C37.8786 5.45965 37.6269 5.40931 37.3545 5.40931Z" fill="white"/>
<path d="M48.4898 2.81568C48.9221 2.81568 49.3277 2.88969 49.7067 3.03773C50.0856 3.18577 50.4113 3.39895 50.6837 3.67726C50.962 3.95557 51.1811 4.29606 51.341 4.69873C51.5009 5.09547 51.5808 5.54551 51.5808 6.04884V11.7691H48.8007V7.03478C48.8007 6.51368 48.6793 6.11694 48.4365 5.84455C48.1937 5.56624 47.8562 5.42708 47.4239 5.42708C47.2285 5.42708 47.0449 5.45965 46.8732 5.52478C46.7074 5.58992 46.5594 5.69059 46.4291 5.82678C46.2988 5.96298 46.1952 6.1347 46.1182 6.34196C46.0472 6.54921 46.0116 6.79496 46.0116 7.07919V11.7691H43.2315V3.0555H45.8962V4.14802C46.1745 3.68614 46.5298 3.34861 46.962 3.13544C47.3943 2.92226 47.9036 2.81568 48.4898 2.81568Z" fill="white"/>
<path d="M61.8963 11.7691H59.2049V10.8275C58.9385 11.171 58.6009 11.4523 58.1923 11.6714C57.7897 11.8905 57.2923 12 56.7001 12C56.1198 12 55.5809 11.8816 55.0835 11.6447C54.592 11.4078 54.1657 11.0822 53.8045 10.6677C53.4433 10.2531 53.159 9.76758 52.9518 9.21095C52.7504 8.6484 52.6498 8.0444 52.6498 7.39896C52.6498 6.75943 52.7504 6.16135 52.9518 5.60473C53.159 5.0481 53.4433 4.56253 53.8045 4.14802C54.1657 3.73352 54.592 3.40783 55.0835 3.17097C55.5809 2.93411 56.1228 2.81568 56.709 2.81568C57.2952 2.81568 57.7926 2.92819 58.2012 3.1532C58.6098 3.3723 58.9444 3.65357 59.2049 3.99702V3.0555H61.8963V11.7691ZM57.3663 5.40931C57.088 5.40931 56.8333 5.45965 56.6024 5.56031C56.3774 5.66098 56.182 5.8031 56.0162 5.98667C55.8563 6.16431 55.7319 6.37453 55.6431 6.61731C55.5543 6.86009 55.5099 7.1236 55.5099 7.40784C55.5099 7.69207 55.5543 7.95558 55.6431 8.19836C55.7319 8.44115 55.8563 8.65432 56.0162 8.83789C56.182 9.01554 56.3774 9.15469 56.6024 9.25536C56.8333 9.35603 57.088 9.40636 57.3663 9.40636C57.6387 9.40636 57.8874 9.35603 58.1124 9.25536C58.3433 9.15469 58.5417 9.01554 58.7075 8.83789C58.8733 8.66025 59.0006 8.45003 59.0895 8.20725C59.1842 7.96446 59.2316 7.69799 59.2316 7.40784C59.2316 7.11768 59.1842 6.85121 59.0895 6.60843C59.0006 6.36564 58.8733 6.15543 58.7075 5.97778C58.5417 5.80014 58.3433 5.66098 58.1124 5.56031C57.8874 5.45965 57.6387 5.40931 57.3663 5.40931Z" fill="white"/>
</svg>
