<svg style="padding-bottom:2px" width="54" height="15" viewBox="0 0 54 15" fill="none" xmlns="http://www.w3.org/2000/svg">
<path d="M3.19108 12.4217H0.461426V0.648438H3.19108V12.4217Z" fill="white"/>
<path d="M13.3706 12.4217H10.7282V11.4973C10.4665 11.8345 10.1351 12.1106 9.73397 12.3258C9.33862 12.5409 8.85025 12.6484 8.26885 12.6484C7.69908 12.6484 7.17001 12.5322 6.68164 12.2996C6.19908 12.067 5.78048 11.7473 5.42582 11.3403C5.07117 10.9333 4.7921 10.4566 4.58861 9.91006C4.39094 9.35773 4.2921 8.76471 4.2921 8.13099C4.2921 7.50308 4.39094 6.91587 4.58861 6.36936C4.7921 5.82284 5.07117 5.3461 5.42582 4.93912C5.78048 4.53214 6.19908 4.21238 6.68164 3.97982C7.17001 3.74726 7.70199 3.63098 8.27757 3.63098C8.85316 3.63098 9.34153 3.74145 9.74269 3.96238C10.1439 4.17749 10.4723 4.45366 10.7282 4.79087V3.86645H13.3706V12.4217ZM8.92292 6.1775C8.64967 6.1775 8.39967 6.22691 8.17292 6.32575C7.95199 6.42459 7.76013 6.56412 7.59734 6.74436C7.44036 6.91878 7.31827 7.12517 7.23106 7.36354C7.14385 7.60192 7.10025 7.86064 7.10025 8.13971C7.10025 8.41878 7.14385 8.6775 7.23106 8.91587C7.31827 9.15424 7.44036 9.36355 7.59734 9.54378C7.76013 9.7182 7.95199 9.85483 8.17292 9.95366C8.39967 10.0525 8.64967 10.1019 8.92292 10.1019C9.19037 10.1019 9.43455 10.0525 9.65548 9.95366C9.88223 9.85483 10.077 9.7182 10.2398 9.54378C10.4026 9.36936 10.5276 9.16297 10.6148 8.92459C10.7078 8.68622 10.7543 8.42459 10.7543 8.13971C10.7543 7.85482 10.7078 7.5932 10.6148 7.35482C10.5276 7.11645 10.4026 6.91006 10.2398 6.73564C10.077 6.56122 9.88223 6.42459 9.65548 6.32575C9.43455 6.22691 9.19037 6.1775 8.92292 6.1775Z" fill="white"/>
<path d="M20.6921 6.28215H17.7706V8.78506C17.7706 9.02924 17.7997 9.23564 17.8578 9.40425C17.9218 9.57285 18.009 9.70948 18.1194 9.81413C18.2299 9.91878 18.3578 9.99436 18.5032 10.0409C18.6485 10.0816 18.8084 10.1019 18.9828 10.1019C19.2386 10.1019 19.4944 10.0467 19.7503 9.93622C20.0119 9.81994 20.2503 9.69785 20.4654 9.56994L21.4072 11.6979C21.2038 11.8374 20.9974 11.9653 20.7881 12.0816C20.5788 12.1979 20.352 12.2996 20.1078 12.3868C19.8636 12.4682 19.5991 12.5322 19.3142 12.5787C19.0293 12.6252 18.7154 12.6484 18.3724 12.6484C17.7968 12.6484 17.2997 12.567 16.8811 12.4043C16.4625 12.2356 16.1165 12.0002 15.8433 11.6979C15.57 11.3897 15.3665 11.0205 15.2328 10.5903C15.1049 10.1542 15.041 9.66878 15.041 9.1339V6.28215V3.86645V1.37225H17.7706V3.86645H20.6921V6.28215Z" fill="#E0E7EE"/>
<path d="M26.0956 3.63098C26.7642 3.63098 27.3804 3.74435 27.9444 3.9711C28.5141 4.19784 29.0054 4.51179 29.4182 4.91296C29.8368 5.31412 30.1624 5.79087 30.3949 6.34319C30.6275 6.89552 30.7438 7.49436 30.7438 8.13971C30.7438 8.78506 30.6275 9.3839 30.3949 9.93622C30.1624 10.4885 29.8368 10.9653 29.4182 11.3665C29.0054 11.7676 28.5141 12.0816 27.9444 12.3083C27.3804 12.5351 26.7642 12.6484 26.0956 12.6484C25.427 12.6484 24.8078 12.5351 24.238 12.3083C23.674 12.0816 23.1857 11.7676 22.7729 11.3665C22.3601 10.9653 22.0374 10.4885 21.8049 9.93622C21.5723 9.3839 21.456 8.78506 21.456 8.13971C21.456 7.49436 21.5723 6.89552 21.8049 6.34319C22.0374 5.79087 22.3601 5.31412 22.7729 4.91296C23.1857 4.51179 23.674 4.19784 24.238 3.9711C24.8078 3.74435 25.427 3.63098 26.0956 3.63098ZM26.0956 6.1775C25.8281 6.1775 25.581 6.22691 25.3543 6.32575C25.1334 6.41878 24.9386 6.5525 24.77 6.72691C24.6072 6.90133 24.4793 7.11064 24.3863 7.35482C24.2932 7.5932 24.2467 7.85482 24.2467 8.13971C24.2467 8.43041 24.2932 8.69494 24.3863 8.93331C24.4793 9.17169 24.6072 9.37808 24.77 9.5525C24.9386 9.72692 25.1334 9.86355 25.3543 9.96239C25.581 10.0554 25.8281 10.1019 26.0956 10.1019C26.363 10.1019 26.6101 10.0554 26.8368 9.96239C27.0636 9.86355 27.2584 9.72692 27.4211 9.5525C27.5898 9.37808 27.7206 9.17169 27.8136 8.93331C27.9066 8.69494 27.9531 8.43041 27.9531 8.13971C27.9531 7.85482 27.9066 7.5932 27.8136 7.35482C27.7206 7.11064 27.5898 6.90133 27.4211 6.72691C27.2584 6.5525 27.0636 6.41878 26.8368 6.32575C26.6101 6.22691 26.363 6.1775 26.0956 6.1775Z" fill="#E0E7EE"/>
<path d="M36.8191 3.63098C37.0226 3.63098 37.2058 3.64551 37.3686 3.67458C37.5372 3.70365 37.6738 3.73272 37.7784 3.76179L37.5255 6.48273C37.3395 6.41878 37.1244 6.36645 36.8802 6.32575C36.6418 6.27924 36.4005 6.25598 36.1563 6.25598C35.668 6.25598 35.2842 6.38098 35.0052 6.63098C34.7319 6.87517 34.5953 7.26471 34.5953 7.79959V12.4217H31.8656V3.86645H34.4819V4.85191C34.7319 4.43331 35.0517 4.12517 35.4412 3.92749C35.8308 3.72982 36.2901 3.63098 36.8191 3.63098Z" fill="#E0E7EE"/>
<path d="M43.6242 3.63098C43.8277 3.63098 44.0108 3.64551 44.1736 3.67458C44.3422 3.70365 44.4788 3.73272 44.5835 3.76179L44.3306 6.48273C44.1445 6.41878 43.9294 6.36645 43.6852 6.32575C43.4469 6.27924 43.2056 6.25598 42.9614 6.25598C42.473 6.25598 42.0893 6.38098 41.8102 6.63098C41.537 6.87517 41.4004 7.26471 41.4004 7.79959V12.4217H38.6707V3.86645H41.287V4.85191C41.537 4.43331 41.8568 4.12517 42.2463 3.92749C42.6358 3.72982 43.0951 3.63098 43.6242 3.63098Z" fill="#E0E7EE"/>
<path d="M49.1875 3.63098C49.8212 3.63098 50.3997 3.74145 50.9229 3.96238C51.452 4.17749 51.9026 4.48563 52.2747 4.8868C52.6526 5.28215 52.9462 5.75598 53.1555 6.30831C53.3648 6.86064 53.4695 7.4711 53.4695 8.13971C53.4695 8.27924 53.4636 8.43331 53.452 8.60192C53.4462 8.76471 53.4346 8.89262 53.4171 8.98564H47.6177C47.734 9.45657 47.9491 9.8025 48.2631 10.0234C48.5828 10.2444 48.9782 10.3548 49.4491 10.3548C49.7689 10.3548 50.0915 10.2909 50.4171 10.163C50.7427 10.0351 51.0421 9.84901 51.3154 9.60483L53.077 11.2444C52.6293 11.692 52.0886 12.038 51.4549 12.2822C50.8212 12.5263 50.1061 12.6484 49.3096 12.6484C48.6352 12.6484 48.0218 12.5409 47.4695 12.3258C46.9171 12.1106 46.4433 11.8083 46.0479 11.4188C45.6526 11.0292 45.3444 10.5612 45.1235 10.0147C44.9084 9.4682 44.8008 8.86064 44.8008 8.19203C44.8008 7.51761 44.9055 6.90133 45.1148 6.34319C45.3299 5.78505 45.6293 5.3054 46.0131 4.90424C46.4026 4.50307 46.8648 4.19203 47.3997 3.9711C47.9404 3.74435 48.5363 3.63098 49.1875 3.63098ZM49.1962 5.95075C48.7718 5.95075 48.4288 6.06412 48.1671 6.29087C47.9113 6.5118 47.7311 6.83447 47.6264 7.25889H50.7398C50.6293 6.82866 50.4433 6.50308 50.1817 6.28215C49.9258 6.06122 49.5974 5.95075 49.1962 5.95075Z" fill="#E0E7EE"/>
</svg>
