<svg width="79" height="15" viewBox="0 0 79 15" fill="none" xmlns="http://www.w3.org/2000/svg">
<path d="M4.56352 2.72491C5.1194 2.72491 5.58645 2.82806 5.96467 3.03437C6.34863 3.24067 6.66668 3.50715 6.91883 3.8338V2.957H9.52342V10.5817C9.52342 11.2751 9.41453 11.894 9.19677 12.4384C8.979 12.9885 8.66955 13.4527 8.2684 13.8309C7.87298 14.2092 7.39161 14.4986 6.82427 14.6991C6.26267 14.8997 5.63802 15 4.95034 15C4.59504 15 4.24261 14.9771 3.89304 14.9312C3.54347 14.8854 3.20249 14.8166 2.87011 14.7249C2.54346 14.639 2.22828 14.5272 1.92455 14.3897C1.62656 14.2579 1.35149 14.1032 1.09934 13.9255L2.05349 11.7851C2.4661 12.0774 2.89303 12.2923 3.3343 12.4298C3.78129 12.5731 4.25693 12.6447 4.76123 12.6447C5.0363 12.6447 5.29992 12.6046 5.55206 12.5244C5.80994 12.4499 6.03631 12.3324 6.23115 12.1719C6.43172 12.0172 6.58932 11.8166 6.70393 11.5702C6.82427 11.3295 6.88444 11.0401 6.88444 10.702V10.1776C6.6323 10.4986 6.31711 10.7564 5.93888 10.9513C5.56639 11.1461 5.10794 11.2435 4.56352 11.2435C3.99619 11.2435 3.4747 11.1347 2.99905 10.9169C2.52341 10.6991 2.1108 10.3983 1.76123 10.0143C1.41166 9.63037 1.13945 9.18051 0.944608 8.66475C0.749765 8.14326 0.652344 7.58452 0.652344 6.98853C0.652344 6.39254 0.749765 5.83666 0.944608 5.3209C1.13945 4.79941 1.41166 4.34669 1.76123 3.96274C2.1108 3.57878 2.52341 3.27792 2.99905 3.06016C3.4747 2.83666 3.99619 2.72491 4.56352 2.72491ZM5.19963 5.18337C4.93602 5.18337 4.69533 5.22921 4.47756 5.3209C4.2598 5.41259 4.07355 5.53867 3.91882 5.69913C3.7641 5.85959 3.64375 6.05156 3.55779 6.27506C3.47183 6.49283 3.42885 6.73065 3.42885 6.98853C3.42885 7.24641 3.47183 7.48423 3.55779 7.702C3.64375 7.91976 3.7641 8.11174 3.91882 8.27793C4.07355 8.43839 4.2598 8.56446 4.47756 8.65615C4.69533 8.74784 4.93602 8.79369 5.19963 8.79369C5.45178 8.79369 5.68387 8.74784 5.8959 8.65615C6.10794 8.56446 6.28846 8.43839 6.43745 8.27793C6.59218 8.11747 6.70966 7.92836 6.78989 7.71059C6.87585 7.4871 6.91883 7.24641 6.91883 6.98853C6.91883 6.73065 6.87585 6.49283 6.78989 6.27506C6.70966 6.05156 6.59218 5.85959 6.43745 5.69913C6.28846 5.53867 6.10794 5.41259 5.8959 5.3209C5.68387 5.22921 5.45178 5.18337 5.19963 5.18337Z" fill="white"/>
<path d="M15.9465 2.72491C16.1471 2.72491 16.3276 2.73924 16.4881 2.76789C16.6542 2.79654 16.7889 2.8252 16.8921 2.85385L16.6428 5.5358C16.4594 5.47277 16.2474 5.42119 16.0067 5.38108C15.7717 5.33523 15.5339 5.31231 15.2932 5.31231C14.8118 5.31231 14.4336 5.43552 14.1585 5.68194C13.8892 5.92262 13.7545 6.30658 13.7545 6.8338V11.3897H11.064V2.957H13.6428V3.92835C13.8892 3.51574 14.2044 3.21202 14.5883 3.01718C14.9723 2.82233 15.425 2.72491 15.9465 2.72491Z" fill="white"/>
<path d="M26.0547 11.3897H23.4501V10.4785C23.1923 10.8109 22.8656 11.0831 22.4702 11.2951C22.0805 11.5072 21.5991 11.6132 21.0261 11.6132C20.4645 11.6132 19.943 11.4986 19.4616 11.2693C18.986 11.0401 18.5733 10.7249 18.2238 10.3238C17.8742 9.92263 17.5991 9.45271 17.3986 8.91403C17.2037 8.36962 17.1063 7.78509 17.1063 7.16045C17.1063 6.54154 17.2037 5.96274 17.3986 5.42406C17.5991 4.88537 17.8742 4.41546 18.2238 4.01431C18.5733 3.61316 18.986 3.29798 19.4616 3.06875C19.943 2.83953 20.4673 2.72491 21.0347 2.72491C21.602 2.72491 22.0834 2.83379 22.4788 3.05156C22.8742 3.26359 23.198 3.5358 23.4501 3.86818V2.957H26.0547V11.3897ZM21.6708 5.23494C21.4014 5.23494 21.155 5.28365 20.9315 5.38108C20.7138 5.4785 20.5246 5.61603 20.3642 5.79368C20.2095 5.9656 20.0891 6.16904 20.0032 6.404C19.9172 6.63896 19.8742 6.89397 19.8742 7.16904C19.8742 7.44412 19.9172 7.69913 20.0032 7.93409C20.0891 8.16904 20.2095 8.37535 20.3642 8.553C20.5246 8.72492 20.7138 8.85959 20.9315 8.95701C21.155 9.05443 21.4014 9.10314 21.6708 9.10314C21.9344 9.10314 22.1751 9.05443 22.3928 8.95701C22.6163 8.85959 22.8083 8.72492 22.9688 8.553C23.1292 8.38108 23.2524 8.17764 23.3384 7.94268C23.4301 7.70773 23.4759 7.44985 23.4759 7.16904C23.4759 6.88824 23.4301 6.63036 23.3384 6.3954C23.2524 6.16045 23.1292 5.95701 22.9688 5.78509C22.8083 5.61317 22.6163 5.4785 22.3928 5.38108C22.1751 5.28365 21.9344 5.23494 21.6708 5.23494Z" fill="white"/>
<path d="M32.6739 2.72491C33.0923 2.72491 33.4848 2.79654 33.8516 2.93981C34.2183 3.08308 34.5335 3.28938 34.7971 3.55872C35.0665 3.82806 35.2785 4.15758 35.4332 4.54726C35.588 4.93122 35.6653 5.36675 35.6653 5.85386V11.3897H32.9748V6.80801C32.9748 6.30371 32.8573 5.91976 32.6223 5.65615C32.3874 5.38681 32.0607 5.25214 31.6424 5.25214C31.4533 5.25214 31.2756 5.28365 31.1094 5.34669C30.949 5.40973 30.8057 5.50715 30.6796 5.63896C30.5536 5.77076 30.4533 5.93695 30.3788 6.13752C30.31 6.3381 30.2756 6.57592 30.2756 6.85099V11.3897H27.5851V2.957H30.1639V4.01431C30.4332 3.56732 30.7771 3.24067 31.1954 3.03437C31.6138 2.82806 32.1066 2.72491 32.6739 2.72491Z" fill="white"/>
<path d="M41.2729 2.72491C41.9319 2.72491 42.5394 2.83666 43.0952 3.06016C43.6568 3.28365 44.1411 3.59311 44.548 3.98852C44.9606 4.38394 45.2815 4.85385 45.5107 5.39827C45.7399 5.94268 45.8546 6.53294 45.8546 7.16904C45.8546 7.80515 45.7399 8.39541 45.5107 8.93982C45.2815 9.48423 44.9606 9.95415 44.548 10.3496C44.1411 10.745 43.6568 11.0544 43.0952 11.2779C42.5394 11.5014 41.9319 11.6132 41.2729 11.6132C40.6139 11.6132 40.0035 11.5014 39.4419 11.2779C38.8861 11.0544 38.4047 10.745 37.9978 10.3496C37.5909 9.95415 37.2729 9.48423 37.0436 8.93982C36.8144 8.39541 36.6998 7.80515 36.6998 7.16904C36.6998 6.53294 36.8144 5.94268 37.0436 5.39827C37.2729 4.85385 37.5909 4.38394 37.9978 3.98852C38.4047 3.59311 38.8861 3.28365 39.4419 3.06016C40.0035 2.83666 40.6139 2.72491 41.2729 2.72491ZM41.2729 5.23494C41.0093 5.23494 40.7657 5.28365 40.5422 5.38108C40.3245 5.47277 40.1325 5.60457 39.9663 5.77649C39.8058 5.94841 39.6798 6.15472 39.5881 6.3954C39.4964 6.63036 39.4505 6.88824 39.4505 7.16904C39.4505 7.45558 39.4964 7.71632 39.5881 7.95128C39.6798 8.18624 39.8058 8.38968 39.9663 8.5616C40.1325 8.73352 40.3245 8.86819 40.5422 8.96561C40.7657 9.0573 41.0093 9.10314 41.2729 9.10314C41.5365 9.10314 41.78 9.0573 42.0035 8.96561C42.227 8.86819 42.419 8.73352 42.5795 8.5616C42.7457 8.38968 42.8746 8.18624 42.9663 7.95128C43.058 7.71632 43.1038 7.45558 43.1038 7.16904C43.1038 6.88824 43.058 6.63036 42.9663 6.3954C42.8746 6.15472 42.7457 5.94841 42.5795 5.77649C42.419 5.60457 42.227 5.47277 42.0035 5.38108C41.78 5.28365 41.5365 5.23494 41.2729 5.23494Z" fill="white"/>
<path d="M49.6509 11.3897H46.9603V0H49.6509V11.3897Z" fill="white"/>
<path d="M53.8737 11.3897H51.1831V0H53.8737V11.3897Z" fill="white"/>
<path d="M59.2827 2.72491C59.9074 2.72491 60.4776 2.83379 60.9933 3.05156C61.5148 3.26359 61.9589 3.56732 62.3257 3.96274C62.6982 4.35242 62.9876 4.81947 63.1939 5.36388C63.4002 5.9083 63.5033 6.51002 63.5033 7.16904C63.5033 7.30658 63.4976 7.45844 63.4862 7.62463C63.4804 7.78509 63.469 7.91116 63.4518 8.00286H57.7354C57.85 8.46704 58.0621 8.80801 58.3715 9.02578C58.6867 9.24355 59.0764 9.35243 59.5406 9.35243C59.8558 9.35243 60.1738 9.28939 60.4947 9.16332C60.8157 9.03724 61.1108 8.85386 61.3801 8.61317L63.1165 10.2292C62.6753 10.6705 62.1423 11.0115 61.5177 11.2521C60.893 11.4928 60.1882 11.6132 59.4031 11.6132C58.7383 11.6132 58.1337 11.5072 57.5893 11.2951C57.0449 11.0831 56.5778 10.7851 56.1881 10.4011C55.7985 10.0172 55.4947 9.55587 55.277 9.01718C55.0649 8.4785 54.9589 7.87965 54.9589 7.22062C54.9589 6.55586 55.0621 5.94841 55.2684 5.39827C55.4804 4.84812 55.7755 4.37534 56.1538 3.97993C56.5377 3.58451 56.9933 3.27792 57.5205 3.06016C58.0535 2.83666 58.6409 2.72491 59.2827 2.72491ZM59.2913 5.01145C58.873 5.01145 58.5349 5.1232 58.277 5.34669C58.0248 5.56446 57.8472 5.88251 57.744 6.30085H60.8128C60.7039 5.87678 60.5205 5.55586 60.2627 5.3381C60.0105 5.12033 59.6867 5.01145 59.2913 5.01145Z" fill="white"/>
<path d="M69.4808 2.72491C69.6814 2.72491 69.8619 2.73924 70.0223 2.76789C70.1885 2.79654 70.3232 2.8252 70.4264 2.85385L70.1771 5.5358C69.9937 5.47277 69.7817 5.42119 69.541 5.38108C69.306 5.33523 69.0682 5.31231 68.8275 5.31231C68.3461 5.31231 67.9679 5.43552 67.6928 5.68194C67.4235 5.92262 67.2888 6.30658 67.2888 6.8338V11.3897H64.5983V2.957H67.1771V3.92835C67.4235 3.51574 67.7387 3.21202 68.1226 3.01718C68.5066 2.82233 68.9593 2.72491 69.4808 2.72491Z" fill="white"/>
<path d="M77.4818 5.553C77.2755 5.46704 77.0549 5.38394 76.8199 5.30371C76.5849 5.22348 76.3471 5.15471 76.1064 5.09741C75.8657 5.0401 75.6251 4.99426 75.3844 4.95987C75.1437 4.91976 74.9173 4.8997 74.7053 4.8997C74.35 4.8997 74.0978 4.94841 73.9488 5.04583C73.7998 5.13752 73.7253 5.26073 73.7253 5.41546C73.7253 5.50715 73.7569 5.58165 73.8199 5.63896C73.8829 5.69626 73.9746 5.74784 74.095 5.79368C74.2153 5.8338 74.3586 5.86818 74.5248 5.89684C74.691 5.92549 74.8772 5.95701 75.0835 5.99139L75.7024 6.08595C76.6079 6.22348 77.2927 6.50715 77.7569 6.93695C78.2268 7.36102 78.4617 7.93122 78.4617 8.64756C78.4617 9.11174 78.3729 9.52721 78.1953 9.89398C78.0233 10.255 77.7683 10.5645 77.4302 10.8223C77.0978 11.0745 76.6881 11.2665 76.201 11.3983C75.7196 11.5358 75.1723 11.6046 74.5591 11.6046C74.1981 11.6046 73.8371 11.5874 73.476 11.553C73.115 11.5186 72.7654 11.4642 72.4273 11.3897C72.095 11.3209 71.7769 11.2321 71.4732 11.1232C71.1752 11.0086 70.9058 10.8739 70.6652 10.7192L71.6021 8.63896C72.0262 8.89111 72.4789 9.08595 72.9603 9.22349C73.4474 9.36102 73.9861 9.42979 74.5763 9.42979C74.9947 9.42979 75.2955 9.38395 75.4789 9.29226C75.6623 9.20057 75.754 9.06303 75.754 8.87965C75.754 8.71919 75.6508 8.59885 75.4445 8.51862C75.2382 8.43266 74.8973 8.35243 74.4216 8.27793L73.9316 8.20916C72.9116 8.06016 72.1609 7.77076 71.6795 7.34096C71.1981 6.91116 70.9574 6.31517 70.9574 5.553C70.9574 5.106 71.0376 4.70772 71.1981 4.35815C71.3643 4.00858 71.6021 3.71345 71.9116 3.47276C72.2268 3.23208 72.6107 3.04869 73.0634 2.92262C73.5162 2.79654 74.0291 2.73351 74.6021 2.73351C74.946 2.73351 75.2612 2.74783 75.5477 2.77649C75.84 2.79941 76.1265 2.83953 76.4073 2.89683C76.6881 2.95414 76.9746 3.02864 77.2669 3.12033C77.5649 3.21202 77.8858 3.32377 78.2296 3.45557L77.4818 5.553Z" fill="white"/>
</svg>
