<svg width="47" height="9" viewBox="0 0 47 9" fill="none" xmlns="http://www.w3.org/2000/svg">
<path d="M4.64228 0C5.30959 0 5.92468 0.113153 6.48754 0.339458C7.05621 0.565764 7.54654 0.87911 7.95853 1.2795C8.37632 1.67988 8.70127 2.15571 8.93338 2.70696C9.16549 3.25822 9.28154 3.8559 9.28154 4.5C9.28154 5.1441 9.16549 5.74178 8.93338 6.29304C8.70127 6.84429 8.37632 7.32012 7.95853 7.7205C7.54654 8.12089 7.05621 8.43424 6.48754 8.66054C5.92468 8.88685 5.30959 9 4.64228 9C3.97497 9 3.35698 8.88685 2.78831 8.66054C2.22545 8.43424 1.73802 8.12089 1.32603 7.7205C0.91404 7.32012 0.59199 6.84429 0.359881 6.29304C0.127773 5.74178 0.0117188 5.1441 0.0117188 4.5C0.0117188 3.8559 0.127773 3.25822 0.359881 2.70696C0.59199 2.15571 0.91404 1.67988 1.32603 1.2795C1.73802 0.87911 2.22545 0.565764 2.78831 0.339458C3.35698 0.113153 3.97497 0 4.64228 0ZM4.64228 2.54159C4.37536 2.54159 4.12874 2.59091 3.90243 2.68955C3.68193 2.7824 3.48754 2.91586 3.31926 3.08994C3.15679 3.26402 3.02913 3.47292 2.93628 3.71663C2.84344 3.95455 2.79702 4.21567 2.79702 4.5C2.79702 4.79014 2.84344 5.05416 2.93628 5.29207C3.02913 5.52998 3.15679 5.73598 3.31926 5.91006C3.48754 6.08414 3.68193 6.2205 3.90243 6.31915C4.12874 6.41199 4.37536 6.45841 4.64228 6.45841C4.9092 6.45841 5.15582 6.41199 5.38212 6.31915C5.60843 6.2205 5.80282 6.08414 5.9653 5.91006C6.13358 5.73598 6.26414 5.52998 6.35698 5.29207C6.44982 5.05416 6.49624 4.79014 6.49624 4.5C6.49624 4.21567 6.44982 3.95455 6.35698 3.71663C6.26414 3.47292 6.13358 3.26402 5.9653 3.08994C5.80282 2.91586 5.60843 2.7824 5.38212 2.68955C5.15582 2.59091 4.9092 2.54159 4.64228 2.54159Z" fill="white"/>
<path d="M16.7058 2.86364C16.4969 2.7766 16.2735 2.69246 16.0356 2.61122C15.7977 2.52998 15.5569 2.46035 15.3132 2.40232C15.0695 2.34429 14.8258 2.29787 14.582 2.26306C14.3383 2.22244 14.1091 2.20213 13.8944 2.20213C13.5347 2.20213 13.2793 2.25145 13.1285 2.3501C12.9776 2.44294 12.9022 2.5677 12.9022 2.72437C12.9022 2.81721 12.9341 2.89265 12.9979 2.95068C13.0617 3.0087 13.1546 3.06093 13.2764 3.10735C13.3983 3.14797 13.5434 3.18278 13.7116 3.2118C13.8799 3.24081 14.0685 3.27273 14.2774 3.30754L14.9041 3.40329C15.8209 3.54255 16.5143 3.82979 16.9844 4.26499C17.4602 4.69439 17.6981 5.27176 17.6981 5.9971C17.6981 6.46712 17.6082 6.88781 17.4283 7.25919C17.2542 7.62476 16.996 7.9381 16.6536 8.19923C16.3171 8.45455 15.9022 8.64894 15.4089 8.7824C14.9215 8.92166 14.3673 8.9913 13.7465 8.9913C13.3809 8.9913 13.0153 8.97389 12.6497 8.93907C12.2842 8.90426 11.9302 8.84913 11.5878 8.77369C11.2513 8.70406 10.9292 8.61412 10.6217 8.50387C10.32 8.38781 10.0472 8.25145 9.80352 8.09478L10.7523 5.98839C11.1817 6.24371 11.6401 6.44101 12.1275 6.58027C12.6207 6.71954 13.1662 6.78917 13.7639 6.78917C14.1875 6.78917 14.4921 6.74275 14.6778 6.6499C14.8635 6.55706 14.9563 6.41779 14.9563 6.23211C14.9563 6.06963 14.8519 5.94778 14.643 5.86654C14.4341 5.7795 14.0888 5.69826 13.6072 5.62282L13.1111 5.55319C12.0782 5.40232 11.318 5.10928 10.8306 4.67408C10.3432 4.23888 10.0995 3.6354 10.0995 2.86364C10.0995 2.41102 10.1807 2.00774 10.3432 1.65377C10.5114 1.29981 10.7523 1.00097 11.0656 0.757253C11.3848 0.513539 11.7735 0.327853 12.2319 0.200193C12.6904 0.0725333 13.2097 0.00870343 13.79 0.00870343C14.1381 0.00870343 14.4573 0.0232102 14.7474 0.0522237C15.0434 0.0754349 15.3335 0.116054 15.6178 0.174081C15.9022 0.232108 16.1923 0.307543 16.4882 0.400386C16.79 0.49323 17.1149 0.606383 17.4631 0.739845L16.7058 2.86364Z" fill="white"/>
<path d="M22.9011 0C23.5684 0 24.1835 0.113153 24.7464 0.339458C25.315 0.565764 25.8053 0.87911 26.2173 1.2795C26.6351 1.67988 26.9601 2.15571 27.1922 2.70696C27.4243 3.25822 27.5404 3.8559 27.5404 4.5C27.5404 5.1441 27.4243 5.74178 27.1922 6.29304C26.9601 6.84429 26.6351 7.32012 26.2173 7.7205C25.8053 8.12089 25.315 8.43424 24.7464 8.66054C24.1835 8.88685 23.5684 9 22.9011 9C22.2338 9 21.6158 8.88685 21.0471 8.66054C20.4843 8.43424 19.9968 8.12089 19.5848 7.7205C19.1728 7.32012 18.8508 6.84429 18.6187 6.29304C18.3866 5.74178 18.2705 5.1441 18.2705 4.5C18.2705 3.8559 18.3866 3.25822 18.6187 2.70696C18.8508 2.15571 19.1728 1.67988 19.5848 1.2795C19.9968 0.87911 20.4843 0.565764 21.0471 0.339458C21.6158 0.113153 22.2338 0 22.9011 0ZM22.9011 2.54159C22.6342 2.54159 22.3875 2.59091 22.1612 2.68955C21.9407 2.7824 21.7464 2.91586 21.5781 3.08994C21.4156 3.26402 21.2879 3.47292 21.1951 3.71663C21.1023 3.95455 21.0558 4.21567 21.0558 4.5C21.0558 4.79014 21.1023 5.05416 21.1951 5.29207C21.2879 5.52998 21.4156 5.73598 21.5781 5.91006C21.7464 6.08414 21.9407 6.2205 22.1612 6.31915C22.3875 6.41199 22.6342 6.45841 22.9011 6.45841C23.168 6.45841 23.4146 6.41199 23.6409 6.31915C23.8672 6.2205 24.0616 6.08414 24.2241 5.91006C24.3924 5.73598 24.5229 5.52998 24.6158 5.29207C24.7086 5.05416 24.7551 4.79014 24.7551 4.5C24.7551 4.21567 24.7086 3.95455 24.6158 3.71663C24.5229 3.47292 24.3924 3.26402 24.2241 3.08994C24.0616 2.91586 23.8672 2.7824 23.6409 2.68955C23.4146 2.59091 23.168 2.54159 22.9011 2.54159Z" fill="white"/>
<path d="M33.8129 0C34.2364 0 34.6339 0.0725338 35.0053 0.217601C35.3767 0.362669 35.6958 0.571566 35.9628 0.844293C36.2355 1.11702 36.4502 1.45068 36.6069 1.84526C36.7635 2.23404 36.8419 2.67505 36.8419 3.16828V8.77369H34.1175V4.13443C34.1175 3.62379 33.9985 3.23501 33.7606 2.96808C33.5227 2.69536 33.192 2.55899 32.7684 2.55899C32.5769 2.55899 32.397 2.59091 32.2287 2.65474C32.0662 2.71857 31.9212 2.81721 31.7935 2.95068C31.6659 3.08414 31.5643 3.25242 31.4889 3.45551C31.4192 3.65861 31.3844 3.89942 31.3844 4.17795V8.77369H28.66V0.235009H31.2713V1.30561C31.544 0.852998 31.8922 0.522243 32.3158 0.313346C32.7394 0.104449 33.2384 0 33.8129 0Z" fill="white"/>
<path d="M46.9503 8.77369H44.3129V7.85106C44.0518 8.18762 43.7211 8.46325 43.3207 8.67795C42.9261 8.89265 42.4387 9 41.8584 9C41.2897 9 40.7617 8.88395 40.2743 8.65184C39.7926 8.41973 39.3748 8.10058 39.0209 7.69439C38.6669 7.2882 38.3884 6.81238 38.1853 6.26692C37.988 5.71567 37.8893 5.12379 37.8893 4.4913C37.8893 3.8646 37.988 3.27853 38.1853 2.73308C38.3884 2.18762 38.6669 1.7118 39.0209 1.30561C39.3748 0.89942 39.7926 0.580271 40.2743 0.348162C40.7617 0.116054 41.2926 0 41.8671 0C42.4416 0 42.929 0.110251 43.3294 0.330754C43.7298 0.545454 44.0576 0.821083 44.3129 1.15764V0.235009H46.9503V8.77369ZM42.5112 2.54159C42.2385 2.54159 41.989 2.59091 41.7627 2.68955C41.5422 2.7882 41.3507 2.92747 41.1882 3.10735C41.0315 3.28143 40.9097 3.48743 40.8226 3.72534C40.7356 3.96325 40.6921 4.22147 40.6921 4.5C40.6921 4.77853 40.7356 5.03675 40.8226 5.27466C40.9097 5.51257 41.0315 5.72147 41.1882 5.90135C41.3507 6.07544 41.5422 6.2118 41.7627 6.31044C41.989 6.40909 42.2385 6.45841 42.5112 6.45841C42.7781 6.45841 43.0218 6.40909 43.2423 6.31044C43.4687 6.2118 43.663 6.07544 43.8255 5.90135C43.988 5.72727 44.1128 5.52128 44.1998 5.28337C44.2926 5.04545 44.3391 4.78433 44.3391 4.5C44.3391 4.21567 44.2926 3.95455 44.1998 3.71663C44.1128 3.47872 43.988 3.27273 43.8255 3.09865C43.663 2.92456 43.4687 2.7882 43.2423 2.68955C43.0218 2.59091 42.7781 2.54159 42.5112 2.54159Z" fill="white"/>
</svg>
