<svg width="60" height="15" viewBox="0 0 60 15" fill="none" xmlns="http://www.w3.org/2000/svg">
<path d="M6.06257 2.85158C6.27246 2.85158 6.46137 2.86657 6.62928 2.89655C6.8032 2.92654 6.94412 2.95652 7.05207 2.98651L6.7912 5.7931C6.5993 5.72714 6.37741 5.67316 6.12553 5.63118C5.87966 5.58321 5.63078 5.55922 5.37891 5.55922C4.87516 5.55922 4.47936 5.68816 4.1915 5.94603C3.90964 6.1979 3.76871 6.5997 3.76871 7.15142V11.919H0.953125V3.09445H3.65177V4.11095C3.90964 3.67916 4.23948 3.36132 4.64128 3.15742C5.04308 2.95352 5.51684 2.85158 6.06257 2.85158Z" fill="white"/>
<path d="M10.788 11.919H7.97242V3.09445H10.788V11.919Z" fill="white"/>
<path d="M17.6358 2.85158C18.2235 2.85158 18.7693 2.97152 19.273 3.2114C19.7768 3.45128 20.2115 3.78111 20.5774 4.2009C20.9432 4.62069 21.228 5.11244 21.4319 5.67616C21.6418 6.23988 21.7468 6.84558 21.7468 7.49325C21.7468 8.14692 21.6418 8.75862 21.4319 9.32833C21.228 9.89205 20.9432 10.3838 20.5774 10.8036C20.2115 11.2234 19.7768 11.5532 19.273 11.7931C18.7693 12.033 18.2235 12.1529 17.6358 12.1529C17.0661 12.1529 16.5834 12.054 16.1876 11.8561C15.7978 11.6582 15.4679 11.4003 15.1981 11.0825V15H12.3915V3.09445H15.1081V4.04798C15.378 3.70015 15.7168 3.41529 16.1246 3.1934C16.5324 2.96552 17.0361 2.85158 17.6358 2.85158ZM16.9612 5.47826C16.6853 5.47826 16.4304 5.52923 16.1966 5.63118C15.9687 5.73313 15.7708 5.87406 15.6029 6.05397C15.4409 6.23388 15.312 6.44677 15.216 6.69265C15.1261 6.93853 15.0811 7.20839 15.0811 7.50225C15.0811 7.7961 15.1261 8.06596 15.216 8.31184C15.312 8.55772 15.4409 8.77061 15.6029 8.95052C15.7708 9.13043 15.9687 9.27136 16.1966 9.37331C16.4304 9.47526 16.6853 9.52623 16.9612 9.52623C17.243 9.52623 17.5009 9.47526 17.7348 9.37331C17.9687 9.27136 18.1666 9.13043 18.3285 8.95052C18.4964 8.76461 18.6253 8.54872 18.7153 8.30285C18.8052 8.05697 18.8502 7.7901 18.8502 7.50225C18.8502 7.21439 18.8052 6.94752 18.7153 6.70165C18.6253 6.45577 18.4964 6.24288 18.3285 6.06297C18.1666 5.87706 17.9687 5.73313 17.7348 5.63118C17.5009 5.52923 17.243 5.47826 16.9612 5.47826Z" fill="white"/>
<path d="M27.2073 2.85158C27.897 2.85158 28.5327 2.96852 29.1144 3.2024C29.7021 3.43628 30.2088 3.76012 30.6346 4.17391C31.0664 4.58771 31.4022 5.07946 31.6421 5.64917C31.882 6.21889 32.0019 6.83658 32.0019 7.50225C32.0019 8.16791 31.882 8.7856 31.6421 9.35532C31.4022 9.92503 31.0664 10.4168 30.6346 10.8306C30.2088 11.2444 29.7021 11.5682 29.1144 11.8021C28.5327 12.036 27.897 12.1529 27.2073 12.1529C26.5177 12.1529 25.879 12.036 25.2913 11.8021C24.7096 11.5682 24.2058 11.2444 23.78 10.8306C23.3542 10.4168 23.0214 9.92503 22.7815 9.35532C22.5417 8.7856 22.4217 8.16791 22.4217 7.50225C22.4217 6.83658 22.5417 6.21889 22.7815 5.64917C23.0214 5.07946 23.3542 4.58771 23.78 4.17391C24.2058 3.76012 24.7096 3.43628 25.2913 3.2024C25.879 2.96852 26.5177 2.85158 27.2073 2.85158ZM27.2073 5.47826C26.9315 5.47826 26.6766 5.52923 26.4427 5.63118C26.2148 5.72714 26.0139 5.86507 25.84 6.04498C25.6721 6.22489 25.5402 6.44078 25.4442 6.69265C25.3483 6.93853 25.3003 7.20839 25.3003 7.50225C25.3003 7.8021 25.3483 8.07496 25.4442 8.32084C25.5402 8.56671 25.6721 8.77961 25.84 8.95952C26.0139 9.13943 26.2148 9.28036 26.4427 9.3823C26.6766 9.47826 26.9315 9.52623 27.2073 9.52623C27.4832 9.52623 27.7381 9.47826 27.9719 9.3823C28.2058 9.28036 28.4067 9.13943 28.5746 8.95952C28.7485 8.77961 28.8835 8.56671 28.9794 8.32084C29.0754 8.07496 29.1234 7.8021 29.1234 7.50225C29.1234 7.20839 29.0754 6.93853 28.9794 6.69265C28.8835 6.44078 28.7485 6.22489 28.5746 6.04498C28.4067 5.86507 28.2058 5.72714 27.9719 5.63118C27.7381 5.52923 27.4832 5.47826 27.2073 5.47826Z" fill="white"/>
<path d="M35.9747 11.919H33.1591V0H35.9747V11.919Z" fill="white"/>
<path d="M40.3937 11.919H37.5781V0H40.3937V11.919Z" fill="white"/>
<path d="M46.0541 2.85158C46.7078 2.85158 47.3045 2.96552 47.8442 3.1934C48.39 3.41529 48.8547 3.73313 49.2385 4.14693C49.6284 4.55472 49.9312 5.04348 50.1471 5.61319C50.363 6.18291 50.4709 6.81259 50.4709 7.50225C50.4709 7.64617 50.4649 7.80509 50.4529 7.97901C50.4469 8.14692 50.435 8.27886 50.417 8.37481H44.435C44.5549 8.86057 44.7768 9.21739 45.1006 9.44527C45.4305 9.67316 45.8383 9.7871 46.324 9.7871C46.6538 9.7871 46.9867 9.72114 47.3225 9.5892C47.6583 9.45727 47.9672 9.26536 48.249 9.01349L50.0661 10.7046C49.6044 11.1664 49.0466 11.5232 48.393 11.7751C47.7393 12.027 47.0017 12.1529 46.1801 12.1529C45.4844 12.1529 44.8517 12.042 44.282 11.8201C43.7123 11.5982 43.2236 11.2864 42.8158 10.8846C42.408 10.4828 42.0901 10 41.8622 9.43628C41.6404 8.87256 41.5294 8.24587 41.5294 7.55622C41.5294 6.86057 41.6374 6.22489 41.8532 5.64917C42.0751 5.07346 42.384 4.57871 42.7798 4.16492C43.1816 3.75113 43.6583 3.43029 44.2101 3.2024C44.7678 2.96852 45.3825 2.85158 46.0541 2.85158ZM46.0631 5.24438C45.6254 5.24438 45.2715 5.36132 45.0017 5.5952C44.7378 5.82309 44.5519 6.15592 44.444 6.5937H47.6553C47.5414 6.14992 47.3495 5.81409 47.0796 5.58621C46.8158 5.35832 46.4769 5.24438 46.0631 5.24438ZM43.0946 0H46.324L47.8712 1.97901H45.2356L43.0946 0Z" fill="white"/>
<path d="M58.1324 5.81109C57.9165 5.72114 57.6857 5.63418 57.4398 5.55022C57.1939 5.46627 56.945 5.3943 56.6931 5.33433C56.4413 5.27436 56.1894 5.22639 55.9375 5.1904C55.6857 5.14843 55.4488 5.12744 55.2269 5.12744C54.8551 5.12744 54.5912 5.17841 54.4353 5.28036C54.2794 5.37631 54.2014 5.50525 54.2014 5.66717C54.2014 5.76312 54.2344 5.84108 54.3003 5.90105C54.3663 5.96102 54.4623 6.01499 54.5882 6.06297C54.7141 6.10495 54.8641 6.14093 55.038 6.17091C55.2119 6.2009 55.4068 6.23388 55.6227 6.26986L56.2704 6.36881C57.2179 6.51274 57.9345 6.80959 58.4203 7.25937C58.912 7.70315 59.1579 8.29985 59.1579 9.04947C59.1579 9.53523 59.065 9.97001 58.8791 10.3538C58.6991 10.7316 58.4323 11.0555 58.0785 11.3253C57.7306 11.5892 57.3018 11.7901 56.7921 11.928C56.2883 12.072 55.7156 12.1439 55.074 12.1439C54.6961 12.1439 54.3183 12.1259 53.9405 12.0899C53.5627 12.054 53.1969 11.997 52.8431 11.919C52.4952 11.8471 52.1624 11.7541 51.8446 11.6402C51.5327 11.5202 51.2509 11.3793 50.999 11.2174L51.9795 9.04048C52.4233 9.30434 52.897 9.50824 53.4008 9.65217C53.9105 9.7961 54.4743 9.86806 55.0919 9.86806C55.5297 9.86806 55.8446 9.82009 56.0365 9.72413C56.2284 9.62818 56.3243 9.48425 56.3243 9.29235C56.3243 9.12443 56.2164 8.9985 56.0005 8.91454C55.7846 8.82458 55.4278 8.74063 54.93 8.66267L54.4173 8.5907C53.3498 8.43478 52.5642 8.13193 52.0605 7.68216C51.5567 7.23238 51.3048 6.60869 51.3048 5.81109C51.3048 5.34333 51.3888 4.92654 51.5567 4.56072C51.7306 4.1949 51.9795 3.88606 52.3033 3.63418C52.6332 3.38231 53.035 3.19041 53.5087 3.05847C53.9825 2.92654 54.5192 2.86057 55.1189 2.86057C55.4788 2.86057 55.8086 2.87556 56.1084 2.90555C56.4143 2.92954 56.7141 2.97152 57.008 3.03149C57.3018 3.09146 57.6017 3.16942 57.9075 3.26537C58.2194 3.36132 58.5552 3.47826 58.915 3.61619L58.1324 5.81109Z" fill="white"/>
</svg>
