<svg width="71" height="15" viewBox="0 0 71 15" fill="none" xmlns="http://www.w3.org/2000/svg">
<path d="M4.26049 2.30291C4.83547 2.30291 5.31858 2.4096 5.70981 2.623C6.10696 2.8364 6.43595 3.11203 6.69676 3.44991V2.54298H9.3909V10.4298C9.3909 11.147 9.27827 11.7872 9.05302 12.3503C8.82777 12.9194 8.50767 13.3995 8.09273 13.7908C7.68372 14.182 7.1858 14.4813 6.59896 14.6888C6.01804 14.8963 5.37193 15 4.66061 15C4.29309 15 3.92854 14.9763 3.56695 14.9289C3.20536 14.8814 2.85266 14.8103 2.50886 14.7155C2.17098 14.6266 1.84496 14.511 1.53079 14.3687C1.22255 14.2324 0.938021 14.0723 0.677203 13.8886L1.66416 11.6746C2.09096 11.9769 2.53257 12.1992 2.989 12.3414C3.45136 12.4896 3.94336 12.5637 4.46499 12.5637C4.74952 12.5637 5.02219 12.5222 5.28301 12.4392C5.54976 12.3622 5.7839 12.2407 5.98544 12.0747C6.19291 11.9146 6.35592 11.7072 6.47448 11.4523C6.59896 11.2033 6.6612 10.904 6.6612 10.5542V10.0119C6.40038 10.3438 6.07436 10.6106 5.68313 10.8121C5.29783 11.0136 4.82362 11.1144 4.26049 11.1144C3.67365 11.1144 3.13423 11.0018 2.64223 10.7765C2.15023 10.5513 1.72344 10.2401 1.36185 9.84292C1.00026 9.44576 0.718697 8.98044 0.517156 8.44695C0.315614 7.90753 0.214844 7.32958 0.214844 6.7131C0.214844 6.09662 0.315614 5.52164 0.517156 4.98814C0.718697 4.44873 1.00026 3.98044 1.36185 3.58328C1.72344 3.18613 2.15023 2.87493 2.64223 2.64967C3.13423 2.41849 3.67365 2.30291 4.26049 2.30291ZM4.91846 4.84588C4.64579 4.84588 4.39682 4.8933 4.17157 4.98814C3.94632 5.08299 3.75367 5.2134 3.59362 5.37937C3.43358 5.54535 3.30909 5.74392 3.22018 5.9751C3.13126 6.20036 3.08681 6.44635 3.08681 6.7131C3.08681 6.97985 3.13126 7.22585 3.22018 7.4511C3.30909 7.67635 3.43358 7.87493 3.59362 8.04683C3.75367 8.2128 3.94632 8.34321 4.17157 8.43806C4.39682 8.5329 4.64579 8.58032 4.91846 8.58032C5.17928 8.58032 5.41935 8.5329 5.63867 8.43806C5.858 8.34321 6.04472 8.2128 6.19884 8.04683C6.35889 7.88085 6.4804 7.68524 6.56339 7.45999C6.65231 7.22881 6.69676 6.97985 6.69676 6.7131C6.69676 6.44635 6.65231 6.20036 6.56339 5.9751C6.4804 5.74392 6.35889 5.54535 6.19884 5.37937C6.04472 5.2134 5.858 5.08299 5.63867 4.98814C5.41935 4.8933 5.17928 4.84588 4.91846 4.84588Z" fill="white"/>
<path d="M19.7781 11.2656H17.084V10.3231C16.8173 10.6669 16.4794 10.9484 16.0704 11.1678C15.6673 11.3871 15.1694 11.4967 14.5766 11.4967C13.9957 11.4967 13.4563 11.3782 12.9583 11.1411C12.4663 10.904 12.0396 10.5779 11.678 10.163C11.3164 9.74807 11.0318 9.262 10.8244 8.7048C10.6228 8.14167 10.5221 7.53705 10.5221 6.89093C10.5221 6.25074 10.6228 5.65204 10.8244 5.09484C11.0318 4.53764 11.3164 4.05157 11.678 3.63663C12.0396 3.2217 12.4663 2.89567 12.9583 2.65857C13.4563 2.42146 13.9986 2.30291 14.5855 2.30291C15.1723 2.30291 15.6703 2.41553 16.0793 2.64078C16.4883 2.86011 16.8232 3.14167 17.084 3.48548V2.54298H19.7781V11.2656ZM15.2435 4.89923C14.9649 4.89923 14.71 4.94962 14.4788 5.05039C14.2535 5.15116 14.0579 5.29342 13.892 5.47718C13.7319 5.65501 13.6074 5.86544 13.5185 6.10848C13.4296 6.35151 13.3851 6.61529 13.3851 6.89982C13.3851 7.18435 13.4296 7.44813 13.5185 7.69117C13.6074 7.9342 13.7319 8.1476 13.892 8.33136C14.0579 8.50919 14.2535 8.64849 14.4788 8.74926C14.71 8.85003 14.9649 8.90042 15.2435 8.90042C15.5161 8.90042 15.7651 8.85003 15.9904 8.74926C16.2215 8.64849 16.4201 8.50919 16.5861 8.33136C16.7521 8.15353 16.8795 7.94309 16.9684 7.70006C17.0633 7.45702 17.1107 7.19028 17.1107 6.89982C17.1107 6.60937 17.0633 6.34262 16.9684 6.09959C16.8795 5.85655 16.7521 5.64612 16.5861 5.46829C16.4201 5.29046 16.2215 5.15116 15.9904 5.05039C15.7651 4.94962 15.5161 4.89923 15.2435 4.89923Z" fill="white"/>
<path d="M26.4115 2.30291C26.619 2.30291 26.8057 2.31772 26.9717 2.34736C27.1436 2.377 27.2829 2.40664 27.3896 2.43628L27.1317 5.21043C26.942 5.14523 26.7227 5.09188 26.4737 5.05039C26.2307 5.00296 25.9847 4.97925 25.7357 4.97925C25.2378 4.97925 24.8466 5.1067 24.5621 5.36159C24.2835 5.61055 24.1442 6.00771 24.1442 6.55305V11.2656H21.3611V2.54298H24.0286V3.54772C24.2835 3.12092 24.6095 2.80676 25.0066 2.60522C25.4038 2.40368 25.8721 2.30291 26.4115 2.30291Z" fill="white"/>
<path d="M33.3497 2.30291C33.5571 2.30291 33.7439 2.31772 33.9098 2.34736C34.0817 2.377 34.221 2.40664 34.3277 2.43628L34.0699 5.21043C33.8802 5.14523 33.6609 5.09188 33.4119 5.05039C33.1689 5.00296 32.9229 4.97925 32.6739 4.97925C32.176 4.97925 31.7847 5.1067 31.5002 5.36159C31.2216 5.61055 31.0823 6.00771 31.0823 6.55305V11.2656H28.2993V2.54298H30.9667V3.54772C31.2216 3.12092 31.5476 2.80676 31.9448 2.60522C32.342 2.40368 32.8102 2.30291 33.3497 2.30291Z" fill="white"/>
<path d="M39.2796 2.30291C39.9613 2.30291 40.5896 2.41849 41.1646 2.64967C41.7455 2.88085 42.2464 3.20095 42.6673 3.60996C43.0941 4.01897 43.426 4.50504 43.6631 5.06817C43.9002 5.6313 44.0188 6.24185 44.0188 6.89982C44.0188 7.55779 43.9002 8.16835 43.6631 8.73148C43.426 9.29461 43.0941 9.78068 42.6673 10.1897C42.2464 10.5987 41.7455 10.9188 41.1646 11.15C40.5896 11.3811 39.9613 11.4967 39.2796 11.4967C38.5979 11.4967 37.9666 11.3811 37.3857 11.15C36.8107 10.9188 36.3128 10.5987 35.8919 10.1897C35.4711 9.78068 35.1421 9.29461 34.905 8.73148C34.6679 8.16835 34.5493 7.55779 34.5493 6.89982C34.5493 6.24185 34.6679 5.6313 34.905 5.06817C35.1421 4.50504 35.4711 4.01897 35.8919 3.60996C36.3128 3.20095 36.8107 2.88085 37.3857 2.64967C37.9666 2.41849 38.5979 2.30291 39.2796 2.30291ZM39.2796 4.89923C39.0069 4.89923 38.755 4.94962 38.5238 5.05039C38.2986 5.14523 38.1 5.28157 37.9281 5.4594C37.7621 5.63723 37.6317 5.85062 37.5369 6.09959C37.442 6.34262 37.3946 6.60937 37.3946 6.89982C37.3946 7.19621 37.442 7.46592 37.5369 7.70895C37.6317 7.95199 37.7621 8.16242 37.9281 8.34025C38.1 8.51808 38.2986 8.65738 38.5238 8.75815C38.755 8.85299 39.0069 8.90042 39.2796 8.90042C39.5523 8.90042 39.8042 8.85299 40.0354 8.75815C40.2666 8.65738 40.4651 8.51808 40.6311 8.34025C40.803 8.16242 40.9364 7.95199 41.0312 7.70895C41.1261 7.46592 41.1735 7.19621 41.1735 6.89982C41.1735 6.60937 41.1261 6.34262 41.0312 6.09959C40.9364 5.85062 40.803 5.63723 40.6311 5.4594C40.4651 5.28157 40.2666 5.14523 40.0354 5.05039C39.8042 4.94962 39.5523 4.89923 39.2796 4.89923Z" fill="white"/>
<path d="M51.3354 5.00593H48.3567V7.5578C48.3567 7.80676 48.3864 8.01719 48.4456 8.18909C48.5108 8.361 48.5998 8.5003 48.7124 8.60699C48.825 8.71369 48.9554 8.79075 49.1036 8.83817C49.2518 8.87967 49.4148 8.90042 49.5926 8.90042C49.8535 8.90042 50.1143 8.8441 50.3751 8.73148C50.6418 8.61292 50.8849 8.48844 51.1042 8.35803L52.0645 10.5276C51.857 10.6698 51.6466 10.8002 51.4332 10.9188C51.2198 11.0373 50.9886 11.1411 50.7396 11.23C50.4907 11.313 50.221 11.3782 49.9305 11.4256C49.6401 11.473 49.32 11.4967 48.9702 11.4967C48.3834 11.4967 47.8766 11.4138 47.4498 11.2478C47.023 11.0759 46.6703 10.8358 46.3917 10.5276C46.1131 10.2134 45.9056 9.83699 45.7693 9.39834C45.6389 8.95376 45.5737 8.4588 45.5737 7.91346V5.00593V5.09484V2.63189V2.54298V0H48.3567V2.54298H51.3354V5.00593Z" fill="white"/>
<path d="M58.7597 6.86426L61.8361 11.2656H58.5996L56.8835 8.75815L55.2208 11.2656H52.0199L55.123 6.86426L52.1177 2.54298H55.372L56.9902 5.02371L58.5907 2.54298H61.7917L58.7597 6.86426Z" fill="white"/>
<path d="M70.7571 11.2656H68.063V10.3231C67.7962 10.6669 67.4583 10.9484 67.0493 11.1678C66.6462 11.3871 66.1483 11.4967 65.5556 11.4967C64.9746 11.4967 64.4352 11.3782 63.9373 11.1411C63.4453 10.904 63.0185 10.5779 62.6569 10.163C62.2953 9.74807 62.0108 9.262 61.8033 8.7048C61.6018 8.14167 61.501 7.53705 61.501 6.89093C61.501 6.25074 61.6018 5.65204 61.8033 5.09484C62.0108 4.53764 62.2953 4.05157 62.6569 3.63663C63.0185 3.2217 63.4453 2.89567 63.9373 2.65857C64.4352 2.42146 64.9776 2.30291 65.5645 2.30291C66.1513 2.30291 66.6492 2.41553 67.0582 2.64078C67.4672 2.86011 67.8021 3.14167 68.063 3.48548V2.54298H70.7571V11.2656ZM66.2224 4.89923C65.9438 4.89923 65.6889 4.94962 65.4577 5.05039C65.2325 5.15116 65.0369 5.29342 64.8709 5.47718C64.7109 5.65501 64.5864 5.86544 64.4975 6.10848C64.4086 6.35151 64.3641 6.61529 64.3641 6.89982C64.3641 7.18435 64.4086 7.44813 64.4975 7.69117C64.5864 7.9342 64.7109 8.1476 64.8709 8.33136C65.0369 8.50919 65.2325 8.64849 65.4577 8.74926C65.6889 8.85003 65.9438 8.90042 66.2224 8.90042C66.4951 8.90042 66.7441 8.85003 66.9693 8.74926C67.2005 8.64849 67.3991 8.50919 67.565 8.33136C67.731 8.15353 67.8585 7.94309 67.9474 7.70006C68.0422 7.45702 68.0896 7.19028 68.0896 6.89982C68.0896 6.60937 68.0422 6.34262 67.9474 6.09959C67.8585 5.85655 67.731 5.64612 67.565 5.46829C67.3991 5.29046 67.2005 5.15116 66.9693 5.05039C66.7441 4.94962 66.4951 4.89923 66.2224 4.89923Z" fill="white"/>
</svg>
