<svg width="67" height="15" viewBox="0 0 67 15" fill="none" xmlns="http://www.w3.org/2000/svg">
<path d="M7.02117 5.85174C6.81187 5.76453 6.58803 5.68023 6.34966 5.59883C6.11129 5.51744 5.87001 5.44767 5.62582 5.38953C5.38164 5.33139 5.13745 5.28488 4.89326 5.25C4.64908 5.2093 4.41943 5.18895 4.20431 5.18895C3.84384 5.18895 3.58803 5.23837 3.43687 5.3372C3.2857 5.43023 3.21012 5.55523 3.21012 5.7122C3.21012 5.80523 3.2421 5.88081 3.30605 5.93895C3.37001 5.99709 3.46303 6.04941 3.58512 6.09593C3.70722 6.13662 3.85256 6.17151 4.02117 6.20058C4.18977 6.22965 4.37873 6.26162 4.58803 6.29651L5.21594 6.39244C6.13454 6.53197 6.82931 6.81976 7.30024 7.25581C7.77699 7.68604 8.01536 8.26453 8.01536 8.99128C8.01536 9.46221 7.92524 9.88372 7.74501 10.2558C7.57059 10.6221 7.31187 10.936 6.96885 11.1977C6.63164 11.4535 6.21594 11.6483 5.72175 11.782C5.23338 11.9215 4.67815 11.9913 4.05605 11.9913C3.68977 11.9913 3.32349 11.9738 2.95721 11.939C2.59094 11.9041 2.23628 11.8488 1.89326 11.7733C1.55605 11.7035 1.23338 11.6134 0.925237 11.5029C0.622911 11.3866 0.349655 11.25 0.105469 11.093L1.05605 8.98256C1.48628 9.23837 1.94559 9.43604 2.43396 9.57558C2.92815 9.71511 3.47466 9.78488 4.0735 9.78488C4.49791 9.78488 4.80315 9.73837 4.98919 9.64535C5.17524 9.55232 5.26826 9.41279 5.26826 9.22674C5.26826 9.06395 5.16361 8.94186 4.95431 8.86046C4.74501 8.77325 4.39908 8.69186 3.91652 8.61628L3.41942 8.54651C2.38454 8.39535 1.62291 8.10174 1.13454 7.66569C0.646167 7.22965 0.401981 6.625 0.401981 5.85174C0.401981 5.39825 0.483376 4.99418 0.646167 4.63953C0.814772 4.28488 1.05605 3.98546 1.37 3.74127C1.68977 3.49709 2.07931 3.31104 2.53861 3.18313C2.99791 3.05523 3.51826 2.99127 4.09966 2.99127C4.44849 2.99127 4.76826 3.00581 5.05896 3.03488C5.35547 3.05813 5.64617 3.09883 5.93105 3.15697C6.21594 3.21511 6.50664 3.29069 6.80315 3.38371C7.10547 3.47674 7.43105 3.59011 7.77989 3.72383L7.02117 5.85174Z" fill="white"/>
<path d="M17.6674 11.7733H15.0249V10.8488C14.7633 11.186 14.4319 11.4622 14.0308 11.6773C13.6354 11.8924 13.147 12 12.5656 12C11.9959 12 11.4668 11.8837 10.9784 11.6512C10.4959 11.4186 10.0773 11.0988 9.72262 10.6919C9.36797 10.2849 9.0889 9.80814 8.88541 9.26163C8.68773 8.7093 8.5889 8.11628 8.5889 7.48256C8.5889 6.85465 8.68773 6.26744 8.88541 5.72093C9.0889 5.17441 9.36797 4.69767 9.72262 4.29069C10.0773 3.88372 10.4959 3.56395 10.9784 3.33139C11.4668 3.09883 11.9988 2.98255 12.5744 2.98255C13.1499 2.98255 13.6383 3.09302 14.0395 3.31395C14.4406 3.52906 14.7691 3.80523 15.0249 4.14244V3.21802H17.6674V11.7733ZM13.2197 5.52907C12.9465 5.52907 12.6965 5.57848 12.4697 5.67732C12.2488 5.77616 12.0569 5.91569 11.8941 6.09593C11.7372 6.27034 11.6151 6.47674 11.5279 6.71511C11.4406 6.95349 11.397 7.21221 11.397 7.49128C11.397 7.77035 11.4406 8.02907 11.5279 8.26744C11.6151 8.50581 11.7372 8.71511 11.8941 8.89535C12.0569 9.06977 12.2488 9.20639 12.4697 9.30523C12.6965 9.40407 12.9465 9.45349 13.2197 9.45349C13.4872 9.45349 13.7313 9.40407 13.9523 9.30523C14.179 9.20639 14.3738 9.06977 14.5366 8.89535C14.6994 8.72093 14.8244 8.51453 14.9116 8.27616C15.0046 8.03779 15.0511 7.77616 15.0511 7.49128C15.0511 7.20639 15.0046 6.94476 14.9116 6.70639C14.8244 6.46802 14.6994 6.26162 14.5366 6.08721C14.3738 5.91279 14.179 5.77616 13.9523 5.67732C13.7313 5.57848 13.4872 5.52907 13.2197 5.52907Z" fill="white"/>
<path d="M24.3043 2.98255C24.8741 2.98255 25.4031 3.09883 25.8915 3.33139C26.3799 3.56395 26.8014 3.88372 27.156 4.29069C27.5107 4.69767 27.7869 5.17441 27.9845 5.72093C28.188 6.26744 28.2898 6.85465 28.2898 7.48256C28.2898 8.11628 28.188 8.7093 27.9845 9.26163C27.7869 9.80814 27.5107 10.2849 27.156 10.6919C26.8014 11.0988 26.3799 11.4186 25.8915 11.6512C25.4031 11.8837 24.8741 12 24.3043 12C23.7229 12 23.2345 11.8953 22.8392 11.686C22.4438 11.4709 22.1153 11.1948 21.8537 10.8576V11.7733H19.22V1.31382e-05H21.9409V4.03779C22.2025 3.72383 22.5223 3.47092 22.9002 3.27906C23.2839 3.08139 23.752 2.98255 24.3043 2.98255ZM23.6502 5.52907C23.3828 5.52907 23.1357 5.57848 22.9089 5.67732C22.688 5.77616 22.4962 5.91279 22.3334 6.08721C22.1764 6.26162 22.0514 6.46802 21.9584 6.70639C21.8712 6.94476 21.8275 7.20639 21.8275 7.49128C21.8275 7.77616 21.8712 8.03779 21.9584 8.27616C22.0514 8.51453 22.1764 8.72093 22.3334 8.89535C22.4962 9.06977 22.688 9.20639 22.9089 9.30523C23.1357 9.40407 23.3828 9.45349 23.6502 9.45349C23.9235 9.45349 24.1735 9.40407 24.4002 9.30523C24.627 9.20639 24.8188 9.06977 24.9758 8.89535C25.1386 8.71511 25.2636 8.50581 25.3508 8.26744C25.438 8.02907 25.4816 7.77035 25.4816 7.49128C25.4816 7.21221 25.438 6.95349 25.3508 6.71511C25.2636 6.47674 25.1386 6.27034 24.9758 6.09593C24.8188 5.91569 24.627 5.77616 24.4002 5.67732C24.1735 5.57848 23.9235 5.52907 23.6502 5.52907Z" fill="white"/>
<path d="M38.0226 11.7733H35.3802V10.8488C35.1185 11.186 34.7871 11.4622 34.386 11.6773C33.9906 11.8924 33.5022 12 32.9208 12C32.3511 12 31.822 11.8837 31.3336 11.6512C30.8511 11.4186 30.4325 11.0988 30.0778 10.6919C29.7232 10.2849 29.4441 9.80814 29.2406 9.26163C29.0429 8.7093 28.9441 8.11628 28.9441 7.48256C28.9441 6.85465 29.0429 6.26744 29.2406 5.72093C29.4441 5.17441 29.7232 4.69767 30.0778 4.29069C30.4325 3.88372 30.8511 3.56395 31.3336 3.33139C31.822 3.09883 32.354 2.98255 32.9296 2.98255C33.5052 2.98255 33.9935 3.09302 34.3947 3.31395C34.7958 3.52906 35.1243 3.80523 35.3802 4.14244V3.21802H38.0226V11.7733ZM33.5749 5.52907C33.3017 5.52907 33.0517 5.57848 32.8249 5.67732C32.604 5.77616 32.4121 5.91569 32.2493 6.09593C32.0924 6.27034 31.9703 6.47674 31.8831 6.71511C31.7959 6.95349 31.7522 7.21221 31.7522 7.49128C31.7522 7.77035 31.7959 8.02907 31.8831 8.26744C31.9703 8.50581 32.0924 8.71511 32.2493 8.89535C32.4121 9.06977 32.604 9.20639 32.8249 9.30523C33.0517 9.40407 33.3017 9.45349 33.5749 9.45349C33.8424 9.45349 34.0865 9.40407 34.3075 9.30523C34.5342 9.20639 34.729 9.06977 34.8918 8.89535C35.0546 8.72093 35.1796 8.51453 35.2668 8.27616C35.3598 8.03779 35.4063 7.77616 35.4063 7.49128C35.4063 7.20639 35.3598 6.94476 35.2668 6.70639C35.1796 6.46802 35.0546 6.26162 34.8918 6.08721C34.729 5.91279 34.5342 5.77616 34.3075 5.67732C34.0865 5.57848 33.8424 5.52907 33.5749 5.52907Z" fill="white"/>
<path d="M43.1072 2.98255C43.6537 2.98255 44.1188 3.08139 44.5025 3.27906C44.8862 3.47092 45.2089 3.72383 45.4706 4.03779V1.31382e-05H48.1915V11.7733H45.5578V10.8488C45.2961 11.186 44.9647 11.4622 44.5636 11.6773C44.1682 11.8924 43.6799 12 43.0985 12C42.5287 12 41.9996 11.8837 41.5112 11.6512C41.0287 11.4186 40.6101 11.0988 40.2554 10.6919C39.9008 10.2849 39.6217 9.80814 39.4182 9.26163C39.2205 8.7093 39.1217 8.11628 39.1217 7.48256C39.1217 6.85465 39.2205 6.26744 39.4182 5.72093C39.6217 5.17441 39.9008 4.69767 40.2554 4.29069C40.6101 3.88372 41.0287 3.56395 41.5112 3.33139C41.9996 3.09883 42.5316 2.98255 43.1072 2.98255ZM43.7525 5.52907C43.4793 5.52907 43.2293 5.57848 43.0025 5.67732C42.7816 5.77616 42.5897 5.91569 42.4269 6.09593C42.27 6.27034 42.1479 6.47674 42.0607 6.71511C41.9735 6.95349 41.9299 7.21221 41.9299 7.49128C41.9299 7.77035 41.9735 8.02907 42.0607 8.26744C42.1479 8.50581 42.27 8.71511 42.4269 8.89535C42.5897 9.06977 42.7816 9.20639 43.0025 9.30523C43.2293 9.40407 43.4793 9.45349 43.7525 9.45349C44.02 9.45349 44.2642 9.40407 44.4851 9.30523C44.7118 9.20639 44.9066 9.06977 45.0694 8.89535C45.2322 8.72093 45.3572 8.51453 45.4444 8.27616C45.5374 8.03779 45.5839 7.77616 45.5839 7.49128C45.5839 7.20639 45.5374 6.94476 45.4444 6.70639C45.3572 6.46802 45.2322 6.26162 45.0694 6.08721C44.9066 5.91279 44.7118 5.77616 44.4851 5.67732C44.2642 5.57848 44.02 5.52907 43.7525 5.52907Z" fill="white"/>
<path d="M53.6859 2.98255C54.3197 2.98255 54.8982 3.09302 55.4214 3.31395C55.9505 3.52906 56.4011 3.8372 56.7732 4.23837C57.1511 4.63372 57.4447 5.10755 57.654 5.65988C57.8633 6.21221 57.9679 6.82267 57.9679 7.49128C57.9679 7.63081 57.9621 7.78488 57.9505 7.95349C57.9447 8.11628 57.933 8.24418 57.9156 8.33721H52.1162C52.2325 8.80814 52.4476 9.15407 52.7615 9.375C53.0813 9.59593 53.4766 9.70639 53.9476 9.70639C54.2673 9.70639 54.59 9.64244 54.9156 9.51453C55.2412 9.38663 55.5406 9.20058 55.8139 8.95639L57.5755 10.5959C57.1278 11.0436 56.5871 11.3895 55.9534 11.6337C55.3197 11.8779 54.6045 12 53.808 12C53.1336 12 52.5202 11.8924 51.9679 11.6773C51.4156 11.4622 50.9418 11.1599 50.5464 10.7703C50.1511 10.3808 49.8429 9.91279 49.622 9.36628C49.4069 8.81977 49.2993 8.21221 49.2993 7.5436C49.2993 6.86918 49.404 6.2529 49.6133 5.69476C49.8284 5.13662 50.1278 4.65697 50.5115 4.25581C50.9011 3.85465 51.3633 3.5436 51.8981 3.32267C52.4388 3.09592 53.0348 2.98255 53.6859 2.98255ZM53.6947 5.30232C53.2702 5.30232 52.9272 5.41569 52.6656 5.64244C52.4098 5.86337 52.2295 6.18604 52.1249 6.61046H55.2383C55.1278 6.18023 54.9418 5.85465 54.6801 5.63372C54.4243 5.41279 54.0958 5.30232 53.6947 5.30232Z" fill="white"/>
<path d="M61.8084 11.7733H59.0788V1.31382e-05H61.8084V11.7733Z" fill="white"/>
<path d="M66.0926 11.7733H63.3629V0H66.0926V11.7733Z" fill="white"/>
</svg>
