<svg width="23" height="16" viewBox="0 0 23 16" fill="none" xmlns="http://www.w3.org/2000/svg">
<path d="M11.8734 4.59091H7.78254V8.68182H11.8734V4.59091ZM13.2371 11.4091V12.7727H6.4189V11.4091H13.2371ZM13.2371 3.22727V10.0455H6.4189V3.22727H13.2371ZM20.0553 11.4091V12.7727H14.6007V11.4091H20.0553ZM20.0553 8.68182V10.0455H14.6007V8.68182H20.0553ZM20.0553 5.95455V7.31818H14.6007V5.95455H20.0553ZM20.0553 3.22727V4.59091H14.6007V3.22727H20.0553ZM3.69163 13.4545V3.22727H2.32799V13.4545C2.32799 13.6392 2.39546 13.799 2.53041 13.9339C2.66535 14.0689 2.82515 14.1364 3.00981 14.1364C3.19447 14.1364 3.35427 14.0689 3.48921 13.9339C3.62416 13.799 3.69163 13.6392 3.69163 13.4545ZM21.4189 13.4545V1.86364H5.05526V13.4545C5.05526 13.6889 5.0162 13.9162 4.93808 14.1364H20.7371C20.9217 14.1364 21.0815 14.0689 21.2165 13.9339C21.3514 13.799 21.4189 13.6392 21.4189 13.4545ZM22.7825 0.5V13.4545C22.7825 14.0227 22.5837 14.5057 22.1859 14.9034C21.7882 15.3011 21.3053 15.5 20.7371 15.5H3.00981C2.44163 15.5 1.95867 15.3011 1.56095 14.9034C1.16322 14.5057 0.964355 14.0227 0.964355 13.4545V1.86364H3.69163V0.5H22.7825Z" fill="white"/>
</svg>
