<svg width="13" height="14" viewBox="0 0 13 14" fill="none" xmlns="http://www.w3.org/2000/svg">
<path fill-rule="evenodd" clip-rule="evenodd" d="M4.35233 1.94134C4.35233 1.55907 4.50419 1.19246 4.77449 0.922158C5.04479 0.651855 5.4114 0.5 5.79367 0.5H7.23501C7.61727 0.5 7.98388 0.651855 8.25419 0.922158C8.52449 1.19246 8.67635 1.55907 8.67635 1.94134V4.82401H11.559C11.9413 4.82401 12.3079 4.97587 12.5782 5.24617C12.8485 5.51647 13.0004 5.88308 13.0004 6.26535V7.70669C13.0004 8.08895 12.8485 8.45556 12.5782 8.72587C12.3079 8.99617 11.9413 9.14803 11.559 9.14803H8.67635V12.0307C8.67635 12.413 8.52449 12.7796 8.25419 13.0499C7.98388 13.3202 7.61727 13.472 7.23501 13.472H5.79367C5.4114 13.472 5.04479 13.3202 4.77449 13.0499C4.50419 12.7796 4.35233 12.413 4.35233 12.0307V9.14803H1.46966C1.08739 9.14803 0.720781 8.99617 0.450478 8.72587C0.180175 8.45556 0.0283203 8.08895 0.0283203 7.70669V6.26535C0.0283203 5.88308 0.180175 5.51647 0.450478 5.24617C0.720781 4.97587 1.08739 4.82401 1.46966 4.82401H4.35233V1.94134ZM7.23501 1.94134H5.79367V5.54468C5.79367 5.73581 5.71774 5.91912 5.58259 6.05427C5.44744 6.18942 5.26413 6.26535 5.073 6.26535H1.46966V7.70669H5.073C5.26413 7.70669 5.44744 7.78262 5.58259 7.91777C5.71774 8.05292 5.79367 8.23622 5.79367 8.42736V12.0307H7.23501V8.42736C7.23501 8.23622 7.31094 8.05292 7.44609 7.91777C7.58124 7.78262 7.76454 7.70669 7.95568 7.70669H11.559V6.26535H7.95568C7.76454 6.26535 7.58124 6.18942 7.44609 6.05427C7.31094 5.91912 7.23501 5.73581 7.23501 5.54468V1.94134Z" fill="white"/>
</svg>
