<svg width="17" height="17" viewBox="0 0 17 17" fill="none" xmlns="http://www.w3.org/2000/svg">
<g clip-path="url(#clip0_427_458)">
<path d="M17 8.5C17 3.80558 13.1944 0 8.5 0C3.80558 0 0 3.80558 0 8.5C0 13.1944 3.80558 17 8.5 17C13.1944 17 17 13.1944 17 8.5Z" fill="#1C1C1C"/>
<mask id="mask0_427_458" style="mask-type:alpha" maskUnits="userSpaceOnUse" x="2" y="1" width="14" height="15">
<path d="M16 1.5H2V15.5H16V1.5Z" fill="#D9D9D9"/>
</mask>
<g mask="url(#mask0_427_458)">
<path d="M4.40038 12C4.14119 12 3.91933 11.9077 3.7348 11.7232C3.55027 11.5387 3.45801 11.3168 3.45801 11.0576V5.94237C3.45801 5.68318 3.55027 5.46132 3.7348 5.27679C3.91933 5.09226 4.14119 5 4.40038 5H9.51563C9.77483 5 9.99669 5.09226 10.1812 5.27679C10.3657 5.46132 10.458 5.68318 10.458 5.94237V11.0576C10.458 11.3168 10.3657 11.5387 10.1812 11.7232C9.99669 11.9077 9.77483 12 9.51563 12H4.40038ZM12.1014 7.91667C11.9623 7.91667 11.848 7.87199 11.7587 7.78265C11.6693 7.6933 11.6247 7.57906 11.6247 7.43994V5.47673C11.6247 5.3376 11.6693 5.22337 11.7587 5.13402C11.848 5.04467 11.9623 5 12.1014 5H14.0646C14.2037 5 14.318 5.04467 14.4073 5.13402C14.4967 5.22337 14.5413 5.3376 14.5413 5.47673V7.43994C14.5413 7.57906 14.4967 7.6933 14.4073 7.78265C14.318 7.87199 14.2037 7.91667 14.0646 7.91667H12.1014ZM4.73682 10.1939H9.17919L7.76009 8.29802L6.66634 9.75635L5.86426 8.69177L4.73682 10.1939ZM12.1014 12C11.9623 12 11.848 11.9553 11.7587 11.866C11.6693 11.7766 11.6247 11.6624 11.6247 11.5233V9.56006C11.6247 9.42094 11.6693 9.3067 11.7587 9.21735C11.848 9.12801 11.9623 9.08333 12.1014 9.08333H14.0646C14.2037 9.08333 14.318 9.12801 14.4073 9.21735C14.4967 9.3067 14.5413 9.42094 14.5413 9.56006V11.5233C14.5413 11.6624 14.4967 11.7766 14.4073 11.866C14.318 11.9553 14.2037 12 14.0646 12H12.1014Z" fill="white"/>
</g>
</g>
<defs>
<clipPath id="clip0_427_458">
<rect width="17" height="17" fill="white"/>
</clipPath>
</defs>
</svg>
