<svg width="20" height="20" viewBox="0 0 20 20" fill="none" xmlns="http://www.w3.org/2000/svg">
<g id="ic_linkexterior">
<g id="Vector">
<path d="M13.8065 18.3334H3.69409C2.57584 18.3334 1.66602 17.4237 1.66602 16.3056L1.66602 6.19477C1.66602 5.07669 2.57584 4.16701 3.69409 4.16701L8.70409 4.16701C8.95989 4.16701 9.16701 4.37442 9.16701 4.62985C9.16701 4.88528 8.95956 5.0927 8.70409 5.0927L3.69409 5.0927C3.08645 5.0927 2.59217 5.5869 2.59217 6.19445L2.59218 16.3053C2.59218 16.9128 3.08645 17.407 3.69409 17.407H13.8068C14.4144 17.407 14.9087 16.9128 14.9087 16.3053V11.2964C14.9087 11.0406 15.1162 10.8336 15.3716 10.8336C15.6271 10.8336 15.8346 11.041 15.8346 11.2964V16.3053C15.8346 17.4233 14.9247 18.3334 13.8065 18.3334Z" fill="#de2c53"/>
<path d="M11.8054 8.19798C11.8959 8.28846 12.0142 8.33353 12.1328 8.33353L12.1308 8.33321C12.2494 8.33321 12.3677 8.28813 12.4582 8.19765L17.4064 3.24821V7.03742C17.4064 7.29285 17.6139 7.50027 17.8693 7.50027C18.1248 7.50027 18.3322 7.29318 18.3322 7.03742L18.3322 2.11869C18.3309 2.05925 18.3185 2.00241 18.2966 1.95048C18.2754 1.89985 18.2447 1.85183 18.2045 1.80969C18.1996 1.80447 18.1944 1.79924 18.1892 1.79434C18.1467 1.75351 18.0983 1.72248 18.0467 1.70125C18.002 1.68263 17.9533 1.67087 17.9023 1.66728L12.9637 1.66663C12.7082 1.66663 12.5007 1.87371 12.5007 2.12947C12.5007 2.38523 12.7079 2.59265 12.9637 2.59265L16.754 2.5933L11.8054 7.54339C11.6248 7.72403 11.6248 8.01702 11.8054 8.19798Z" fill="#de2c53"/>
</g>
</g>
</svg>
