<svg width="24" height="24" viewBox="0 0 24 24" fill="none" xmlns="http://www.w3.org/2000/svg">
<path d="M19.0718 4.92966C17.4359 3.29351 15.2834 2.27519 12.9809 2.04824C10.6784 1.82129 8.36849 2.39975 6.44471 3.68505C4.52092 4.97034 3.10233 6.88294 2.43067 9.09694C1.759 11.3109 1.87582 13.6893 2.76121 15.8268C3.64661 17.9644 5.2458 19.7288 7.28628 20.8193C9.32675 21.9099 11.6823 22.2592 13.9514 21.8077C16.2206 21.3562 18.263 20.1319 19.7306 18.3433C21.1982 16.5547 22.0002 14.3126 22 11.9989C22.0036 10.6855 21.7466 9.38443 21.244 8.17099C20.7414 6.95754 20.0031 5.85584 19.0718 4.92966ZM12.0025 20.8218C7.13817 20.8218 3.18092 16.8645 3.18092 12.0002C3.18092 7.13588 7.13817 3.17863 12.0025 3.17863C16.8668 3.17863 20.824 7.1363 20.824 12.0002C20.824 16.8641 16.8655 20.8205 12.0016 20.8205L12.0025 20.8218Z" fill="black"/>
<path d="M16.4119 16.7031C16.2622 16.7032 16.1181 16.646 16.009 16.5434L11.5982 12.4293C11.5398 12.3743 11.4933 12.3079 11.4615 12.2343C11.4296 12.1607 11.4132 12.0813 11.4132 12.0011V6.70606C11.4172 6.55277 11.481 6.40713 11.5909 6.30015C11.7007 6.19317 11.848 6.1333 12.0013 6.1333C12.1547 6.1333 12.302 6.19317 12.4118 6.30015C12.5217 6.40713 12.5855 6.55277 12.5895 6.70606V11.7451L16.8152 15.687C16.901 15.7678 16.9605 15.8725 16.9861 15.9875C17.0117 16.1025 17.0021 16.2226 16.9586 16.3321C16.9152 16.4417 16.8398 16.5357 16.7424 16.6019C16.6449 16.6681 16.5298 16.7031 16.4119 16.7031Z" fill="black"/>
</svg>
