<svg width="157" height="26" viewBox="0 0 157 26" fill="none" xmlns="http://www.w3.org/2000/svg">
<g clip-path="url(#clip0_1124_5340)">
<mask id="mask0_1124_5340" style="mask-type:luminance" maskUnits="userSpaceOnUse" x="0" y="0" width="157" height="26">
<path d="M156.656 0.699951H0.65625V25.7H156.656V0.699951Z" fill="white"/>
</mask>
<g mask="url(#mask0_1124_5340)">
<path d="M152.793 15.955C152.793 16.9563 152.015 17.6228 150.486 17.6228C149.428 17.6228 148.874 17.2338 148.874 16.5657C148.874 15.8977 149.29 15.4823 150.236 15.4823H152.793V15.955ZM156.518 20.2919V13.5634C156.518 9.83717 154.21 8.19727 151.18 8.19727C148.399 8.19727 147.148 9.05907 146.037 10.1425L148.122 12.3668C148.65 11.894 149.401 11.2818 150.819 11.2818C152.07 11.2818 152.829 11.9064 152.885 13.2689L150.041 13.2565C147.122 13.2565 145.203 14.2857 145.203 16.8153C145.203 19.5681 147.204 20.5399 149.373 20.5399C150.957 20.5399 151.986 20.0114 152.876 18.6489L152.885 20.2888H156.518V20.2919Z" fill="white"/>
<path d="M27.4729 15.9039C27.4729 16.9099 26.6901 17.581 25.1525 17.581C24.0908 17.581 23.5312 17.1904 23.5312 16.5193C23.5312 15.8481 23.9497 15.4296 24.9014 15.4296H27.4729V15.9055V15.9039ZM31.2192 20.2641V13.4998C31.2192 9.75504 28.8989 8.10583 25.8531 8.10583C23.0585 8.10583 21.7999 8.97229 20.6823 10.0619L22.7795 12.2986C23.3096 11.8243 24.0644 11.2089 25.4904 11.2089C26.749 11.2089 27.5116 11.8367 27.5674 13.2053L24.7077 13.1929C21.7735 13.1929 19.8438 14.2268 19.8438 16.7704C19.8438 19.5371 21.8557 20.5152 24.0365 20.5152C25.6299 20.5152 26.6638 19.9835 27.5581 18.6149L27.5674 20.2641H31.2208H31.2192Z" fill="white"/>
<path d="M119.054 15.9039C119.054 16.9099 118.271 17.581 116.734 17.581C115.672 17.581 115.112 17.1904 115.112 16.5193C115.112 15.8481 115.531 15.4296 116.483 15.4296H119.054V15.9055V15.9039ZM122.799 20.2641V13.4998C122.799 9.75504 120.479 8.10583 117.433 8.10583C114.638 8.10583 113.38 8.97229 112.262 10.0619L114.358 12.2986C114.889 11.8243 115.644 11.2089 117.069 11.2089C118.327 11.2089 119.09 11.8367 119.146 13.2053L116.286 13.1929C113.352 13.1929 111.422 14.2268 111.422 16.7704C111.422 19.5371 113.434 20.5152 115.615 20.5152C117.208 20.5152 118.242 19.9835 119.136 18.6149L119.146 20.2641H122.799Z" fill="white"/>
</g>
<path d="M18.9563 8.35693H15.1836V20.2641H18.9563V8.35693Z" fill="white"/>
<mask id="mask1_1124_5340" style="mask-type:luminance" maskUnits="userSpaceOnUse" x="0" y="0" width="157" height="26">
<path d="M156.656 0.699951H0.65625V25.7H156.656V0.699951Z" fill="white"/>
</mask>
<g mask="url(#mask1_1124_5340)">
<path d="M17.0816 6.90304C18.0953 6.90304 18.954 6.13269 18.954 5.03064C18.954 3.92858 18.0953 3.17993 17.0816 3.17993C16.0679 3.17993 15.1875 3.95028 15.1875 5.03064C15.1875 6.11099 16.0695 6.90304 17.0816 6.90304Z" fill="white"/>
<path d="M41.3472 6.90304C42.3609 6.90304 43.2196 6.13269 43.2196 5.03064C43.2196 3.92858 42.3609 3.17993 41.3472 3.17993C40.3335 3.17993 39.4531 3.95028 39.4531 5.03064C39.4531 6.11099 40.3351 6.90304 41.3472 6.90304Z" fill="white"/>
</g>
<path d="M43.2258 8.35693H39.4531V20.2641H43.2258V8.35693Z" fill="white"/>
<mask id="mask2_1124_5340" style="mask-type:luminance" maskUnits="userSpaceOnUse" x="0" y="0" width="157" height="26">
<path d="M156.656 0.699951H0.65625V25.7H156.656V0.699951Z" fill="white"/>
</mask>
<g mask="url(#mask2_1124_5340)">
<path d="M56.9464 14.281C56.9464 16.1534 55.8847 17.2167 54.2634 17.2167C52.6421 17.2167 51.664 16.155 51.664 14.281C51.664 12.5202 52.67 11.4306 54.2634 11.4306C55.8568 11.4306 56.9464 12.5202 56.9464 14.281ZM60.6091 20.264V0.734009H56.8364V10.034C56.0815 8.86067 55.0198 8.10582 53.1195 8.10582C50.2411 8.10582 47.7812 10.6215 47.7812 14.2826C47.7812 17.9437 50.269 20.5151 53.1753 20.5151C54.9919 20.5151 56.2505 19.7882 56.9201 18.5311L56.8364 20.264H60.6091Z" fill="white"/>
<path d="M70.5924 13.2751H65.31C65.6169 11.8491 66.6244 11.1795 68.1046 11.1795C69.5849 11.1795 70.425 11.9623 70.5924 13.2751ZM68.0767 8.10433C64.3877 8.10433 61.5078 10.6758 61.5078 14.2811C61.5078 17.8864 64.2467 20.5137 68.4952 20.5137C70.983 20.5137 72.4369 19.7588 73.5823 18.7529L71.4294 16.4325C70.8419 16.8526 69.8081 17.3827 68.4379 17.3827C66.7329 17.3827 65.7269 16.6836 65.3627 15.4544H74.3914C74.6704 11.2896 72.3516 8.10278 68.0752 8.10278" fill="white"/>
<path d="M94.0963 13.2751H88.8139C89.1208 11.8491 90.1283 11.1795 91.6085 11.1795C93.0888 11.1795 93.9289 11.9623 94.0963 13.2751ZM91.5806 8.10433C87.8916 8.10433 85.0117 10.6758 85.0117 14.2811C85.0117 17.8864 87.7506 20.5137 91.9991 20.5137C94.4869 20.5137 95.9408 19.7588 97.0862 18.7529L94.9333 16.4325C94.3458 16.8526 93.312 17.3827 91.9418 17.3827C90.2368 17.3827 89.2308 16.6836 88.8666 15.4544H97.8953C98.1743 11.2896 95.8555 8.10278 91.5791 8.10278" fill="white"/>
<path d="M128.75 20.5152C132.495 20.5152 133.642 18.7265 133.642 16.5457C133.642 14.03 131.463 13.2194 129.728 12.8288C128.107 12.4661 127.352 12.3808 127.352 11.7112C127.352 11.2354 127.772 11.0122 128.638 11.0122C129.505 11.0122 130.371 11.4322 130.931 11.9065L132.943 9.75357C131.965 8.74762 130.567 8.10437 128.611 8.10437C126.067 8.10437 123.999 9.19402 123.999 11.8786C123.999 14.3664 125.816 15.2607 127.437 15.6808C129.365 16.1845 130.12 16.1845 130.12 16.8262C130.12 17.33 129.728 17.5532 128.499 17.5532C127.381 17.5532 126.346 17.0773 125.537 16.2946L123.328 18.2507C124.362 19.4798 125.983 20.5152 128.75 20.5152Z" fill="white"/>
<path d="M139.395 20.5152C143.139 20.5152 144.286 18.7265 144.286 16.5457C144.286 14.03 142.107 13.2194 140.373 12.8288C138.751 12.4661 137.996 12.3808 137.996 11.7112C137.996 11.2354 138.417 11.0122 139.283 11.0122C140.149 11.0122 141.016 11.4322 141.575 11.9065L143.587 9.75357C142.609 8.74762 141.211 8.10437 139.255 8.10437C136.712 8.10437 134.644 9.19402 134.644 11.8786C134.644 14.3664 136.46 15.2607 138.082 15.6808C140.01 16.1845 140.765 16.1845 140.765 16.8262C140.765 17.33 140.374 17.5532 139.143 17.5532C138.026 17.5532 136.991 17.0773 136.181 16.2946L133.973 18.2507C135.007 19.4798 136.628 20.5152 139.395 20.5152Z" fill="white"/>
<path d="M83.0829 15.5397V4.74081H89.2752V0.699951H72.9258V4.74081H79.1149V15.5397C79.1149 21.1507 83.6642 25.7 89.2752 25.7V21.7319C85.8559 21.7319 83.0829 18.959 83.0829 15.5397Z" fill="white"/>
<path d="M10.4259 10.5007C10.4259 13.7898 7.75991 16.4542 4.47236 16.4542V4.5471C7.76147 4.5471 10.4259 7.21311 10.4259 10.5007ZM14.242 10.5007C14.242 5.1051 9.86792 0.732544 4.47236 0.732544H0.65625V20.2734H4.47236V20.2703C9.86792 20.2703 14.242 15.8962 14.242 10.5007Z" fill="white"/>
<path d="M38.5605 12.1204V8.34924C38.5605 8.34924 38.5497 8.34924 38.5451 8.34924C34.9955 8.34924 32.1172 11.2276 32.1172 14.7771V20.2688H35.893V14.7771H35.8883C35.8883 13.3093 37.0787 12.1204 38.5451 12.1204C38.5497 12.1204 38.5559 12.1204 38.5605 12.1204Z" fill="white"/>
<path d="M105.106 11.8956V8.21741C105.106 8.21741 105.095 8.21741 105.09 8.21741C101.627 8.21741 98.8203 11.0245 98.8203 14.4872V20.171H102.503V14.4872H102.498C102.498 13.0565 103.659 11.8956 105.09 11.8956C105.095 11.8956 105.101 11.8956 105.106 11.8956Z" fill="white"/>
<path d="M111.391 11.8956V8.21741C111.391 8.21741 111.38 8.21741 111.375 8.21741C107.913 8.21741 105.105 11.0245 105.105 14.4872V20.171H108.788V14.4872H108.784C108.784 13.0565 109.945 11.8956 111.375 11.8956C111.38 11.8956 111.386 11.8956 111.391 11.8956Z" fill="white"/>
</g>
<path d="M156.656 21.7351H90.5859V22.1567H156.656V21.7351Z" fill="white"/>
<path d="M156.656 22.9161H90.5859V23.3377H156.656V22.9161Z" fill="white"/>
<path d="M156.656 24.0973H90.5859V24.5189H156.656V24.0973Z" fill="white"/>
<path d="M156.656 25.2783H90.5859V25.6999H156.656V25.2783Z" fill="white"/>
</g>
<defs>
<clipPath id="clip0_1124_5340">
<rect width="156" height="25" fill="white" transform="translate(0.65625 0.699951)"/>
</clipPath>
</defs>
</svg>
