<svg width="180" height="21" viewBox="0 0 180 21" fill="none" xmlns="http://www.w3.org/2000/svg">
<path d="M70.0519 13.7869C70.0519 15.5609 69.5602 17.0064 68.6064 18.1234C68.1738 18.6597 67.6249 19.0906 67.0011 19.3834C66.3774 19.6762 65.6953 19.8233 65.0063 19.8135L64.9247 19.7864C64.2377 19.8012 63.5563 19.6592 62.9325 19.371C62.3086 19.0828 61.7587 18.6561 61.3246 18.1234C60.3708 17.0064 59.8792 15.5609 59.8792 13.7869C59.8792 11.9608 60.3708 10.5153 61.3518 9.42331C61.8032 8.90942 62.3591 8.49772 62.9822 8.21568C63.6054 7.93365 64.2815 7.78776 64.9655 7.78776C65.6495 7.78776 66.3257 7.93365 66.9488 8.21568C67.572 8.49772 68.1278 8.90942 68.5792 9.42331C69.5602 10.5153 70.0519 11.9608 70.0519 13.7869ZM73.0244 20.4411V19.5349H71.0329V0.86145H67.9788V1.76771H69.9703V9.4505C69.9703 9.53433 69.9703 9.75183 69.9975 10.1053H69.9703C69.5671 9.14416 68.8943 8.3203 68.0332 7.73314C67.1368 7.14044 66.0806 6.83607 65.0063 6.86087C63.1802 6.86087 61.7075 7.48845 60.5611 8.74362C59.4147 9.99878 58.8438 11.6323 58.8438 13.651C58.8438 15.6697 59.417 17.387 60.5339 18.6966C61.6509 20.0061 63.1258 20.6609 64.9519 20.6609C66.0356 20.6928 67.0996 20.3663 67.9788 19.732C68.8316 19.0981 69.4849 18.2333 69.8616 17.2398H69.8888V20.4842L73.0244 20.4411Z" fill="white"/>
<path d="M73.7659 12.8325C73.929 11.2239 74.5022 9.96877 75.4832 9.04212C75.9279 8.59928 76.4556 8.24847 77.036 8.00977C77.6164 7.77107 78.2382 7.64916 78.8658 7.65102C80.2569 7.65102 81.3739 8.11548 82.1918 9.06931C83.0097 10.0231 83.447 11.2783 83.5285 12.8325H73.7659ZM73.7387 13.7864L84.7565 13.8408V13.5417C84.8109 11.5026 84.3192 9.86002 83.2566 8.63204C82.1941 7.40406 80.7463 6.80593 78.9202 6.80593C78.1018 6.78997 77.289 6.94403 76.5332 7.25836C75.7774 7.57268 75.0951 8.04044 74.5294 8.63204C73.3301 9.86002 72.7305 11.5215 72.7305 13.6165C72.7305 15.7439 73.3309 17.4341 74.5566 18.6892C75.148 19.3032 75.8607 19.7875 76.6494 20.1112C77.4381 20.435 78.2854 20.5911 79.1377 20.5697C79.9288 20.5863 80.717 20.4691 81.4691 20.2231C82.1019 20.0207 82.6934 19.7069 83.2159 19.2964C83.6009 18.9936 83.9567 18.6553 84.2784 18.2859C84.4942 18.0315 84.6861 17.7577 84.8517 17.468L84.0881 17.0149C83.6294 17.7743 82.9925 18.4104 82.2326 18.8682C81.3875 19.4142 80.3249 19.6861 79.0607 19.6861C78.3741 19.6872 77.6944 19.5502 77.0619 19.2832C76.4294 19.0162 75.8571 18.6246 75.379 18.1319C74.3217 17.0972 73.7764 15.6518 73.7432 13.7954" fill="white"/>
<path d="M112.31 13.8711L112.283 16.6805C110.647 18.7196 108.71 19.7346 106.501 19.7346C105.615 19.7709 104.746 19.4906 104.048 18.9439C103.757 18.7241 103.522 18.4397 103.361 18.1133C103.2 17.7869 103.117 17.4274 103.119 17.0634C103.098 16.483 103.282 15.9136 103.638 15.4548C104.026 14.9953 104.537 14.6545 105.11 14.4715C105.771 14.2451 106.455 14.0931 107.149 14.0184C107.991 13.9245 108.838 13.8783 109.685 13.8802L112.31 13.8711ZM115.337 20.4415V19.5352H113.346V12.1538C113.346 10.2733 112.882 8.91389 111.955 8.0756C111.028 7.22825 109.664 6.82043 107.838 6.82043C107.482 6.82043 107.129 6.84762 106.8 6.87481C106.496 6.90266 106.193 6.94805 105.894 7.01075C105.627 7.05818 105.363 7.12173 105.103 7.20106C104.859 7.28489 104.639 7.36645 104.449 7.44802C104.259 7.5226 104.076 7.61357 103.903 7.71989C103.74 7.82864 103.604 7.91021 103.495 7.99177L103.166 8.23873C103.079 8.30801 102.997 8.38375 102.922 8.46529L102.759 8.62842L102.65 8.73717L103.221 9.42592L103.629 9.01811C103.9 8.74623 104.419 8.47209 105.214 8.20021C106.086 7.91401 106.998 7.77541 107.915 7.79013C109.306 7.79013 110.369 8.11865 111.132 8.77342C111.896 9.42819 112.283 10.5723 112.283 12.2081V12.9445H109.637C107.264 12.9445 105.41 13.2465 104.075 13.8507C102.738 14.4511 102.056 15.516 102.056 17.043C102.041 17.5584 102.149 18.07 102.372 18.5348C102.595 18.9996 102.927 19.4041 103.339 19.7142C104.233 20.3857 105.329 20.7325 106.447 20.6975C108.874 20.6975 110.811 19.7157 112.256 17.7522H112.283V20.4709L115.337 20.4415Z" fill="white"/>
<path d="M127.532 13.7608C127.532 15.5348 127.04 16.9802 126.086 18.0972C125.653 18.6347 125.103 19.0663 124.477 19.3592C123.852 19.6521 123.168 19.7985 122.477 19.7874L122.396 19.7602C121.709 19.774 121.028 19.6315 120.404 19.3434C119.78 19.0553 119.23 18.6292 118.796 18.0972C117.842 16.9802 117.35 15.5348 117.35 13.7608C117.35 11.9347 117.842 10.4892 118.823 9.39713C119.274 8.88324 119.83 8.47154 120.453 8.18951C121.076 7.90747 121.753 7.76159 122.437 7.76159C123.121 7.76159 123.797 7.90747 124.42 8.18951C125.043 8.47154 125.599 8.88324 126.05 9.39713C127.031 10.4892 127.523 11.9347 127.523 13.7608M128.586 13.6248C128.586 11.6069 128.013 9.9711 126.868 8.71744C125.735 7.46228 124.251 6.83469 122.423 6.83469C121.355 6.81352 120.307 7.11779 119.416 7.70704C118.526 8.2963 117.836 9.14262 117.439 10.1335H117.384L117.439 9.20682V0.889648H114.387V1.79591H116.378V20.4761L117.525 20.4489V17.1977H117.552C117.932 18.2003 118.595 19.0713 119.459 19.7058C120.347 20.3211 121.407 20.6385 122.486 20.6121C124.316 20.6121 125.788 19.9573 126.904 18.6477C128.024 17.3405 128.595 15.6707 128.595 13.6248" fill="white"/>
<path d="M139.615 13.8668L139.588 16.6762C137.952 18.7153 136.015 19.7303 133.806 19.7303C132.92 19.7666 132.05 19.4863 131.352 18.9396C131.062 18.7198 130.827 18.4353 130.666 18.1089C130.506 17.7825 130.423 17.423 130.425 17.0591C130.404 16.479 130.587 15.9097 130.942 15.4505C131.331 14.991 131.841 14.6502 132.415 14.4672C133.075 14.2408 133.759 14.0888 134.454 14.0141C135.296 13.9202 136.142 13.874 136.989 13.8759L139.615 13.8668ZM142.642 20.4372V19.5309H140.65V12.1495C140.65 10.269 140.187 8.90959 139.259 8.0713C138.337 7.21263 136.978 6.80481 135.143 6.80481C134.787 6.80481 134.433 6.832 134.105 6.85919C133.8 6.88704 133.498 6.93242 133.199 6.99512C132.931 7.04282 132.667 7.10637 132.408 7.18544C132.163 7.26927 131.955 7.35083 131.753 7.43239C131.564 7.50651 131.382 7.59751 131.209 7.70427C131.044 7.81302 130.908 7.89458 130.799 7.97615L130.473 8.2231C130.385 8.29186 130.302 8.36763 130.226 8.44967L130.063 8.61279L129.954 8.72154L130.527 9.43069L130.935 9.02287C131.209 8.751 131.726 8.47685 132.521 8.20498C133.392 7.91878 134.305 7.78017 135.222 7.79489C136.613 7.79489 137.676 8.12341 138.439 8.77818C139.203 9.43296 139.585 10.5771 139.585 12.2129V12.9492H136.941C134.569 12.9492 132.714 13.2513 131.379 13.8555C130.043 14.4559 129.361 15.5207 129.361 17.0478C129.347 17.5597 129.455 18.0676 129.676 18.5294C129.898 18.9912 130.226 19.3936 130.634 19.7031C131.528 20.3746 132.625 20.7214 133.742 20.6864C136.17 20.6864 138.106 19.7046 139.551 17.7411H139.579V20.4598L142.642 20.4372Z" fill="white"/>
<path d="M153.673 13.7869C153.673 15.5609 153.184 17.0064 152.23 18.1234C151.797 18.6594 151.248 19.0901 150.624 19.3829C150.001 19.6757 149.319 19.823 148.63 19.8135L148.548 19.7864C147.861 19.8012 147.18 19.6592 146.556 19.371C145.932 19.0828 145.382 18.6561 144.948 18.1234C143.992 17.0064 143.502 15.5609 143.502 13.7869C143.502 11.9608 143.992 10.5154 144.975 9.42331C145.426 8.90947 145.982 8.4978 146.605 8.21578C147.228 7.93376 147.904 7.78789 148.588 7.78789C149.272 7.78789 149.948 7.93376 150.57 8.21578C151.193 8.4978 151.749 8.90947 152.2 9.42331C153.184 10.5154 153.673 11.9608 153.673 13.7869ZM156.645 20.4411V19.5349H154.652V0.86145H151.602V1.76771H153.591V9.4505C153.591 9.53433 153.591 9.75183 153.619 10.1053H153.591C153.19 9.14384 152.518 8.31976 151.657 7.73314C150.76 7.14071 149.704 6.83636 148.63 6.86087C146.801 6.86087 145.329 7.48845 144.184 8.74362C143.04 9.99878 142.465 11.6323 142.465 13.651C142.465 15.6697 143.038 17.387 144.157 18.6966C145.276 20.0061 146.747 20.6609 148.575 20.6609C149.659 20.6925 150.723 20.366 151.602 19.732C152.455 19.0986 153.108 18.2336 153.483 17.2398H153.519V20.4842L156.645 20.4411Z" fill="white"/>
<path d="M157.453 12.8325C157.619 11.2239 158.19 9.96877 159.173 9.04212C159.617 8.59935 160.145 8.24856 160.725 8.00986C161.305 7.77115 161.926 7.64921 162.553 7.65102C163.944 7.65102 165.064 8.11548 165.882 9.06931C166.699 10.0231 167.134 11.2783 167.218 12.8325H157.453ZM157.426 13.7864L168.444 13.8408V13.5417C168.498 11.5026 168.009 9.86002 166.944 8.63204C165.879 7.40406 164.436 6.80593 162.608 6.80593C161.789 6.78997 160.977 6.94403 160.221 7.25836C159.465 7.57268 158.783 8.04044 158.217 8.63204C157.019 9.86002 156.419 11.5215 156.418 13.6165C156.418 15.7439 157.018 17.4341 158.244 18.6892C158.836 19.3034 159.549 19.7878 160.338 20.1115C161.127 20.4352 161.975 20.5913 162.827 20.5697C163.614 20.5826 164.398 20.4631 165.145 20.2163C165.777 20.0139 166.368 19.7001 166.89 19.2896C167.275 18.9874 167.631 18.6491 167.952 18.2791C168.168 18.0247 168.36 17.7509 168.526 17.4612L167.762 17.0081C167.304 17.7674 166.668 18.4036 165.909 18.8614C165.064 19.4074 163.999 19.6793 162.737 19.6793C162.051 19.6805 161.371 19.5435 160.739 19.2765C160.107 19.0095 159.535 18.6179 159.057 18.1251C157.993 17.0904 157.447 15.645 157.419 13.7886" fill="white"/>
<path d="M87.4842 20.512V16.8145C89.0113 19.352 91.3358 20.6344 94.4103 20.6344C96.7303 20.6344 98.4477 20.1427 99.5918 19.1345C100.153 18.6489 100.598 18.0443 100.896 17.3646C101.193 16.6849 101.335 15.9474 101.311 15.2059C101.33 14.3729 101.071 13.5574 100.575 12.8881C100.082 12.2377 99.4328 11.722 98.6878 11.3883C97.8709 11.0126 97.0225 10.7094 96.1526 10.482L93.3432 9.74568C92.4831 9.52181 91.6367 9.24872 90.8079 8.92779C90.0819 8.65339 89.435 8.20349 88.9252 7.61825C88.4373 7.05223 88.1752 6.32628 88.1888 5.57917C88.1838 5.03871 88.3073 4.50479 88.5492 4.02145C88.791 3.53811 89.1443 3.11918 89.5799 2.79923C90.5066 2.06289 91.7346 1.70719 93.2616 1.70719C94.1832 1.68677 95.1008 1.83496 95.9691 2.14445C96.643 2.36791 97.2579 2.7404 97.768 3.23423C98.1359 3.61111 98.4418 4.04393 98.6742 4.51658C98.8525 4.8634 98.9552 5.2441 98.9756 5.63354V6.86152H100.093V0.800929H98.9756V3.12548C97.8563 1.51687 95.9487 0.698975 93.248 0.698975C91.3381 0.698975 89.811 1.1521 88.6941 2.11727C87.5771 3.08243 87.0017 4.24471 87.0017 5.63354C86.9744 6.52727 87.2323 7.40647 87.738 8.14388C88.2197 8.81689 88.8686 9.3526 89.6207 9.6981C90.4411 10.0783 91.2885 10.3971 92.156 10.6519C93.0849 10.9253 94.0123 11.1708 94.9382 11.3883C95.801 11.5825 96.649 11.8376 97.4757 12.1518C98.1923 12.4168 98.8365 12.8468 99.3562 13.407C99.849 13.9512 100.113 14.6646 100.093 15.3985C100.093 16.7873 99.5737 17.8522 98.5655 18.5885C97.5573 19.3248 96.139 19.6783 94.3106 19.6783C93.2124 19.694 92.1239 19.4705 91.1206 19.0235C90.2812 18.67 89.5278 18.1399 88.9116 17.4693C88.466 16.9652 88.0727 16.4171 87.738 15.8335C87.4661 15.3426 87.3302 14.9884 87.3302 14.7709V13.842H86.2109V20.512H87.4842Z" fill="white"/>
<path d="M173.721 20.4411V19.5417H171.73V0.86145H168.676V1.76091H170.665V19.5417H168.676V20.4411H173.721Z" fill="white"/>
<path d="M179.653 20.4411V19.5417H177.663V0.86145H174.609V1.76091H176.599V19.5417H174.609V20.4411H179.653Z" fill="white"/>
<path d="M14.7807 10.7713C14.7807 15.4362 12.4629 17.7812 7.85459 17.8083L5.78152 17.8355V3.48043H7.71865C10.0364 3.48043 11.7809 4.10801 12.9817 5.36318C14.1825 6.61834 14.7807 8.41726 14.7807 10.7622M18.0522 10.6806C18.0522 7.59937 17.1256 5.20005 15.2723 3.45324C13.419 1.70643 11.0084 0.836426 8.06303 0.836426H0.328125V3.45324H2.67306V17.7948H0.328125V20.4116H8.91717C11.6178 20.4116 13.8268 19.5393 15.517 17.7948C17.2072 16.0502 18.0522 13.6758 18.0522 10.6761" fill="white"/>
<path d="M34.9154 15.997C33.7433 17.4153 32.4889 18.1244 31.1522 18.1244C30.4158 18.1244 29.8449 17.9862 29.4348 17.6871C29.2365 17.5506 29.0752 17.3669 28.9657 17.1525C28.8561 16.9381 28.8016 16.6998 28.8072 16.4592C28.8072 15.1519 30.1983 14.4971 33.0077 14.4971H34.9154V15.997ZM39.6053 20.4421V18.0406H37.9423V12.3765C37.9423 8.69479 35.9802 6.83923 32.0811 6.83923C31.339 6.84045 30.5989 6.91635 29.8721 7.0658C29.3137 7.16788 28.7655 7.31952 28.234 7.51893C27.8446 7.67898 27.4781 7.89002 27.1442 8.14651C26.8157 8.3912 26.5982 8.55659 26.5166 8.63815C26.4507 8.70463 26.3956 8.78109 26.3535 8.86472L27.8534 10.8018L28.2612 10.4733C28.5353 10.2286 28.9975 10.0202 29.6795 9.79363C30.4034 9.56921 31.1578 9.45913 31.9157 9.46738C33.9547 9.46738 34.9698 10.4212 34.9698 12.3312V12.5804H32.9851C30.7194 12.5804 28.9469 12.9353 27.6676 13.6452C26.3852 14.3521 25.7305 15.417 25.7305 16.8352C25.7305 18.0058 26.1398 18.9332 26.9584 19.6175C27.7763 20.2971 28.8661 20.6529 30.2028 20.6529C32.3575 20.6529 34.0544 19.8078 35.2484 18.0881H35.3028L35.3572 20.4354L39.6053 20.4421Z" fill="white"/>
<path d="M46.7702 20.4419V18.0426H45.1344V14.2794C45.1344 13.1624 45.5717 12.1814 46.444 11.3068C46.8758 10.8738 47.3921 10.5343 47.9608 10.3094C48.5294 10.0844 49.1383 9.979 49.7495 9.99956H50.9231V7.01797H50.513C49.704 7.00669 48.8998 7.14494 48.1409 7.42579C47.5489 7.63438 46.9959 7.94071 46.5051 8.33205C46.1281 8.65811 45.7979 9.03475 45.5241 9.45127C45.3259 9.72006 45.1587 10.0104 45.0257 10.3167C44.9713 10.4799 44.9169 10.6158 44.8897 10.6996H44.8082L44.7266 7.02477H40.4219V9.42408H42.1936V18.0335H40.4219V20.4328L46.7702 20.4419Z" fill="white"/>
<path d="M57.0309 2.93369C57.0289 2.48231 56.8705 2.04559 56.5828 1.69779C56.2951 1.34999 55.8958 1.11258 55.4528 1.02594C55.0099 0.939302 54.5505 1.00878 54.153 1.22257C53.7555 1.43635 53.4442 1.78123 53.2723 2.19857C53.1003 2.6159 53.0782 3.07992 53.2098 3.51171C53.3413 3.9435 53.6183 4.31639 53.9938 4.56698C54.3692 4.81757 54.8198 4.93038 55.269 4.88623C55.7182 4.84207 56.1383 4.64368 56.4577 4.32479C56.6431 4.14429 56.7896 3.92776 56.8882 3.68852C56.9868 3.44928 57.0354 3.1924 57.0309 2.93369Z" fill="white"/>
<path d="M58.2821 20.4407V18.0414H56.6191V7.02356H51.8477V10.0006H53.6466V18.0414H51.8477V20.4407H58.2821Z" fill="white"/>
<path d="M23.9684 2.93369C23.9664 2.48231 23.808 2.04559 23.5203 1.69779C23.2326 1.34999 22.8333 1.11258 22.3903 1.02594C21.9474 0.939302 21.488 1.00878 21.0905 1.22257C20.693 1.43635 20.3817 1.78123 20.2098 2.19857C20.0378 2.6159 20.0157 3.07992 20.1473 3.51171C20.2788 3.9435 20.5558 4.31639 20.9313 4.56698C21.3067 4.81757 21.7573 4.93038 22.2065 4.88623C22.6557 4.84207 23.0758 4.64368 23.3952 4.32479C23.5806 4.14429 23.7271 3.92776 23.8257 3.68852C23.9243 3.44928 23.9729 3.1924 23.9684 2.93369Z" fill="white"/>
<path d="M25.2258 20.4407V18.0414H23.5605V7.02356H18.7891V10.0006H20.588V18.0414H18.7891V20.4407H25.2258Z" fill="white"/>
</svg>
