<?xml version="1.0" encoding="utf-8"?>
<!-- Generator: Adobe Illustrator 19.0.0, SVG Export Plug-In . SVG Version: 6.00 Build 0)  -->
<svg version="1.2" baseProfile="tiny" id="Layer_1" xmlns="http://www.w3.org/2000/svg" xmlns:xlink="http://www.w3.org/1999/xlink"
	 x="0px" y="0px" width="200px" height="200px" viewBox="0 0 200 200" xml:space="preserve">
<g>
	<path id="XMLID_18_" fill="#FFFFFF" d="M70.913,159.462h-3.067c-0.275,0-0.498,0.222-0.498,0.496v29.656
		c0,0.273,0.224,0.496,0.498,0.496h3.067c0.275,0,0.499-0.222,0.499-0.496v-29.656C71.412,159.685,71.188,159.462,70.913,159.462z"
		/>
	<path id="XMLID_17_" fill="#FFFFFF" d="M48.484,190.887c3.352,0,6.167-0.605,8.366-1.799c2.801-1.561,4.222-3.98,4.222-7.188
		c0-4.561-3.093-7.4-9.195-8.44h-0.001c-3.061-0.531-5.267-0.924-6.378-1.136c-3.684-0.636-5.477-1.982-5.477-4.116
		c0-1.683,0.761-2.913,2.395-3.873c1.442-0.83,3.241-1.25,5.347-1.25c3.153,0,5.454,0.574,6.838,1.709
		c0.862,0.706,1.459,1.723,1.773,3.021c0.054,0.224,0.253,0.381,0.485,0.381h3.307c0.148,0,0.288-0.064,0.383-0.176
		c0.093-0.111,0.132-0.261,0.107-0.411c-1.027-5.602-5.466-8.445-13.193-8.445c-3.053,0-5.673,0.711-7.788,2.112
		c-2.547,1.646-3.839,3.978-3.839,6.933c0,4.529,3.179,7.31,9.447,8.265c3.685,0.551,5.7,0.871,5.986,0.95
		c3.724,0.851,5.617,2.359,5.617,4.477c0,1.794-0.826,3.058-2.6,3.976c-1.491,0.723-3.421,1.088-5.742,1.088
		c-3.429,0-5.949-0.682-7.489-2.029c-0.809-0.705-1.411-1.664-1.788-2.85c-0.066-0.209-0.256-0.349-0.475-0.349h-3.292
		c-0.154,0-0.294,0.068-0.394,0.192c-0.091,0.116-0.126,0.274-0.091,0.419C36.358,188.015,40.89,190.887,48.484,190.887z"/>
	<path fill="#FFFFFF" d="M92.876,159.223c-4.729,0-8.583,1.479-11.453,4.395c-2.867,2.911-4.322,6.769-4.322,11.467
		c0,4.771,1.278,8.564,3.799,11.275c2.693,2.926,6.621,4.409,11.674,4.409c3.479,0,6.512-0.705,9.017-2.093
		c2.383-1.286,4.222-3.388,5.466-6.25c0.062-0.15,0.046-0.325-0.045-0.467c-0.092-0.138-0.248-0.221-0.416-0.221h-3.352
		c-0.175,0-0.339,0.093-0.428,0.244c-1.968,3.308-5.372,4.984-10.121,4.984c-7.156,0-10.929-3.311-11.538-10.124l-0.022-0.246
		l0.248-0.001l26.708-0.057c0.276,0,0.499-0.222,0.499-0.496v-2.093c0-4.466-1.45-8.077-4.308-10.736
		C101.43,160.566,97.592,159.223,92.876,159.223z M81.228,172.795l0.043-0.263c0.453-2.825,1.646-5.1,3.544-6.761
		c2.083-1.822,4.795-2.747,8.061-2.747c3.266,0,5.956,0.923,7.997,2.744c1.863,1.662,2.968,3.941,3.286,6.775l0.029,0.252H81.228z"
		/>
	<path fill="#FFFFFF" d="M162.257,176.042v-2.093c0-4.467-1.45-8.079-4.308-10.735c-2.852-2.648-6.69-3.991-11.407-3.991
		c-4.729,0-8.583,1.479-11.452,4.395c-2.868,2.911-4.323,6.769-4.323,11.467c0,4.771,1.278,8.564,3.799,11.275
		c2.693,2.926,6.621,4.409,11.675,4.409c3.479,0,6.512-0.705,9.017-2.093c2.385-1.287,4.223-3.389,5.464-6.249
		c0.064-0.151,0.048-0.326-0.044-0.468c-0.092-0.138-0.248-0.221-0.416-0.221h-3.35c-0.176,0-0.34,0.093-0.427,0.243
		c-1.969,3.309-5.375,4.985-10.123,4.985c-7.155,0-10.928-3.311-11.538-10.124l-0.023-0.246l0.249-0.001l26.709-0.057
		C162.033,176.537,162.257,176.315,162.257,176.042z M134.895,172.795l0.042-0.263c0.455-2.826,1.646-5.101,3.545-6.761
		c2.083-1.822,4.794-2.747,8.06-2.747c3.266,0,5.957,0.923,7.997,2.744c1.864,1.662,2.969,3.941,3.288,6.775l0.028,0.252H134.895z"
		/>
	<path id="XMLID_12_" fill="#FFFFFF" d="M124.888,190.308c1.565,0,2.689-0.008,3.465-0.022c0.232,0,0.5-0.196,0.502-0.461v-2.725
		c0-0.231-0.188-0.418-0.42-0.418h-2.647c-4.366,0-4.713-2.008-4.713-4.632v-17.416h7.36c0.232,0,0.42-0.187,0.42-0.418v-2.841
		c0-0.23-0.19-0.419-0.421-0.419h-7.359v-7.68c0-0.162-0.123-0.324-0.361-0.286l-3.302,0.524c-0.229,0.048-0.355,0.248-0.355,0.414
		v7.029h-4.925c-0.232,0-0.421,0.189-0.421,0.419v2.841c0,0.23,0.189,0.418,0.421,0.418h4.767v18.1
		C116.898,187.866,118.094,190.308,124.888,190.308z"/>
</g>
<polygon id="XMLID_11_" fill="#F4DEDF" points="68.697,110.793 49.853,143.24 87.541,143.24 "/>
<polygon id="XMLID_10_" fill="#EDC8C9" points="87.541,143.24 106.385,110.793 68.697,110.793 "/>
<polygon id="XMLID_9_" fill="#FCF4F4" points="87.54,78.347 68.696,110.794 106.384,110.794 "/>
<polygon id="XMLID_8_" fill="#F4DEDF" points="106.384,110.794 125.227,78.347 87.54,78.347 "/>
<polygon id="XMLID_7_" fill="#EDC8C9" points="106.384,45.901 87.54,78.348 125.228,78.348 "/>
<polygon id="XMLID_6_" fill="#FCF4F4" points="125.228,78.348 144.072,45.901 106.384,45.901 "/>
<polygon id="XMLID_5_" fill="#EDC8C9" points="126.174,9.113 106.761,41.479 145.587,41.479 "/>
<polygon id="XMLID_4_" fill="#F4DEDF" points="145.587,41.479 165,9.113 126.174,9.113 "/>
<polygon id="XMLID_3_" fill="#F4DEDF" points="87.344,9.113 67.932,41.479 106.757,41.479 "/>
<polygon id="XMLID_2_" fill="#FCF4F4" points="106.757,41.479 126.17,9.113 87.344,9.113 "/>
<polygon id="XMLID_1_" fill="#EDC8C9" points="67.929,41.479 87.342,9.113 48.516,9.113 "/>
</svg>
