<svg width="168" height="26" viewBox="0 0 168 26" fill="none" xmlns="http://www.w3.org/2000/svg">
<g clip-path="url(#clip0_1124_5386)">
<path d="M25.241 21.2687H21.4308C20.9775 21.2687 20.5804 20.9686 20.4616 20.5362L18.3432 12.827V21.6586C18.3432 22.128 17.9581 22.508 17.4838 22.508H13.5978C13.1229 22.508 12.7383 22.1275 12.7383 21.6586V6.00359C12.7383 5.53424 13.1234 5.15417 13.5978 5.15417H19.8126C20.191 5.15417 20.5251 5.39914 20.6348 5.75676L23.2834 14.3767L25.92 5.75769C26.0298 5.39914 26.3639 5.15417 26.7428 5.15417H32.9571C33.432 5.15417 33.8166 5.53471 33.8166 6.00359V21.6586C33.8166 22.128 33.4315 22.508 32.9571 22.508H29.0835C28.6087 22.508 28.2241 22.1275 28.2241 21.6586V12.8765L26.2126 20.5254C26.0976 20.963 25.6981 21.2683 25.2405 21.2683L25.241 21.2687Z" fill="white"/>
<path d="M66.5097 22.508H62.6251C62.1503 22.508 61.7656 22.1275 61.7656 21.6586V6.00359C61.7656 5.53424 62.1503 5.15417 62.6251 5.15417H66.8709C67.1453 5.15417 67.4035 5.28413 67.5653 5.50292L73.4265 13.4473V6.00359C73.4265 5.53424 73.8116 5.15417 74.286 5.15417H78.1724C78.6473 5.15417 79.0314 5.53471 79.0314 6.00359V21.6586C79.0314 22.128 78.6468 22.508 78.1724 22.508H73.9257C73.6517 22.508 73.394 22.3785 73.2318 22.1598L67.3577 14.2149L67.3687 21.6572C67.3696 22.127 66.9845 22.508 66.5097 22.508Z" fill="white"/>
<path d="M4.44108 19.2235H0.65625V14.1392H4.39288V14.9096H1.49377V16.2784H4.29314V17.0483H1.49377V18.4536H4.44108V19.2235Z" fill="white"/>
<path d="M9.21086 19.2235H5.5V14.1392H6.33752V18.4465H9.21086V19.2235Z" fill="white"/>
<path d="M85.1549 14.1396C86.7784 14.1396 87.8497 15.1494 87.8497 16.6818C87.8497 18.2142 86.7784 19.2235 85.1549 19.2235H83.0938V14.1392H85.1549V14.1396ZM83.9313 14.9171V18.447H85.1549C86.3746 18.447 86.9712 17.706 86.9712 16.6823C86.9712 15.6473 86.3746 14.9175 85.1549 14.9175L83.9313 14.9171Z" fill="white"/>
<path d="M92.7614 19.2235H88.9766V14.1392H92.7132V14.9096H89.8146V16.2784H92.613V17.0483H89.8146V18.4536H92.7619V19.2235H92.7614Z" fill="white"/>
<path d="M99.7421 19.2235H96.0312V14.1392H96.8688V18.4465H99.7421V19.2235Z" fill="white"/>
<path d="M105.286 19.2235H104.385L103.873 17.9272H101.523L101.012 19.2235H100.141L102.191 14.1392H103.236L105.286 19.2235H105.286ZM101.83 17.1502H103.565L102.698 14.9563L101.83 17.1502Z" fill="white"/>
<path d="M119.762 6.2228V9.62373C119.762 10.0613 119.4 10.4161 118.953 10.4161H115.792C115.345 10.4161 114.983 10.7709 114.983 11.2085V21.7049C114.983 22.1424 114.621 22.4972 114.174 22.4972H110.228C109.782 22.4972 109.42 22.1424 109.42 21.7049V11.2085C109.42 10.7709 109.057 10.4161 108.611 10.4161H105.45C105.003 10.4161 104.641 10.0613 104.641 9.62373V6.2228C104.641 5.78524 105.003 5.43042 105.45 5.43042H118.952C119.399 5.43042 119.761 5.78524 119.761 6.2228H119.762Z" fill="white"/>
<path d="M135.735 6.2228V9.41711C135.735 9.85467 135.373 10.2095 134.926 10.2095H127.223V11.7943H134.628C135.074 11.7943 135.437 12.1491 135.437 12.5866V15.305C135.437 15.7426 135.074 16.0974 134.628 16.0974H127.223V17.7191H134.864C135.311 17.7191 135.673 18.0739 135.673 18.5115V21.7053C135.673 22.1429 135.311 22.4977 134.864 22.4977H122.469C122.022 22.4977 121.66 22.1429 121.66 21.7053V6.2228C121.66 5.78524 122.022 5.43042 122.469 5.43042H134.926C135.373 5.43042 135.735 5.78524 135.735 6.2228Z" fill="white"/>
<path d="M143.508 6.2228V16.7192C143.508 17.1567 143.87 17.5116 144.317 17.5116H150.539C150.986 17.5116 151.348 17.8664 151.348 18.3039V21.7049C151.348 22.1424 150.986 22.4972 150.539 22.4972H138.754C138.308 22.4972 137.945 22.1424 137.945 21.7049V6.2228C137.945 5.78524 138.308 5.43042 138.754 5.43042H142.699C143.146 5.43042 143.508 5.78524 143.508 6.2228Z" fill="white"/>
<path d="M167.321 6.2228V9.41711C167.321 9.85467 166.959 10.2095 166.512 10.2095H158.809V11.7943H166.214C166.66 11.7943 167.022 12.1491 167.022 12.5866V15.305C167.022 15.7426 166.66 16.0974 166.214 16.0974H158.809V17.7191H166.45C166.897 17.7191 167.259 18.0739 167.259 18.5115V21.7053C167.259 22.1429 166.897 22.4977 166.45 22.4977H154.055C153.608 22.4977 153.246 22.1429 153.246 21.7053V6.2228C153.246 5.78524 153.608 5.43042 154.055 5.43042H166.512C166.959 5.43042 167.321 5.78524 167.321 6.2228Z" fill="white"/>
<path d="M49.3638 0.70037L46.2094 0.716496C45.6493 0.719359 45.1977 1.16643 45.2006 1.71507L45.264 13.6109C45.2669 14.1595 45.7233 14.602 46.2833 14.5991L49.4377 14.583C49.9978 14.5801 50.4494 14.1331 50.4465 13.5844L50.3831 1.68857C50.3802 1.13994 49.9238 0.697507 49.3638 0.70037Z" fill="white"/>
<path d="M47.8532 25.7C41.1034 25.7 35.5848 20.2744 35.5509 13.6058C35.5304 9.62515 37.5009 5.89278 40.7598 3.61427C41.269 3.25852 41.9839 3.41372 42.3098 3.93683L43.9066 6.49957C44.1996 6.96939 44.0684 7.5687 43.626 7.90762C41.9462 9.1946 40.8381 11.1108 40.7402 13.2154C40.5532 17.2446 43.824 20.5876 47.8527 20.5876C51.8155 20.5684 54.9934 17.3919 54.9738 13.5071C54.9619 11.3315 53.9153 9.28062 52.1902 7.96232C51.7626 7.63555 51.6156 7.06803 51.8714 6.59914L53.3159 3.95319C53.6204 3.39549 54.3591 3.20803 54.8869 3.5722C58.1435 5.82032 60.1344 9.51716 60.1545 13.4805C60.1893 20.1823 54.6999 25.6631 47.9167 25.6981H47.8532V25.7Z" fill="white"/>
</g>
<defs>
<clipPath id="clip0_1124_5386">
<rect width="166.667" height="25" fill="white" transform="translate(0.65625 0.699951)"/>
</clipPath>
</defs>
</svg>
