<?xml version="1.0" encoding="utf-8"?>
<!-- Generator: Adobe Illustrator 19.0.0, SVG Export Plug-In . SVG Version: 6.00 Build 0)  -->
<svg version="1.1" id="Capa_1" xmlns="http://www.w3.org/2000/svg" xmlns:xlink="http://www.w3.org/1999/xlink" x="0px" y="0px"
	 width="512px" height="512px" viewBox="213 -225 512 512" style="enable-background:new 213 -225 512 512;" xml:space="preserve">
<style type="text/css">
	.st0{fill:#FFFFFF;}
</style>
<path class="st0" d="M511.4,22.3c23.8,23.8,23.8,62.5,0,86.3c-23.8,23.8-62.5,23.8-86.4,0s-23.8-62.5,0-86.4S487.6-1.5,511.4,22.3"
	/>
<path class="st0" d="M651.4-92.4h-42.2l-30.5-61.1H357.8l-30.5,61.1l-42.1,0.1c-33.6,0.1-60.9,27.4-61,61L224,212.9
	c0,33.7,27.4,61.1,61.1,61.1h366.3c33.7,0,61.1-27.4,61.1-61.1V-31.4C712.5-65,685.1-92.4,651.4-92.4z M468.2,197.6
	c-67.3,0-122.1-54.8-122.1-122.1S400.9-46.6,468.2-46.6S590.3,8.2,590.3,75.5S535.6,197.6,468.2,197.6L468.2,197.6z"/>
<polygon class="st0" points="712.5,-180.4 674.9,-180.4 674.9,-218 646.8,-218 646.8,-180.4 609.2,-180.4 609.2,-152.3 
	646.8,-152.3 646.8,-114.8 674.9,-114.8 674.9,-152.3 712.5,-152.3 "/>
</svg>
