<?xml version="1.0" encoding="utf-8"?>
<!-- Generator: Adobe Illustrator 22.1.0, SVG Export Plug-In . SVG Version: 6.00 Build 0)  -->
<svg version="1.1" id="Layer_1" xmlns="http://www.w3.org/2000/svg" xmlns:xlink="http://www.w3.org/1999/xlink" x="0px" y="0px"
	 viewBox="0 0 200 72" style="enable-background:new 0 0 200 72;" xml:space="preserve">
<style type="text/css">
	.st0{fill:#FFFFFF;}
</style>
<g>
	<g>
		<path class="st0" d="M27.3,19H31c0.2,0,0.4-0.2,0.4-0.4c0-0.2-0.2-0.4-0.4-0.4h-3.7c-0.2,0-0.4,0.2-0.4,0.4
			C26.8,18.8,27,19,27.3,19z M29.1,51.8c-1.1,0-1.9,0.9-1.9,1.9c0,1.1,0.9,1.9,1.9,1.9c1.1,0,1.9-0.9,1.9-1.9
			C31.1,52.7,30.2,51.8,29.1,51.8z M19.6,50.1h19.1V21.9H19.6V50.1z M80.8,40.9c-0.9,0-1.7,0.3-2.5,0.9c-0.7,0.6-1.2,1.4-1.4,2.4
			c-0.1,0.5-0.2,0.8-0.2,1.1V48c0,1.2,0.4,2.2,1.1,3c0.7,0.8,1.7,1.2,2.9,1.2c1.4,0,2.5-0.5,3.2-1.6c0.8-1.1,1.2-2.5,1.2-4.2
			c0-1.6-0.4-2.9-1.1-4C83.2,41.4,82.1,40.9,80.8,40.9z M147.7,40.6c-1.5,0-2.6,0.7-3.4,2c-0.7,1.1-1,2.4-1,4c0,1.5,0.3,2.8,1,3.9
			c0.8,1.3,1.9,2,3.3,2c1.4,0,2.5-0.7,3.3-2c0.7-1.1,1-2.4,1-3.9c0-1.5-0.3-2.8-1-3.9C150.2,41.3,149.2,40.6,147.7,40.6z M98.9,40.9
			c-0.9,0-1.7,0.3-2.5,0.9c-0.7,0.6-1.2,1.4-1.4,2.4c-0.1,0.5-0.2,0.8-0.2,1.1V48c0,1.2,0.4,2.2,1.1,3c0.7,0.8,1.7,1.2,2.9,1.2
			c1.4,0,2.5-0.5,3.2-1.6c0.8-1.1,1.2-2.5,1.2-4.2c0-1.6-0.4-2.9-1.1-4C101.3,41.4,100.3,40.9,98.9,40.9z M61,35L61,35
			c-0.3,1-0.7,2.4-1.2,4.3l-1.9,6h6.1l-1.9-6C62,38.7,61.6,37.2,61,35z M175.6,40.5c-1.2,0-2.2,0.5-2.9,1.5c-0.6,0.8-1,1.7-1.1,2.8
			h7.6c0-1.1-0.2-2-0.7-2.8C177.8,41,176.9,40.5,175.6,40.5z M41,53.9c0,2.1-1.7,3.8-3.8,3.8H21.1c-2.1,0-3.8-1.7-3.8-3.8V18.1
			c0-2.1,1.7-3.8,3.8-3.8h16.1c2.1,0,3.8,1.7,3.8,3.8V53.9z M66.9,54.8l-2.1-6.7h-7.4l-2,6.7h-3.8l7.4-22.9h4.6l7.4,22.9H66.9z
			 M86.5,53c-1.4,1.4-3.1,2.2-5.1,2.2c-2.2,0-3.8-0.8-4.7-2.3v8.7h-3.7V43.7c0-1.8,0-3.6-0.1-5.4h3.2l0.2,2.6h0.1
			c1.2-2,3.1-2.9,5.6-2.9c1.9,0,3.6,0.8,4.9,2.3c1.3,1.5,2,3.6,2,6.1C88.8,49.2,88.1,51.4,86.5,53z M104.7,53
			c-1.4,1.4-3.1,2.2-5.1,2.2c-2.2,0-3.8-0.8-4.7-2.3v8.7h-3.7V43.7c0-1.8,0-3.6-0.1-5.4h3.2l0.2,2.6h0.1c1.2-2,3.1-2.9,5.6-2.9
			c1.9,0,3.6,0.8,4.9,2.3c1.3,1.5,2,3.6,2,6.1C107,49.2,106.2,51.4,104.7,53z M125.7,53.1c-1.5,1.3-3.6,2-6.2,2
			c-2.5,0-4.4-0.5-5.9-1.4l0.9-3.1c1.6,0.9,3.4,1.4,5.3,1.4c1.4,0,2.5-0.3,3.2-0.9c0.8-0.6,1.2-1.5,1.2-2.5c0-0.9-0.3-1.7-0.9-2.3
			c-0.6-0.6-1.7-1.2-3.2-1.8c-4-1.5-6-3.7-6-6.6c0-1.9,0.7-3.4,2.1-4.6c1.4-1.2,3.3-1.8,5.6-1.8c2.1,0,3.8,0.4,5.2,1.1l-0.9,3
			c-1.3-0.7-2.8-1.1-4.4-1.1c-1.3,0-2.3,0.3-3,0.9c-0.6,0.6-0.9,1.3-0.9,2.1c0,0.9,0.4,1.6,1.1,2.2c0.6,0.5,1.7,1.1,3.3,1.8
			c2,0.8,3.4,1.7,4.4,2.8c0.9,1.1,1.4,2.4,1.4,4C127.7,50.3,127,51.9,125.7,53.1z M138.6,41h-4.1v8c0,2,0.7,3,2.1,3
			c0.7,0,1.2,0,1.6-0.2l0.1,2.8c-0.7,0.3-1.7,0.4-2.9,0.4c-1.4,0-2.6-0.4-3.4-1.3c-0.8-0.9-1.2-2.4-1.2-4.4V41h-2.4v-2.7h2.4v-3
			l3.6-1.1v4.1h4.1V41z M153.6,52.7c-1.5,1.7-3.5,2.5-6,2.5c-2.4,0-4.4-0.8-5.8-2.4c-1.4-1.6-2.2-3.6-2.2-6.1c0-2.6,0.7-4.7,2.2-6.3
			c1.5-1.6,3.5-2.4,6-2.4c2.4,0,4.4,0.8,5.9,2.4c1.4,1.6,2.1,3.6,2.1,6C155.8,48.9,155.1,51,153.6,52.7z M166.9,41.5
			c-0.4-0.1-0.8-0.1-1.2-0.1c-1.3,0-2.3,0.5-3,1.5c-0.6,0.9-0.9,1.9-0.9,3.3v8.7h-3.7V43.5c0-1.9,0-3.6-0.1-5.2h3.2l0.1,3.2h0.1
			c0.4-1.1,1-2,1.8-2.6c0.8-0.6,1.7-0.9,2.7-0.9c0.3,0,0.6,0,0.9,0.1V41.5z M182.6,47.4h-11c0,1.6,0.6,2.9,1.6,3.7
			c0.9,0.8,2.1,1.2,3.6,1.2c1.6,0,3.1-0.3,4.5-0.8l0.6,2.6c-1.6,0.7-3.4,1-5.5,1c-2.6,0-4.6-0.7-6-2.3c-1.5-1.5-2.2-3.5-2.2-6.1
			c0-2.5,0.7-4.6,2-6.2c1.4-1.8,3.4-2.6,5.8-2.6c2.4,0,4.2,0.9,5.4,2.6c1,1.4,1.5,3.1,1.5,5.2C182.7,46.4,182.6,47,182.6,47.4z"/>
	</g>
	<g>
		<path class="st0" d="M190.4,71.6H9.6C4.3,71.6,0,67.3,0,62V10c0-5.3,4.3-9.6,9.6-9.6h180.8c5.3,0,9.6,4.3,9.6,9.6v52
			C200,67.3,195.7,71.6,190.4,71.6z M9.6,2.9c-3.9,0-7.1,3.2-7.1,7.1v52c0,3.9,3.2,7.1,7.1,7.1h180.8c3.9,0,7.1-3.2,7.1-7.1V10
			c0-3.9-3.2-7.1-7.1-7.1H9.6z"/>
	</g>
	<g>
		<path class="st0" d="M52.6,15.9c0.9-0.1,2.1-0.2,3.3-0.2c2.1,0,3.4,0.4,4.5,1.2c1.1,0.8,1.8,2.2,1.8,4.1c0,2.1-0.8,3.5-1.8,4.4
			c-1.1,1-2.9,1.4-5,1.4c-1.3,0-2.2-0.1-2.8-0.2V15.9z M55,24.8c0.2,0,0.6,0,0.9,0c2.2,0,3.7-1.2,3.7-3.8c0-2.3-1.3-3.4-3.4-3.4
			c-0.5,0-0.9,0-1.1,0.1V24.8z"/>
		<path class="st0" d="M65.6,23.5c0.1,1,1.1,1.5,2.2,1.5c0.8,0,1.5-0.1,2.2-0.3l0.3,1.7c-0.8,0.3-1.8,0.5-2.9,0.5
			c-2.7,0-4.2-1.6-4.2-4c0-2,1.3-4.2,4-4.2c2.6,0,3.5,2,3.5,3.9c0,0.4,0,0.8-0.1,1H65.6z M68.5,21.8c0-0.6-0.3-1.6-1.4-1.6
			c-1,0-1.5,0.9-1.5,1.6H68.5z"/>
		<path class="st0" d="M72.2,24.5c0.4,0.3,1.4,0.6,2.1,0.6c0.7,0,1.1-0.2,1.1-0.7c0-0.4-0.3-0.6-1.2-0.9C72.6,23,72,22.1,72,21.2
			c0-1.5,1.3-2.6,3.2-2.6c0.9,0,1.7,0.2,2.2,0.5L77,20.7c-0.4-0.2-1-0.4-1.7-0.4c-0.6,0-0.9,0.2-0.9,0.6c0,0.4,0.3,0.6,1.3,0.9
			c1.5,0.5,2.1,1.3,2.1,2.4c0,1.5-1.1,2.6-3.4,2.6c-1,0-2-0.2-2.6-0.6L72.2,24.5z"/>
		<path class="st0" d="M85.2,26.5c-0.4,0.2-1.3,0.4-2.2,0.4c-2.6,0-4.2-1.6-4.2-4c0-2.3,1.6-4.2,4.5-4.2c0.6,0,1.4,0.1,1.9,0.3
			l-0.4,1.8c-0.3-0.1-0.7-0.3-1.4-0.3c-1.3,0-2.1,0.9-2.1,2.2c0,1.4,1,2.2,2.2,2.2c0.6,0,1-0.1,1.4-0.3L85.2,26.5z"/>
		<path class="st0" d="M91.1,26.7l-0.1-0.8h-0.1c-0.5,0.6-1.3,1-2.3,1c-1.6,0-2.6-1.2-2.6-2.4c0-2.1,1.8-3,4.6-3v-0.1
			c0-0.4-0.2-1-1.4-1c-0.8,0-1.7,0.3-2.2,0.6l-0.5-1.6c0.5-0.3,1.6-0.7,3.1-0.7c2.6,0,3.5,1.6,3.5,3.4v2.8c0,0.8,0,1.5,0.1,1.9H91.1
			z M90.8,22.9c-1.3,0-2.3,0.3-2.3,1.2c0,0.6,0.4,0.9,1,0.9c0.6,0,1.1-0.4,1.3-0.9c0-0.1,0-0.3,0-0.4V22.9z"/>
		<path class="st0" d="M95.1,21.4c0-1.2,0-1.9-0.1-2.6h2.1l0.1,1.5h0.1c0.4-1.2,1.4-1.6,2.1-1.6c0.2,0,0.3,0,0.5,0V21
			c-0.2,0-0.4-0.1-0.7-0.1c-0.9,0-1.5,0.5-1.7,1.2c0,0.2,0,0.3,0,0.5v4h-2.5V21.4z"/>
		<path class="st0" d="M108.6,18.8c0,0.5-0.1,1.2-0.1,2.4v4.4c0,1.5-0.3,2.8-1.2,3.6c-0.9,0.8-2,1-3.2,1c-1,0-2.1-0.2-2.8-0.6
			l0.5-1.9c0.5,0.3,1.4,0.6,2.3,0.6c1.2,0,2-0.6,2-2.1v-0.5h0c-0.5,0.6-1.2,1-2.1,1c-1.9,0-3.3-1.6-3.3-3.8c0-2.5,1.6-4.2,3.6-4.2
			c1.1,0,1.8,0.5,2.2,1.1h0l0.1-0.9H108.6z M106.1,22c0-0.2,0-0.3,0-0.5c-0.2-0.6-0.6-1.1-1.3-1.1c-0.9,0-1.6,0.8-1.6,2.2
			c0,1.2,0.6,2.1,1.6,2.1c0.6,0,1.1-0.4,1.3-1c0.1-0.2,0.1-0.4,0.1-0.7V22z"/>
		<path class="st0" d="M115,26.7l-0.1-0.8h-0.1c-0.5,0.6-1.3,1-2.3,1c-1.6,0-2.6-1.2-2.6-2.4c0-2.1,1.8-3,4.6-3v-0.1
			c0-0.4-0.2-1-1.4-1c-0.8,0-1.7,0.3-2.2,0.6l-0.5-1.6c0.6-0.3,1.6-0.7,3.1-0.7c2.6,0,3.5,1.6,3.5,3.4v2.8c0,0.8,0,1.5,0.1,1.9H115z
			 M114.7,22.9c-1.3,0-2.3,0.3-2.3,1.2c0,0.6,0.4,0.9,1,0.9c0.6,0,1.1-0.4,1.3-0.9c0-0.1,0-0.3,0-0.4V22.9z"/>
		<path class="st0" d="M119,21.4c0-1.2,0-1.9-0.1-2.6h2.1l0.1,1.5h0.1c0.4-1.2,1.4-1.6,2.1-1.6c0.2,0,0.3,0,0.5,0V21
			c-0.2,0-0.4-0.1-0.7-0.1c-0.9,0-1.5,0.5-1.7,1.2c0,0.2,0,0.3,0,0.5v4H119V21.4z"/>
		<path class="st0" d="M130.3,23.5c0.1,1,1.1,1.5,2.2,1.5c0.8,0,1.5-0.1,2.2-0.3l0.3,1.7c-0.8,0.3-1.8,0.5-2.9,0.5
			c-2.7,0-4.2-1.6-4.2-4c0-2,1.3-4.2,4-4.2c2.6,0,3.5,2,3.5,3.9c0,0.4,0,0.8-0.1,1H130.3z M133.2,21.8c0-0.6-0.3-1.6-1.4-1.6
			c-1,0-1.5,0.9-1.5,1.6H133.2z"/>
		<path class="st0" d="M137,21.3c0-1,0-1.8-0.1-2.5h2.1l0.1,1.1h0.1c0.3-0.5,1.1-1.3,2.4-1.3c1.6,0,2.8,1.1,2.8,3.4v4.7H142v-4.4
			c0-1-0.4-1.7-1.2-1.7c-0.7,0-1.1,0.5-1.2,0.9c-0.1,0.2-0.1,0.4-0.1,0.6v4.6H137V21.3z"/>
	</g>
</g>
</svg>
