<?xml version="1.0" encoding="utf-8"?>
<!-- Generator: Adobe Illustrator 22.1.0, SVG Export Plug-In . SVG Version: 6.00 Build 0)  -->
<svg version="1.1" id="Layer_1" xmlns="http://www.w3.org/2000/svg" xmlns:xlink="http://www.w3.org/1999/xlink" x="0px" y="0px"
	 viewBox="0 0 215 72" style="enable-background:new 0 0 215 72;" xml:space="preserve">
<style type="text/css">
	.st0{fill:#FFFFFF;}
</style>
<g>
	<path class="st0" d="M204.3,0H10.7C4.8,0,0,4.8,0,10.6v50.7C0,67.2,4.8,72,10.7,72h193.6c5.9,0,10.6-4.8,10.6-10.6V10.6
		C215,4.8,210.2,0,204.3,0z M212.5,61.4c0,4.5-3.6,8.1-8.1,8.1H10.7c-4.5,0-8.1-3.6-8.1-8.1V10.6c0-4.5,3.6-8.1,8.1-8.1h193.6
		c4.5,0,8.1,3.6,8.1,8.1V61.4z"/>
	<path class="st0" d="M76.2,38.1v2.5h7.5c-0.2,1.8-0.7,3.2-1.7,4.2c-1.5,1.5-3.5,2.3-5.8,2.3c-2.2,0-4.1-0.8-5.6-2.3
		c-1.6-1.5-2.4-3.5-2.4-6c0-2.4,0.8-4.4,2.4-6c1.6-1.5,3.5-2.3,5.6-2.3c2.4,0,4.3,0.8,5.7,2.5l1.8-1.8c-0.8-1-1.9-1.7-3.2-2.3
		c-1.3-0.6-2.8-0.9-4.2-0.9c-3,0-5.5,1-7.6,3.1c-2.1,2.1-3.1,4.6-3.1,7.7s1,5.6,3.1,7.7c2.1,2.1,4.6,3.1,7.6,3.1
		c3.1,0,5.6-1,7.6-3.1c1.7-1.7,2.6-4,2.6-6.9c0-0.5,0-1-0.1-1.6H76.2z"/>
	<path class="st0" d="M94.7,34.5c-2.1,0-3.9,0.7-5.2,2.1c-1.4,1.4-2,3.2-2,5.4s0.7,3.9,2,5.4c1.4,1.4,3.1,2.1,5.2,2.1
		c2.1,0,3.9-0.7,5.2-2.1c1.4-1.4,2-3.2,2-5.4s-0.7-3.9-2-5.4C98.5,35.2,96.8,34.5,94.7,34.5z M97.9,45.8c-0.9,0.9-2,1.4-3.2,1.4
		c-1.3,0-2.3-0.5-3.2-1.4c-0.9-0.9-1.4-2.2-1.4-3.7c0-1.5,0.5-2.8,1.4-3.7c0.9-0.9,2-1.4,3.2-1.4c1.2,0,2.3,0.5,3.2,1.4
		c0.9,0.9,1.4,2.2,1.4,3.7C99.3,43.6,98.8,44.8,97.9,45.8z"/>
	<path class="st0" d="M110.1,34.5c-2.1,0-3.9,0.7-5.2,2.1c-1.4,1.4-2,3.2-2,5.4s0.7,3.9,2,5.4c1.4,1.4,3.1,2.1,5.2,2.1
		c2.1,0,3.9-0.7,5.2-2.1c1.4-1.4,2-3.2,2-5.4s-0.7-3.9-2-5.4C114,35.2,112.2,34.5,110.1,34.5z M113.3,45.8c-0.9,0.9-2,1.4-3.2,1.4
		c-1.3,0-2.3-0.5-3.2-1.4c-0.9-0.9-1.4-2.2-1.4-3.7c0-1.5,0.5-2.8,1.4-3.7c0.9-0.9,2-1.4,3.2-1.4c1.2,0,2.3,0.5,3.2,1.4
		c0.9,0.9,1.4,2.2,1.4,3.7C114.7,43.6,114.3,44.8,113.3,45.8z"/>
	<path class="st0" d="M129.9,36.9h-0.1c-0.5-0.7-1.1-1.3-2-1.7c-0.8-0.5-1.8-0.7-2.9-0.7c-1.8,0-3.4,0.7-4.7,2.2
		c-1.3,1.4-2,3.2-2,5.4c0,2.1,0.7,3.9,2,5.4c1.3,1.4,2.9,2.2,4.7,2.2c1.1,0,2-0.2,2.9-0.7c0.8-0.5,1.5-1,2-1.7h0.1v1.4
		c0,1.5-0.4,2.7-1.3,3.6c-0.8,0.9-2,1.3-3.4,1.3c-0.9,0-1.7-0.3-2.5-0.8c-0.7-0.5-1.2-1.2-1.5-1.9l-2.4,1c0.5,1.1,1.2,2,2.3,2.9
		c1.1,0.8,2.4,1.3,4.1,1.3c2,0,3.7-0.6,5.1-1.9c1.4-1.3,2.1-3.1,2.1-5.5V35h-2.5V36.9z M128.6,45.8c-0.9,0.9-1.9,1.4-3.2,1.4
		c-1.2,0-2.3-0.5-3.2-1.4c-0.9-0.9-1.3-2.2-1.3-3.7c0-1.5,0.4-2.8,1.3-3.7c0.9-0.9,1.9-1.4,3.2-1.4c1.2,0,2.3,0.5,3.2,1.4
		c0.9,0.9,1.3,2.2,1.3,3.7C129.9,43.6,129.5,44.8,128.6,45.8z"/>
	<rect x="135" y="28.5" class="st0" width="2.7" height="20.6"/>
	<path class="st0" d="M146.1,34.5c-2,0-3.7,0.7-5,2.2c-1.3,1.5-1.9,3.2-1.9,5.3c0,2.2,0.7,4,2,5.4c1.3,1.4,3.1,2.1,5.2,2.1
		c1.5,0,2.8-0.4,3.9-1.1c1.1-0.7,1.8-1.7,2.3-2.8l-2.4-1c-0.7,1.6-2,2.4-3.9,2.4c-1.2,0-2.2-0.4-3.1-1.2c-0.9-0.8-1.4-2-1.4-3.4H153
		l0-0.5c0-2.3-0.6-4.1-1.9-5.5C149.9,35.2,148.2,34.5,146.1,34.5z M142,40.3c0.3-1,0.8-1.9,1.5-2.5c0.7-0.6,1.6-0.9,2.6-0.9
		c1.3,0,2.4,0.4,3,1.1c0.7,0.7,1.1,1.5,1.1,2.3H142z"/>
	<path class="st0" d="M167.8,28.5h-7v20.6h2.7v-8.4h4.4c1.7,0,3.3-0.6,4.5-1.7c1.3-1.2,1.9-2.6,1.9-4.4c0-1.8-0.6-3.2-1.9-4.4
		C171.1,29.1,169.6,28.5,167.8,28.5z M170.6,37.1c-0.7,0.7-1.6,1.1-2.7,1.1h-4.4V31h4.4c1.1,0,2,0.4,2.7,1.1c0.7,0.7,1,1.6,1,2.5
		C171.6,35.5,171.2,36.3,170.6,37.1z"/>
	<rect x="176" y="28.5" class="st0" width="2.7" height="20.6"/>
	<path class="st0" d="M186.5,34.5c-1.6,0-2.8,0.4-3.8,1.1c-1,0.7-1.6,1.5-1.9,2.3l2.4,1c0.2-0.6,0.7-1.1,1.3-1.5
		c0.6-0.4,1.3-0.5,2.1-0.5c1,0,1.9,0.3,2.6,0.9c0.7,0.6,1.1,1.5,1.1,2.5v0.4c-1-0.6-2.3-0.9-3.8-0.9c-1.7,0-3.2,0.4-4.4,1.3
		c-1.2,0.9-1.8,2.1-1.8,3.6c0,1.4,0.5,2.6,1.5,3.4c1,0.9,2.3,1.3,3.8,1.3c2,0,3.6-0.8,4.6-2.4h0.1v2h2.5v-8.5c0-1.9-0.6-3.4-1.8-4.5
		C189.8,35.1,188.3,34.5,186.5,34.5z M188.9,45.9c-0.9,0.8-1.9,1.2-3,1.2c-0.8,0-1.5-0.2-2-0.6c-0.6-0.4-0.9-1-0.9-1.6
		c0-0.8,0.3-1.4,1-2c0.7-0.6,1.6-0.8,2.9-0.8c1.5,0,2.6,0.3,3.4,0.9C190.2,44.1,189.8,45.1,188.9,45.9z"/>
	<polygon class="st0" points="200.4,45.1 200.4,45.1 196.2,35 193.3,35 199.1,48.2 195.8,55.3 198.6,55.3 207.4,35 204.5,35 	"/>
	<path class="st0" d="M39.3,38.8c-2.9-2.9-5.8-5.8-8.6-8.8c-4.4-4.5-8.9-9-13.3-13.6c-0.3-0.3-0.4-0.2-0.7,0
		c-0.6,0.6-0.7,1.4-0.7,2.2c0,6.6,0,13.2,0,19.8c0,0,0,0,0,0c0,2.8,0,5.5,0,8.3c0,3.9,0,7.8,0,11.7c0,0.9,0.3,1.7,1,2.3
		c0.4,0.3,0.7,0.4,1.1-0.1c7-7.1,14.1-14.1,21.2-21.1C39.6,39.2,39.6,39.1,39.3,38.8z"/>
	<path class="st0" d="M40.3,38c0.3,0.3,0.4,0.2,0.6,0c2-2,4-4,6-6c0.3-0.3,0.3-0.4-0.1-0.7c-9-5-18.1-10.1-27.1-15.2
		c-0.4-0.2-0.7-0.4-1.3-0.4c0.1,0.2,0.2,0.2,0.2,0.3C25.9,23.4,33.1,30.7,40.3,38z"/>
	<path class="st0" d="M41.1,40.6c-0.4-0.4-0.6-0.4-1,0c-6.5,6.6-13.1,13.3-19.7,19.9c0.1,0,0.2-0.2,0.3-0.2
		c8.4-4.6,16.8-9.2,25.2-13.8c0.4-0.2,0.4-0.3,0.1-0.6C44.5,44.1,42.8,42.4,41.1,40.6z"/>
	<path class="st0" d="M56.6,36.7c-2.5-1.4-5-2.8-7.6-4.2c-0.3-0.2-0.5-0.1-0.7,0.1c-2.1,2.1-4.2,4.2-6.4,6.3c-0.3,0.3-0.3,0.4,0,0.7
		c1.8,1.8,3.7,3.7,5.5,5.6c0.3,0.3,0.5,0.3,0.8,0.1c2.5-1.4,5.1-2.8,7.6-4.2c0.4-0.2,0.9-0.5,1.3-0.8c0.5-0.4,0.9-0.9,0.9-1.7
		C57.9,37.7,57.3,37.1,56.6,36.7z"/>
	<path class="st0" d="M69,20.9c0.3-0.1,0.7-0.3,1-0.6c0.6-0.5,0.9-1.2,0.9-2.1c0-0.9-0.3-1.6-0.9-2.1c-0.3-0.3-0.6-0.5-1-0.6
		c-0.3-0.1-0.8-0.2-1.4-0.2h-1.2V21h1.2C68.2,21,68.7,21,69,20.9z M67.3,16.1h0.4c0.7,0,1.3,0.2,1.7,0.5c0.4,0.4,0.6,0.9,0.6,1.5
		c0,0.6-0.2,1.1-0.6,1.5c-0.2,0.2-0.4,0.3-0.7,0.4c-0.3,0.1-0.6,0.1-1,0.1h-0.4V16.1z"/>
	<polygon class="st0" points="75.1,20.2 72.8,20.2 72.8,18.3 75,18.3 75,17.5 72.8,17.5 72.8,16.1 75.1,16.1 75.1,15.3 72,15.3 
		72,21 75.1,21 	"/>
	<path class="st0" d="M77.8,20.3c-0.3,0-0.6-0.1-0.8-0.4c-0.1-0.1-0.2-0.4-0.2-0.7l-0.9,0.2c0.1,0.5,0.3,0.9,0.6,1.2
		c0.3,0.3,0.7,0.4,1.2,0.4c0.5,0,1-0.2,1.3-0.5c0.3-0.3,0.5-0.8,0.5-1.3c0-0.4-0.1-0.7-0.3-1c-0.2-0.3-0.6-0.5-1-0.7l-0.6-0.2
		c-0.4-0.2-0.6-0.4-0.6-0.7c0-0.2,0.1-0.4,0.2-0.5c0.2-0.1,0.4-0.2,0.6-0.2c0.2,0,0.4,0,0.5,0.1c0.1,0.1,0.2,0.2,0.4,0.4l0.7-0.4
		c-0.4-0.6-0.9-1-1.5-1c-0.5,0-0.9,0.1-1.2,0.4c-0.3,0.3-0.5,0.6-0.5,1.1c0,0.6,0.4,1.1,1.2,1.4l0.5,0.2c0.1,0.1,0.3,0.1,0.4,0.2
		c0.1,0.1,0.2,0.1,0.3,0.2c0.1,0.1,0.1,0.2,0.1,0.3c0,0.1,0,0.2,0,0.3c0,0.3-0.1,0.5-0.3,0.7C78.3,20.2,78.1,20.3,77.8,20.3z"/>
	<path class="st0" d="M83.3,21.1c0.5,0,1.1-0.1,1.5-0.4v-1c-0.1,0.1-0.3,0.2-0.4,0.3c-0.1,0.1-0.2,0.1-0.4,0.2
		c-0.2,0.1-0.5,0.1-0.8,0.1c-0.6,0-1.1-0.2-1.5-0.6c-0.4-0.4-0.6-0.9-0.6-1.5c0-0.6,0.2-1.1,0.6-1.5c0.4-0.4,0.9-0.6,1.5-0.6
		c0.5,0,1,0.2,1.5,0.6v-1c-0.5-0.3-1-0.4-1.5-0.4c-0.9,0-1.7,0.3-2.3,1c-0.5,0.6-0.7,1.2-0.7,1.9c0,0.8,0.3,1.5,0.9,2.1
		C81.8,20.8,82.5,21.1,83.3,21.1z"/>
	<path class="st0" d="M90,21h0.9l-2.7-6l-2.8,6h0.9l0.6-1.4h2.4L90,21z M87.3,18.8l0.9-1.9l0.8,1.9H87.3z"/>
	<path class="st0" d="M92.5,18.7h0.2l1.6,2.3h1.1l-1.8-2.4c0.4-0.1,0.7-0.3,0.9-0.6c0.2-0.3,0.3-0.6,0.3-1c0-0.5-0.2-0.9-0.6-1.2
		c-0.3-0.3-0.9-0.4-1.6-0.4h-1V21h0.9V18.7z M92.5,16.1h0.3c0.8,0,1.2,0.3,1.2,0.9c0,0.6-0.4,0.9-1.2,0.9h-0.3V16.1z"/>
	<path class="st0" d="M98.7,21.1c0.8,0,1.5-0.3,2-0.9c0.2-0.3,0.4-0.6,0.5-0.9c0.1-0.3,0.2-0.7,0.2-1.1v-0.2H99v0.8h1.4
		c0,0.4-0.2,0.7-0.6,1c-0.3,0.3-0.7,0.4-1.1,0.4c-0.5,0-1-0.2-1.4-0.6c-0.5-0.4-0.7-0.9-0.7-1.6c0-0.6,0.2-1.1,0.6-1.5
		c0.4-0.4,0.9-0.6,1.5-0.6c0.7,0,1.2,0.3,1.7,0.9l0.6-0.6c-0.4-0.4-0.7-0.7-1.1-0.9c-0.4-0.2-0.8-0.3-1.2-0.3
		c-0.8,0-1.5,0.3-2.1,0.9c-0.6,0.6-0.9,1.3-0.9,2.1c0,0.8,0.3,1.5,0.9,2.1C97.2,20.8,97.9,21.1,98.7,21.1z"/>
	<path class="st0" d="M105.5,19.6l0.6,1.4h0.9l-2.7-6l-2.8,6h0.9l0.6-1.4H105.5z M104.3,16.9l0.8,1.9h-1.7L104.3,16.9z"/>
	<path class="st0" d="M108.6,18.7h0.2l1.6,2.3h1.1l-1.8-2.4c0.4-0.1,0.7-0.3,0.9-0.6c0.2-0.3,0.3-0.6,0.3-1c0-0.5-0.2-0.9-0.6-1.2
		c-0.3-0.3-0.9-0.4-1.6-0.4h-1V21h0.9V18.7z M108.6,16.1h0.3c0.8,0,1.2,0.3,1.2,0.9c0,0.6-0.4,0.9-1.2,0.9h-0.3V16.1z"/>
	<path class="st0" d="M115.5,18.7h0.4c0.6,0,1.1-0.2,1.4-0.5c0.3-0.3,0.5-0.7,0.5-1.2c0-0.5-0.2-0.9-0.5-1.2
		c-0.2-0.2-0.4-0.3-0.6-0.4c-0.2-0.1-0.6-0.1-1.1-0.1h-1V21h0.9V18.7z M115.5,16.1h0.3c0.8,0,1.2,0.3,1.2,0.9c0,0.6-0.4,0.9-1.2,0.9
		h-0.3V16.1z"/>
	<path class="st0" d="M119.2,19.6h2.4l0.6,1.4h0.9l-2.7-6l-2.8,6h0.9L119.2,19.6z M120.4,16.9l0.8,1.9h-1.7L120.4,16.9z"/>
	<path class="st0" d="M124.7,18.7h0.2l1.6,2.3h1.1l-1.8-2.4c0.4-0.1,0.7-0.3,0.9-0.6c0.2-0.3,0.3-0.6,0.3-1c0-0.5-0.2-0.9-0.6-1.2
		c-0.3-0.3-0.9-0.4-1.6-0.4h-1V21h0.9V18.7z M124.7,16.1h0.3c0.8,0,1.2,0.3,1.2,0.9c0,0.6-0.4,0.9-1.2,0.9h-0.3V16.1z"/>
	<path class="st0" d="M127.7,21h0.9l0.6-1.4h2.4l0.6,1.4h0.9l-2.7-6L127.7,21z M129.7,18.8l0.9-1.9l0.8,1.9H129.7z"/>
	<path class="st0" d="M137.2,19.6h2.4l0.6,1.4h0.9l-2.7-6l-2.8,6h0.9L137.2,19.6z M138.5,16.9l0.8,1.9h-1.7L138.5,16.9z"/>
	<polygon class="st0" points="142.8,17 146.9,21.4 146.9,15.3 146.1,15.3 146.1,19.3 141.9,14.9 141.9,21 142.8,21 	"/>
	<path class="st0" d="M150.8,20.9c0.3-0.1,0.7-0.3,1-0.6c0.6-0.5,0.9-1.2,0.9-2.1c0-0.9-0.3-1.6-0.9-2.1c-0.3-0.3-0.6-0.5-1-0.6
		c-0.3-0.1-0.8-0.2-1.4-0.2h-1.2V21h1.2C150,21,150.5,21,150.8,20.9z M149.1,16.1h0.4c0.7,0,1.3,0.2,1.7,0.5
		c0.4,0.4,0.6,0.9,0.6,1.5c0,0.6-0.2,1.1-0.6,1.5c-0.2,0.2-0.4,0.3-0.7,0.4c-0.3,0.1-0.6,0.1-1,0.1h-0.4V16.1z"/>
	<path class="st0" d="M156.6,18c0.2-0.3,0.3-0.6,0.3-1c0-0.5-0.2-0.9-0.6-1.2c-0.3-0.3-0.9-0.4-1.6-0.4h-1V21h0.9v-2.3h0.2l1.6,2.3
		h1.1l-1.8-2.4C156.1,18.5,156.4,18.3,156.6,18z M154.6,17.9v-1.8h0.3c0.8,0,1.2,0.3,1.2,0.9c0,0.6-0.4,0.9-1.2,0.9H154.6z"/>
	<path class="st0" d="M163,20.3c0.6-0.6,0.9-1.3,0.9-2.1c0-0.8-0.3-1.5-0.9-2.1c-0.6-0.6-1.3-0.9-2.1-0.9c-0.8,0-1.5,0.3-2.1,0.9
		c-0.6,0.6-0.9,1.3-0.9,2.1c0,0.9,0.3,1.6,1,2.2c0.6,0.5,1.2,0.8,2,0.8C161.7,21.1,162.4,20.8,163,20.3z M158.8,18.2
		c0-0.6,0.2-1.1,0.6-1.5c0.4-0.4,0.9-0.6,1.5-0.6c0.6,0,1.1,0.2,1.5,0.6c0.4,0.4,0.6,0.9,0.6,1.5c0,0.6-0.2,1.1-0.6,1.5
		c-0.4,0.4-0.9,0.6-1.5,0.6c-0.6,0-1-0.2-1.5-0.6C159,19.3,158.8,18.8,158.8,18.2z"/>
	<rect x="164.9" y="15.3" class="st0" width="0.9" height="5.7"/>
	<path class="st0" d="M169.7,20.9c0.3-0.1,0.7-0.3,1-0.6c0.6-0.5,0.9-1.2,0.9-2.1c0-0.9-0.3-1.6-0.9-2.1c-0.3-0.3-0.6-0.5-1-0.6
		c-0.3-0.1-0.8-0.2-1.4-0.2h-1.2V21h1.2C168.9,21,169.3,21,169.7,20.9z M168,16.1h0.4c0.7,0,1.3,0.2,1.7,0.5
		c0.4,0.4,0.6,0.9,0.6,1.5c0,0.6-0.2,1.1-0.6,1.5c-0.2,0.2-0.4,0.3-0.7,0.4c-0.3,0.1-0.6,0.1-1,0.1H168V16.1z"/>
	<polygon class="st0" points="178.1,20.2 175.8,20.2 175.8,18.3 178,18.3 178,17.5 175.8,17.5 175.8,16.1 178.1,16.1 178.1,15.3 
		174.9,15.3 174.9,21 178.1,21 	"/>
	<polygon class="st0" points="184.2,15.3 183.4,15.3 183.4,19.3 179.2,14.9 179.2,21 180.1,21 180.1,17 184.2,21.4 	"/>
</g>
</svg>
