<svg width="93" height="22" viewBox="0 0 93 22" fill="none" xmlns="http://www.w3.org/2000/svg">
<path d="M10.2182 0.19519H12.3502C15.6025 0.533123 18.2179 1.96883 20.1964 4.5023C20.2097 4.51907 20.2193 4.53843 20.2247 4.55915C20.23 4.57986 20.231 4.60147 20.2275 4.62258C20.2241 4.64369 20.2162 4.66385 20.2045 4.68176C20.1928 4.69966 20.1775 4.71492 20.1595 4.72656L14.8478 8.23799C14.768 8.28919 14.6953 8.281 14.6297 8.21341C11.7634 5.25189 6.58077 7.00607 7.08767 11.3838C7.52391 15.1779 12.1014 16.4375 14.4976 13.7248C14.5476 13.6669 14.6171 13.6293 14.693 13.6191C14.7688 13.6089 14.8457 13.6269 14.9093 13.6695L20.0981 17.0949C20.2046 17.1625 20.2251 17.2506 20.1595 17.3591C18.6112 19.8936 15.0967 21.4297 12.2365 21.7H10.2581C7.92124 21.4563 5.9131 20.6596 4.23368 19.3099C-1.12409 15.0059 -0.967416 6.33942 4.62383 2.2873C6.22953 1.12399 8.0943 0.426623 10.2182 0.19519Z" fill="white"/>
<path d="M30.0219 14.9415H28.618C28.4644 14.9415 28.3876 15.0183 28.3876 15.172V21.0858C28.3876 21.2394 28.3108 21.3162 28.1572 21.3162H21.8593C21.7057 21.3162 21.6289 21.2394 21.6289 21.0858V0.662353C21.6289 0.572237 21.674 0.526156 21.7641 0.524108C25.0533 0.464713 28.3609 0.483146 31.687 0.579406C34.326 0.656209 37.0663 1.80211 38.3535 4.20757C39.9111 7.11072 39.5578 11.4762 36.5471 13.4362C36.4906 13.4731 36.4503 13.5299 36.4343 13.595C36.4183 13.6602 36.4279 13.7286 36.4611 13.7864L40.6299 21.1349C40.64 21.1536 40.6451 21.1746 40.6447 21.1958C40.6442 21.217 40.6383 21.2377 40.6275 21.256C40.6167 21.2742 40.6013 21.2894 40.5829 21.2999C40.5645 21.3105 40.5436 21.3161 40.5224 21.3162H33.6102C33.5408 21.3162 33.4727 21.297 33.4136 21.2607C33.3545 21.2243 33.3066 21.1723 33.2753 21.1104L30.2677 15.0921C30.2165 14.9917 30.1346 14.9415 30.0219 14.9415ZM28.3906 6.61304L28.3783 9.35951C28.3783 9.41166 28.3991 9.46167 28.4359 9.49854C28.4728 9.53541 28.5228 9.55613 28.575 9.55613L30.5411 9.56227C30.7922 9.56326 31.041 9.527 31.2733 9.45558C31.5055 9.38415 31.7167 9.27895 31.8947 9.146C32.0728 9.01304 32.2142 8.85494 32.3108 8.68072C32.4075 8.5065 32.4575 8.31959 32.4581 8.13067V7.86646C32.4593 7.48538 32.2593 7.11925 31.9021 6.8485C31.545 6.57776 31.0599 6.42456 30.5534 6.42257L28.5872 6.41642C28.5351 6.41642 28.4851 6.43714 28.4482 6.47401C28.4113 6.51088 28.3906 6.56089 28.3906 6.61304Z" fill="white"/>
<path d="M48.6329 0.503418H42.2429C42.1411 0.503418 42.0586 0.585944 42.0586 0.687745V21.1357C42.0586 21.2375 42.1411 21.3201 42.2429 21.3201H48.6329C48.7347 21.3201 48.8172 21.2375 48.8172 21.1357V0.687745C48.8172 0.585944 48.7347 0.503418 48.6329 0.503418Z" fill="white"/>
<path d="M58.2417 18.5244L57.5167 21.1419C57.486 21.2586 57.4102 21.317 57.2894 21.317H50.4385C50.4123 21.3169 50.3866 21.3106 50.3633 21.2985C50.34 21.2865 50.3199 21.2692 50.3046 21.2479C50.2893 21.2266 50.2793 21.202 50.2753 21.1761C50.2714 21.1502 50.2736 21.1237 50.2819 21.0989L57.105 0.66624C57.1399 0.557692 57.2146 0.503418 57.3293 0.503418H65.1786C65.2199 0.503511 65.2602 0.516273 65.2938 0.539939C65.3273 0.563605 65.3526 0.597006 65.366 0.635519L72.2229 21.1296C72.2297 21.1513 72.2314 21.1744 72.2278 21.1968C72.2242 21.2193 72.2155 21.2405 72.2023 21.2588C72.1891 21.277 72.1719 21.2918 72.152 21.302C72.1321 21.3121 72.1101 21.3172 72.0877 21.317H65.1632C65.1212 21.3171 65.0803 21.3032 65.047 21.2777C65.0137 21.2521 64.9897 21.2163 64.9789 21.1757L64.2477 18.4814C64.2231 18.3913 64.1668 18.3637 64.0787 18.3985C62.2088 19.1419 60.34 19.145 58.4721 18.4077C58.3533 18.3606 58.2765 18.3995 58.2417 18.5244ZM59.9283 11.6337C59.3753 13.8733 63.2493 14.2696 62.4567 11.262C62.1003 9.90409 61.7265 8.54314 61.3353 7.17912C61.2903 7.02347 61.2422 7.02245 61.191 7.17605C60.7158 8.65476 60.2949 10.1406 59.9283 11.6337Z" fill="white"/>
<path d="M89.5447 2.99435C92.1929 5.93436 91.8396 11.203 88.4848 13.5225C88.4535 13.5441 88.4315 13.5768 88.423 13.6142C88.4145 13.6517 88.4201 13.6912 88.4387 13.7252L92.6353 21.126C92.7069 21.253 92.6701 21.3164 92.5247 21.3164H85.6063C85.4772 21.3164 85.383 21.2581 85.3236 21.1413L82.2669 15.1138C82.24 15.062 82.1997 15.0186 82.1504 14.9883C82.1011 14.9579 82.0447 14.9419 81.9873 14.9418H80.6141C80.4605 14.9418 80.3837 15.0186 80.3837 15.1722V21.086C80.3837 21.2396 80.3069 21.3164 80.1532 21.3164H73.8554C73.7018 21.3164 73.625 21.2396 73.625 21.086V0.659542C73.625 0.620433 73.6402 0.582926 73.6673 0.555271C73.6944 0.527617 73.7311 0.512081 73.7694 0.512081C76.5671 0.487504 79.3862 0.492624 82.2269 0.527441C84.9212 0.561235 87.7475 0.997475 89.5447 2.99435ZM80.3867 6.55493L80.3806 9.42429C80.3806 9.44123 80.3839 9.45801 80.3904 9.47366C80.3969 9.48932 80.4064 9.50354 80.4184 9.51552C80.4304 9.52751 80.4446 9.53701 80.4602 9.54349C80.4759 9.54998 80.4927 9.55332 80.5096 9.55332L82.6447 9.55639C82.8824 9.55687 83.1179 9.52133 83.3376 9.4518C83.5573 9.38227 83.7571 9.28011 83.9254 9.15116C84.0937 9.02221 84.2273 8.86899 84.3186 8.70026C84.4098 8.53153 84.457 8.3506 84.4573 8.16779V7.82371C84.4579 7.45472 84.268 7.10051 83.9292 6.83896C83.5905 6.57741 83.1306 6.42994 82.6509 6.42898L80.5158 6.4259C80.4815 6.4259 80.4487 6.4395 80.4245 6.46369C80.4003 6.48789 80.3867 6.52071 80.3867 6.55493Z" fill="white"/>
</svg>
