<svg xmlns="http://www.w3.org/2000/svg" width="45" height="18" viewBox="0 0 45 18" fill="none">
    <g clip-path="url(#clip0_11014_10857)">
        <path d="M10.6996 11.8839C10.982 11.3719 10.8139 10.7176 10.3297 10.4188L1.59988 5.09193C1.11564 4.79323 0.49689 4.97103 0.214416 5.4831C-0.0680573 5.99516 0.100082 6.64947 0.584322 6.94818L9.3141 12.2751C9.47551 12.3747 9.65038 12.4173 9.81852 12.4173C10.1682 12.4173 10.5113 12.2253 10.6996 11.8839Z" fill="white"/>
        <path d="M7.72165 13.8029C8.00369 13.2918 7.83581 12.6387 7.35232 12.3406L1.59751 8.82677C1.11402 8.52863 0.496235 8.70609 0.214202 9.21719C-0.0678309 9.72829 0.100046 10.3814 0.583531 10.6795L6.33835 14.1933C6.49951 14.2927 6.6741 14.3353 6.84198 14.3353C7.19788 14.3353 7.54035 14.1436 7.72165 13.8029Z" fill="white"/>
        <path d="M4.744 15.6212C5.02505 15.111 4.85776 14.4592 4.37596 14.1616L1.59222 12.461C1.11041 12.1634 0.494776 12.3406 0.213725 12.8507C-0.0673262 13.3609 0.0999662 14.0128 0.581768 14.3104L3.36552 16.0109C3.52612 16.1101 3.7001 16.1526 3.86739 16.1526C4.21536 16.1526 4.55664 15.9613 4.744 15.6212Z" fill="white"/>
        <path d="M1.08587 17.9698C1.64297 17.9698 2.09459 17.4726 2.09459 16.8593C2.09459 16.246 1.64297 15.7488 1.08587 15.7488C0.52877 15.7488 0.0771484 16.246 0.0771484 16.8593C0.0771484 17.4726 0.52877 17.9698 1.08587 17.9698Z" fill="white"/>
        <path fill-rule="evenodd" clip-rule="evenodd" d="M44.3208 12.6704C44.3208 15.8739 42.3312 18.0001 39.3772 18.0001V17.993H38.804C35.8499 17.993 33.8604 15.8668 33.8604 12.6634V10.2679C33.8604 7.08567 35.8499 4.93823 38.804 4.93823H39.3772C42.3312 4.93823 44.3208 7.08567 44.3208 10.2679V12.6704ZM42.3784 12.55V10.3813C42.3784 8.19129 41.0768 6.78802 39.0872 6.78802C37.0976 6.78802 35.796 8.19129 35.796 10.3813V12.55C35.796 14.7399 37.0976 16.1432 39.0872 16.1432C41.0768 16.1432 42.3784 14.7399 42.3784 12.55Z" fill="white"/>
        <path d="M26.6441 9.66736V10.2601V12.0594V17.7679H24.6827V12.0594V10.8457V10.2389C24.6827 8.14323 23.5018 6.7955 21.6898 6.7955C19.8641 6.7955 18.7104 8.14323 18.7104 10.2389V10.8457V12.0594V12.5322V17.7608C18.69 17.7396 18.6697 17.782 18.6561 17.7608H16.749V5.14435H17.6856H18.6561V6.48503C19.4705 5.45482 20.7396 4.94678 22.0427 4.94678C24.6284 4.95383 26.4269 6.82372 26.6441 9.66736Z" fill="white"/>
        <path d="M30.6426 0.504883C29.4619 0.504883 28.6611 1.28473 28.6611 2.44033V17.7679H30.6223V7.05562H33.5606V5.20525H30.6223V2.51831C30.6223 2.41906 30.6766 2.36234 30.7716 2.36234H33.5606V0.504883H30.6426Z" fill="white"/>
        <path d="M13.6674 0C12.9283 0 12.3291 0.647392 12.3291 1.45304C12.3291 2.26587 12.9283 2.92765 13.6741 2.92765C14.4131 2.92765 15.019 2.26587 15.019 1.45304C15.0124 0.647392 14.4065 0 13.6674 0Z" fill="white"/>
        <path d="M14.6352 5.14868H12.7139V17.7679H14.6352V5.14868Z" fill="white"/>
    </g>
    <defs>
        <clipPath id="clip0_11014_10857">
            <rect width="44.25" height="18" fill="white" transform="translate(0.0771484)"/>
        </clipPath>
    </defs>
</svg>