<svg width="209" height="25" viewBox="0 0 209 25" fill="none" xmlns="http://www.w3.org/2000/svg">
<path d="M202.77 0H208.14V19.2838H202.77V0Z" fill="white"/>
<path d="M195.941 18.186C195.52 18.6327 195.015 18.9921 194.455 19.2437C193.777 19.5279 193.046 19.6648 192.312 19.6455C191.449 19.6565 190.594 19.4782 189.807 19.1233C189.066 18.7836 188.408 18.2854 187.879 17.6638C187.317 16.9928 186.89 16.2199 186.62 15.3873C186.315 14.4309 186.166 13.4315 186.178 12.4277C186.167 11.437 186.316 10.4509 186.62 9.50814C186.89 8.67957 187.317 7.91106 187.879 7.24505C188.413 6.6231 189.075 6.12501 189.821 5.78553C190.607 5.43057 191.462 5.25233 192.325 5.26335C193.056 5.2479 193.783 5.38947 194.455 5.67851C195.013 5.93946 195.517 6.30278 195.941 6.74962V5.63838H201.083V19.2843H195.941V18.186ZM193.798 10.2314C193.518 10.2278 193.239 10.2824 192.981 10.392C192.735 10.4995 192.512 10.6542 192.325 10.8473C192.135 11.0537 191.985 11.2938 191.882 11.5553C191.668 12.1389 191.668 12.7795 191.882 13.3631C191.981 13.6227 192.131 13.8597 192.324 14.0596C192.517 14.2532 192.747 14.4062 193 14.5096C193.253 14.6131 193.524 14.6649 193.797 14.6621C194.078 14.6645 194.355 14.6099 194.614 14.5016C194.861 14.3955 195.085 14.2407 195.271 14.0463C195.459 13.8454 195.606 13.6085 195.7 13.3497C195.81 13.0634 195.864 12.759 195.861 12.4525C195.865 12.1503 195.81 11.8503 195.7 11.5687C195.603 11.3074 195.457 11.0666 195.271 10.8587C195.081 10.6686 194.859 10.5143 194.614 10.4034C194.357 10.2914 194.079 10.2329 193.798 10.2314Z" fill="white"/>
<path d="M176.06 5.68513H173.627V10.3671H176.06V19.2794H181.392V10.3656H185.66V5.68369H181.392V1.85693H176.06V5.68513Z" fill="white"/>
<path d="M167.416 5.64014H172.786V19.286H167.416V5.64014Z" fill="white"/>
<path d="M157.338 5.26268C158.043 5.24254 158.743 5.3798 159.387 5.66446C159.921 5.91543 160.403 6.26526 160.807 6.69544V5.63771H165.949V17.7032C165.968 18.7652 165.776 19.8205 165.387 20.8086C165.045 21.6741 164.519 22.4552 163.846 23.0984C163.162 23.7282 162.355 24.2113 161.476 24.5178C160.497 24.8477 159.47 25.0106 158.436 24.9999C157.221 25.0071 156.01 24.854 154.834 24.5446C153.735 24.2736 152.695 23.8015 151.768 23.1519L153.656 18.9736C154.251 19.4608 154.931 19.8334 155.662 20.0724C156.383 20.2879 157.133 20.3919 157.885 20.3805C158.183 20.3815 158.48 20.3455 158.769 20.2735C159.096 20.1951 159.408 20.064 159.693 19.8851C159.992 19.6947 160.244 19.4381 160.429 19.135C160.636 18.7774 160.739 18.3693 160.726 17.9564V17.4753C160.328 17.8866 159.856 18.2184 159.334 18.4528C158.703 18.7205 158.023 18.8485 157.338 18.8279C156.443 18.8434 155.554 18.6748 154.727 18.3324C153.98 18.0247 153.312 17.5534 152.772 16.9532C152.218 16.3288 151.795 15.6004 151.526 14.8105C151.226 13.9181 151.081 12.9809 151.096 12.0395C151.083 11.1067 151.228 10.1783 151.526 9.29439C151.795 8.50446 152.218 7.77602 152.772 7.15169C153.315 6.55151 153.982 6.07637 154.727 5.75906C155.556 5.4227 156.444 5.25399 157.338 5.26268ZM158.676 10.097C158.41 10.0967 158.147 10.1466 157.899 10.2442C157.665 10.3363 157.447 10.4676 157.256 10.6326C157.072 10.8059 156.926 11.0156 156.826 11.2484C156.721 11.4982 156.671 11.7677 156.679 12.0386C156.671 12.3138 156.721 12.5876 156.826 12.8421C156.922 13.0768 157.069 13.2872 157.256 13.458C157.447 13.6229 157.665 13.7542 157.899 13.8464C158.148 13.9395 158.411 13.9849 158.676 13.9801C158.941 13.9837 159.204 13.9384 159.453 13.8464C159.684 13.7574 159.894 13.6205 160.069 13.4446C160.239 13.2651 160.375 13.0565 160.471 12.8288C160.569 12.5771 160.619 12.3089 160.618 12.0386C160.618 11.7683 160.568 11.5004 160.471 11.2484C160.372 11.0224 160.236 10.8143 160.069 10.6326C159.89 10.4652 159.681 10.3334 159.453 10.2442C159.206 10.1482 158.944 10.0983 158.679 10.097H158.676Z" fill="white"/>
<path d="M144.768 5.64014H150.137V19.286H144.768V5.64014Z" fill="white"/>
<path d="M134.566 5.26287C135.228 5.25203 135.887 5.36546 136.508 5.59729C137.03 5.81122 137.51 6.11488 137.927 6.49451V0H143.295V19.2838H138.183V18.185C137.762 18.6319 137.257 18.9913 136.697 19.2427C136.019 19.527 135.289 19.6639 134.554 19.6445C133.691 19.6556 132.837 19.4773 132.05 19.1223C131.308 18.7826 130.65 18.2844 130.121 17.6628C129.559 16.992 129.132 16.219 128.863 15.3863C128.557 14.43 128.408 13.4306 128.421 12.4267C128.409 11.436 128.558 10.45 128.863 9.50718C129.132 8.67857 129.56 7.91002 130.121 7.24409C130.655 6.62214 131.318 6.12405 132.063 5.78457C132.85 5.42994 133.704 5.25186 134.566 5.26287ZM136.039 10.2314C135.759 10.2277 135.481 10.2824 135.222 10.392C134.976 10.4995 134.753 10.6542 134.566 10.8473C134.376 11.0538 134.226 11.2937 134.123 11.5548C133.909 12.1384 133.909 12.779 134.123 13.3626C134.222 13.6221 134.372 13.8589 134.564 14.0592C134.758 14.2526 134.987 14.4054 135.24 14.5089C135.493 14.6123 135.765 14.6643 136.038 14.6616C136.318 14.664 136.596 14.6094 136.855 14.5011C137.102 14.395 137.325 14.2402 137.511 14.0458C137.7 13.8452 137.846 13.6082 137.941 13.3492C138.05 13.063 138.105 12.7586 138.102 12.452C138.105 12.1498 138.05 11.8498 137.941 11.5682C137.852 11.3086 137.71 11.0706 137.523 10.8698C137.336 10.669 137.109 10.5099 136.856 10.403C136.598 10.291 136.32 10.2329 136.039 10.2314Z" fill="white"/>
<path d="M122.118 18.1845C121.697 18.6314 121.192 18.9908 120.631 19.2422C119.954 19.5265 119.223 19.6635 118.489 19.644C117.626 19.6551 116.771 19.4768 115.985 19.1218C115.243 18.7821 114.585 18.2839 114.056 17.6623C113.494 16.9915 113.067 16.2185 112.798 15.3859C112.492 14.4295 112.343 13.4301 112.356 12.4262C112.344 11.4355 112.493 10.4495 112.798 9.50669C113.067 8.67804 113.494 7.90948 114.056 7.2436C114.59 6.62164 115.252 6.12356 115.998 5.78408C116.784 5.42928 117.638 5.25104 118.501 5.2619C119.232 5.24635 119.958 5.38792 120.63 5.67706C121.188 5.93786 121.692 6.3012 122.117 6.74817V5.63693H127.259V19.2828H122.118V18.1845ZM119.975 10.23C119.695 10.2263 119.417 10.2809 119.158 10.3905C118.912 10.4981 118.689 10.6527 118.502 10.8458C118.312 11.0532 118.162 11.2939 118.06 11.5557C117.846 12.1393 117.846 12.78 118.06 13.3635C118.159 13.623 118.309 13.8599 118.502 14.0601C118.695 14.2535 118.925 14.4064 119.178 14.5098C119.431 14.6133 119.702 14.6652 119.975 14.6625C120.256 14.6649 120.534 14.6103 120.792 14.502C121.039 14.396 121.262 14.2411 121.448 14.0467C121.637 13.8461 121.784 13.6091 121.878 13.3502C121.988 13.0639 122.043 12.7595 122.039 12.453C122.043 12.1508 121.988 11.8507 121.878 11.5691C121.79 11.3095 121.647 11.0715 121.46 10.8707C121.274 10.6699 121.046 10.5108 120.794 10.4039C120.536 10.291 120.257 10.2319 119.975 10.23Z" fill="white"/>
<path d="M106.47 5.26285C107.121 5.25729 107.768 5.38018 108.372 5.62451C108.938 5.85348 109.453 6.19474 109.885 6.62778C110.322 7.08666 110.663 7.62859 110.888 8.22154C111.137 8.89395 111.26 9.60663 111.25 10.3236V19.2838H105.867V11.9986C105.895 11.5355 105.762 11.0769 105.492 10.6996C105.364 10.5536 105.205 10.4381 105.027 10.3616C104.849 10.2851 104.655 10.2496 104.461 10.2577C104.28 10.2525 104.1 10.2869 103.933 10.3586C103.766 10.4303 103.618 10.5376 103.497 10.6729C103.219 11.0663 103.091 11.5459 103.136 12.0254V19.2838H97.7661V5.63788H102.854V6.9235C103.219 6.39725 103.712 5.97309 104.287 5.69139C104.974 5.38755 105.719 5.24113 106.47 5.26285Z" fill="white"/>
<path d="M89.2871 5.26248C90.311 5.258 91.3273 5.43946 92.2864 5.79803C93.171 6.13812 93.9808 6.64752 94.6704 7.29768C95.3432 7.94099 95.8764 8.71589 96.2369 9.57415C96.6172 10.4864 96.813 11.465 96.813 12.4533C96.813 13.4416 96.6172 14.4202 96.2369 15.3324C95.8764 16.1907 95.3432 16.9656 94.6704 17.6089C93.9808 18.2591 93.171 18.7685 92.2864 19.1086C90.3459 19.8228 88.2144 19.8228 86.2739 19.1086C85.3877 18.7717 84.5773 18.2619 83.89 17.6089C83.2171 16.9656 82.6839 16.1907 82.3234 15.3324C81.9419 14.4209 81.7504 13.4412 81.7606 12.4531C81.7504 11.465 81.9419 10.4852 82.3234 9.57367C82.6839 8.71541 83.2171 7.94051 83.89 7.2972C84.5773 6.6442 85.3877 6.13442 86.2739 5.79755C87.2369 5.43561 88.2584 5.25422 89.2871 5.26248ZM89.2871 10.2311C89.0056 10.2316 88.7274 10.2908 88.4701 10.405C88.2259 10.5093 88.0066 10.6645 87.8271 10.8602C87.6407 11.068 87.4949 11.3088 87.3971 11.5702C87.2009 12.1431 87.2009 12.765 87.3971 13.3379C87.4918 13.5967 87.6381 13.8337 87.8271 14.0344C88.0023 14.2382 88.2224 14.3987 88.4701 14.5031C88.7284 14.6127 89.0066 14.6674 89.2871 14.6636C89.5673 14.666 89.8451 14.6114 90.1036 14.5031C90.3473 14.3918 90.566 14.2324 90.7466 14.0344C90.9356 13.8337 91.0819 13.5967 91.1766 13.3379C91.3728 12.765 91.3728 12.1431 91.1766 11.5702C91.0788 11.3088 90.933 11.068 90.7466 10.8602C90.562 10.6704 90.344 10.5161 90.1036 10.405C89.846 10.2921 89.5682 10.2332 89.2871 10.2311Z" fill="white"/>
<path d="M72.2015 5.26268C72.9059 5.24254 73.6059 5.3798 74.2505 5.66446C74.7845 5.91543 75.2661 6.26526 75.6699 6.69544V5.63771H80.8124V17.7032C80.8306 18.7652 80.6395 19.8204 80.2501 20.8086C79.9079 21.6741 79.3824 22.4552 78.7098 23.0984C78.0248 23.7282 77.2183 24.2113 76.3397 24.5178C75.3606 24.8477 74.3329 25.0106 73.2998 24.9999C72.0843 25.0071 70.8731 24.854 69.6976 24.5446C68.5982 24.2736 67.5584 23.8015 66.6309 23.1519L68.519 18.9736C69.114 19.4609 69.7944 19.8335 70.5255 20.0724C71.2464 20.2879 71.9961 20.3919 72.7485 20.3805C73.0464 20.3815 73.3432 20.3455 73.6323 20.2735C73.9594 20.1951 74.2715 20.0639 74.5563 19.8851C74.8558 19.6947 75.1077 19.4381 75.2925 19.135C75.4992 18.7774 75.6021 18.3693 75.5896 17.9564V17.4753C75.1917 17.8866 74.7191 18.2184 74.197 18.4528C73.5667 18.7205 72.8859 18.8485 72.2015 18.8279C71.3062 18.8434 70.4174 18.6747 69.5901 18.3324C68.8435 18.0246 68.1755 17.5533 67.6351 16.9532C67.0817 16.3288 66.6582 15.6004 66.3897 14.8105C66.0892 13.9181 65.9437 12.981 65.9597 12.0395C65.9457 11.1067 66.0911 10.1783 66.3897 9.29439C66.6582 8.50445 67.0816 7.77601 67.6351 7.15169C68.1785 6.55162 68.8454 6.0765 69.5901 5.75906C70.4192 5.42275 71.3068 5.25404 72.2015 5.26268ZM73.5391 10.097C73.2734 10.0967 73.01 10.1466 72.7628 10.2442C72.528 10.3363 72.3106 10.4676 72.1198 10.6326C71.9352 10.8057 71.7888 11.0155 71.6898 11.2484C71.5847 11.4982 71.5345 11.7677 71.5426 12.0386C71.5346 12.3138 71.5847 12.5876 71.6898 12.8421C71.7854 13.0769 71.9323 13.2873 72.1198 13.458C72.3106 13.6229 72.528 13.7542 72.7628 13.8464C73.0108 13.9395 73.2743 13.9849 73.5391 13.9801C73.8041 13.9837 74.0675 13.9384 74.316 13.8464C74.5475 13.7575 74.7575 13.6205 74.9323 13.4446C75.1021 13.2652 75.2381 13.0566 75.3336 12.8288C75.4327 12.5772 75.4828 12.309 75.4812 12.0386C75.4815 11.7683 75.4315 11.5003 75.3336 11.2484C75.2348 11.0223 75.0992 10.8142 74.9323 10.6326C74.7533 10.4652 74.5442 10.3334 74.316 10.2442C74.0687 10.148 73.8059 10.0981 73.5406 10.097H73.5391Z" fill="white"/>
<path d="M59.6561 18.1845C59.2347 18.6313 58.7295 18.9907 58.1693 19.2422C57.4916 19.5265 56.7613 19.6635 56.0266 19.644C55.1639 19.6551 54.3092 19.4768 53.5228 19.1218C52.7809 18.7822 52.1225 18.284 51.5941 17.6623C51.0322 16.9914 50.6048 16.2185 50.3352 15.3859C50.03 14.4294 49.8808 13.4301 49.8933 12.4262C49.8817 11.4355 50.0309 10.4495 50.3352 9.50669C50.6048 8.67812 51.0323 7.90961 51.5941 7.2436C52.1275 6.62154 52.7903 6.12344 53.5361 5.78408C54.3226 5.42907 55.1772 5.25083 56.04 5.2619C56.7713 5.24635 57.4974 5.38792 58.1693 5.67706C58.7275 5.93801 59.2318 6.30133 59.6561 6.74817V5.63693H64.7981V19.2828H59.6561V18.1845ZM57.5134 10.23C57.2329 10.2262 56.9547 10.2809 56.6964 10.3905C56.45 10.4981 56.2271 10.6527 56.04 10.8458C55.8502 11.0532 55.7003 11.2939 55.5981 11.5557C55.3841 12.1393 55.3841 12.78 55.5981 13.3635C55.6973 13.623 55.8475 13.8599 56.04 14.0601C56.2332 14.2535 56.463 14.4064 56.716 14.5098C56.969 14.6133 57.2401 14.6652 57.5134 14.6625C57.7936 14.665 58.0714 14.6103 58.3299 14.502C58.5771 14.3961 58.8004 14.2412 58.9863 14.0467C59.1753 13.846 59.3215 13.6091 59.4163 13.3502C59.5258 13.0639 59.5803 12.7595 59.5768 12.453C59.5803 12.1508 59.5258 11.8508 59.4163 11.5691C59.3277 11.3094 59.1853 11.0713 58.9983 10.8705C58.8114 10.6697 58.584 10.5107 58.3313 10.4039C58.0733 10.291 57.795 10.2318 57.5134 10.23Z" fill="white"/>
<path d="M48.4695 5.26206C48.6305 5.26206 48.791 5.27544 48.9783 5.28882C49.166 5.31557 49.3266 5.32895 49.4737 5.34232L49.2864 10.7122C49.005 10.6587 48.684 10.5918 48.309 10.5249C47.9233 10.4654 47.5339 10.4335 47.1437 10.4294C46.8611 10.4284 46.5789 10.4508 46.3 10.4963C46.0821 10.5383 45.8735 10.6192 45.6842 10.7351C45.5096 10.8535 45.3743 11.0214 45.2958 11.2172C45.2084 11.4712 45.1676 11.7389 45.1754 12.0074V19.283H39.7769V5.6371H44.894V6.96285C45.2334 6.40141 45.7324 5.95383 46.3273 5.67723C47.0033 5.38696 47.7339 5.24538 48.4695 5.26206Z" fill="white"/>
<path d="M37.904 5.26208C38.0646 5.26208 38.2256 5.27546 38.4129 5.28884C38.6001 5.31559 38.7611 5.32897 38.9083 5.34234L38.721 10.7122C38.4396 10.6587 38.1186 10.5918 37.7435 10.525C37.3579 10.4654 36.9685 10.4335 36.5783 10.4294C36.2957 10.4284 36.0135 10.4508 35.7346 10.4963C35.5167 10.5383 35.3081 10.6192 35.1188 10.7352C34.9442 10.8536 34.8089 11.0214 34.7304 11.2172C34.6429 11.4712 34.6022 11.7389 34.61 12.0074V19.283H29.2114V5.63711H34.3276V6.96286C34.667 6.40143 35.166 5.95385 35.7609 5.67724C36.4373 5.38686 37.1682 5.24527 37.904 5.26208Z" fill="white"/>
<path d="M22.388 18.1845C21.9669 18.6313 21.4619 18.9907 20.9018 19.2422C20.2241 19.5265 19.4937 19.6634 18.7591 19.644C17.8962 19.6551 17.0413 19.4768 16.2547 19.1218C15.513 18.7821 14.8549 18.2839 14.3265 17.6623C13.7645 16.9915 13.3371 16.2185 13.0677 15.3859C12.7623 14.4295 12.6131 13.4301 12.6257 12.4262C12.614 11.4355 12.7632 10.4495 13.0677 9.50669C13.3371 8.67807 13.7646 7.90953 14.3265 7.2436C14.8598 6.62162 15.5224 6.12352 16.2681 5.78408C17.0547 5.42908 17.9095 5.25083 18.7724 5.2619C19.5038 5.24635 20.2299 5.38792 20.9018 5.67706C21.4598 5.93798 21.964 6.30131 22.388 6.74817V5.63693H27.53V19.2828H22.388V18.1845ZM20.2453 10.23C19.9648 10.2262 19.6866 10.2809 19.4284 10.3905C19.1822 10.4981 18.9593 10.6527 18.7724 10.8458C18.5824 11.053 18.4325 11.2937 18.3305 11.5557C18.1163 12.1393 18.1163 12.78 18.3305 13.3635C18.4295 13.6231 18.5798 13.86 18.7724 14.0601C18.9654 14.2536 19.1952 14.4065 19.4481 14.51C19.701 14.6135 19.9721 14.6653 20.2453 14.6625C20.5257 14.665 20.8037 14.6104 21.0623 14.502C21.3095 14.396 21.5328 14.2411 21.7187 14.0467C21.9077 13.8461 22.054 13.6091 22.1487 13.3502C22.2583 13.0639 22.3128 12.7595 22.3092 12.453C22.3128 12.1508 22.2583 11.8507 22.1487 11.5691C22.0602 11.3095 21.9178 11.0714 21.731 10.8706C21.5441 10.6698 21.3168 10.5108 21.0642 10.4039C20.8059 10.2909 20.5273 10.2317 20.2453 10.23Z" fill="white"/>
<path d="M2.60406 5.68366H0.17041V10.3656H2.60406V19.278H7.9362V10.3642H12.2044V5.68223H7.9362V1.85547H2.60406V5.68366Z" fill="white"/>
</svg>
