<svg width="24" height="24" viewBox="0 0 24 24" fill="none" xmlns="http://www.w3.org/2000/svg">
<path d="M7.88105 9.6994C8.0185 9.69914 8.15165 9.74735 8.25708 9.83554L11.9987 12.9483L15.7403 9.83554C15.7996 9.78574 15.8682 9.74813 15.9421 9.72491C16.016 9.70169 16.0937 9.69331 16.1709 9.70023C16.248 9.70714 16.323 9.72923 16.3916 9.76522C16.4602 9.80121 16.521 9.8504 16.5706 9.90996C16.6201 9.96951 16.6574 10.0383 16.6802 10.1123C16.7031 10.1863 16.7112 10.2641 16.7039 10.3412C16.6966 10.4183 16.6742 10.4932 16.6379 10.5617C16.6016 10.6301 16.5521 10.6907 16.4923 10.7399L12.3764 14.1656C12.2707 14.2536 12.1376 14.3017 12.0001 14.3017C11.8627 14.3017 11.7295 14.2536 11.6239 14.1656L7.50627 10.7399C7.4132 10.6626 7.34623 10.5585 7.31451 10.4417C7.28279 10.3249 7.28786 10.2012 7.32902 10.0874C7.37019 9.97364 7.44545 9.87533 7.54453 9.80589C7.64362 9.73645 7.76171 9.69926 7.88271 9.6994H7.88105Z" fill="#fff"/>
</svg>
