<svg xmlns="http://www.w3.org/2000/svg" width="24" height="25" viewBox="0 0 25 24" fill="none">
    <g fill="#fff">
        <path d="M9.17 10.591a.585.585 0 1 0-1.17 0c0 .984.456 1.905 1.23 2.568.77.66 1.798 1.02 2.855 1.02s2.085-.36 2.856-1.02c.773-.664 1.229-1.584 1.229-2.568a.585.585 0 1 0-1.17 0c0 .61-.281 1.216-.82 1.679-.543.465-1.295.738-2.095.738-.8 0-1.552-.273-2.094-.738-.54-.463-.821-1.07-.821-1.679Z"/>
        <path fill-rule="evenodd" d="M5.95 2.235A.585.585 0 0 1 6.417 2h11.334c.184 0 .358.087.469.235l2.833 3.803a.586.586 0 0 1 .116.35v13.125c0 .659-.26 1.29-.723 1.757a2.467 2.467 0 0 1-1.75.73H5.473a2.467 2.467 0 0 1-1.75-.73A2.493 2.493 0 0 1 3 19.513V6.388c0-.126.04-.249.116-.35l2.833-3.803Zm11.508.936 2.11 2.832H4.602l2.11-2.832h10.746ZM20 7.174H4.17v12.34c0 .35.138.684.383.93.245.247.576.385.92.385h13.223c.345 0 .676-.138.92-.384.246-.247.384-.582.384-.932V7.173Z" clip-rule="evenodd"/>
    </g>
</svg>