<svg width="76" height="26" viewBox="0 0 76 26" fill="none" xmlns="http://www.w3.org/2000/svg">
<g clip-path="url(#clip0_1124_5313)">
<path d="M58.0554 23.4472H52.1406V8.13318H58.0554V23.4472Z" fill="white"/>
<path d="M51.2471 11.532L46.3404 14.309C45.6338 13.3581 44.8115 12.9063 43.6375 12.9063C42.1755 12.9063 40.8154 13.9172 40.8154 15.7907C40.8154 17.664 42.1262 18.675 43.5885 18.675C44.7132 18.675 45.6199 18.2232 46.3439 17.2565L51.2645 20.0808C49.6337 22.286 47.0996 23.6728 43.7746 23.6728C38.4499 23.6728 34.7031 20.4125 34.7031 15.7907C34.7031 11.1687 38.4499 7.90845 43.7746 7.90845C47.0996 7.90845 49.6021 9.2985 51.2505 11.532H51.2471Z" fill="white"/>
<path d="M28.3151 23.4476V21.9665C27.3602 22.9619 25.9682 23.6728 23.9464 23.6728C19.6591 23.6728 16.6484 20.1244 16.6484 15.7764C16.6484 11.4285 19.6591 7.90845 23.9634 7.90845C25.9716 7.90845 27.3634 8.63205 28.3185 9.65898V8.13365H33.8522V23.4476H28.3151ZM22.5851 15.7922C22.5851 17.4669 23.7839 18.6772 25.4332 18.6772C27.0824 18.6772 28.2813 17.4701 28.2813 15.7922C28.2813 14.1144 27.0824 12.9073 25.4332 12.9073C23.7839 12.9073 22.5851 14.1144 22.5851 15.7922Z" fill="white"/>
<path d="M15.8826 23.4476H10.1187V15.4198C10.1187 13.8877 9.35668 13.0682 8.09689 13.0682C6.94883 13.0682 6.08866 13.797 6.08866 15.4522V23.4476H0.328125V8.32951H5.81435V9.90694C6.72193 8.57568 8.1443 7.90845 10.1525 7.90845C13.4713 7.90845 15.8826 10.1531 15.8826 13.6837V23.4476Z" fill="white"/>
<path d="M75.327 15.7907C75.327 20.3336 71.8138 23.6728 67.0462 23.6728C62.2788 23.6728 58.7656 20.3367 58.7656 15.7907C58.7656 11.2446 62.2756 7.90845 67.0462 7.90845C71.817 7.90845 75.327 11.2446 75.327 15.7907ZM64.348 15.7907C64.348 17.465 65.4838 18.675 67.0462 18.675C68.6088 18.675 69.7446 17.4682 69.7446 15.7907C69.7446 14.1131 68.6088 12.9063 67.0462 12.9063C65.4838 12.9063 64.348 14.1131 64.348 15.7907Z" fill="white"/>
<path d="M72.9943 6.77649L66.6562 7.2324L67.8889 3.18417L74.2272 2.72827L72.9943 6.77649Z" fill="white"/>
</g>
<defs>
<clipPath id="clip0_1124_5313">
<rect width="75" height="25" fill="white" transform="translate(0.328125 0.699951)"/>
</clipPath>
</defs>
</svg>
